<svg version="1.1" id="svg29" width="312.3" height="72" xmlns="http://www.w3.org/2000/svg"><defs id="defs11"><style id="style9">.codeac{fill:#005096}</style></defs><path d="M78.6 42.58A19.22 19.22 0 0185.33 31a20.19 20.19 0 0113-4.3c7 0 12.42 3.75 14.64 9.57L105 39.52c-1.11-3.05-4-5-7.77-5a9.42 9.42 0 00-6.52 2.64 11.8 11.8 0 00-3.6 6.31 13.36 13.36 0 00-.28 2.36C86.86 50.55 90 54 95 54a10.58 10.58 0 008.4-4.71l7.35 3.95c-3.61 5.48-9.5 8.67-16.72 8.67-9.36 0-15.81-6.45-15.81-15.4a18.87 18.87 0 01.38-3.93z" id="path13"/><path d="M115.57 42.58a19.24 19.24 0 016.8-11.52 19.6 19.6 0 0112.83-4.37c9.3 0 15.8 6.52 15.8 15.31a19 19 0 01-.35 3.75c-1.8 9.57-9.71 16.09-19.7 16.09-9.22 0-15.67-6.59-15.67-15.54a20 20 0 01.29-3.72zm26.85.07c0-4.79-3.19-8.12-8.26-8.12a9.6 9.6 0 00-6.59 2.57 11 11 0 00-3.67 6.38 14 14 0 00-.21 2.36c0 4.78 3.19 8.11 8.18 8.11s9.3-3.88 10.34-9a13.94 13.94 0 00.21-2.3z" id="path15"/><path d="M155.8 42.58A19.84 19.84 0 01162.25 31a18.24 18.24 0 0112.21-4.3c4.51 0 8.6 1.53 10.82 3.75l3.95-20.26h8.47l-9.85 50.64h-8.47l.42-2.15a15 15 0 01-9.43 3.19c-8.54 0-15-6.8-15-15.47a18.07 18.07 0 01.43-3.82zm26.84.07c0-4.79-3.19-8.12-8.25-8.12a9.65 9.65 0 00-6.66 2.57 11.17 11.17 0 00-3.61 6.38 13.93 13.93 0 00-.2 2.36c0 4.78 3.19 8.11 8.18 8.11s9.29-3.88 10.34-9a15 15 0 00.2-2.3z" id="path17"/><path d="M230.15 47.36h-23.93c.21 4.09 2.29 6.73 6.66 6.73a10.5 10.5 0 008.53-4.72l7 4c-3.4 5.48-9.57 8.46-16.16 8.46-8.6 0-14.64-7-14.64-15.33A23.19 23.19 0 01198 43c1.8-9.64 9.29-16.3 18.87-16.3 8.67 0 14.35 6.59 14.35 14.64a18.22 18.22 0 01-1.07 6.02zm-7.28-6.93a6 6 0 00-6.45-6 9.16 9.16 0 00-8.88 6z" id="path19"/><path d="M235.77 42.58A19.84 19.84 0 01242.22 31a18.24 18.24 0 0112.21-4.3 17.6 17.6 0 0110.82 3.75l.55-2.71h8.47l-6.46 33.09h-8.46l.42-2.15a15 15 0 01-9.43 3.19c-8.54 0-15-6.8-15-15.47a18.07 18.07 0 01.43-3.82zm26.84.07c0-4.79-3.19-8.12-8.25-8.12a9.6 9.6 0 00-6.59 2.57 11.1 11.1 0 00-3.68 6.38 14 14 0 00-.21 2.36c0 4.78 3.2 8.11 8.19 8.11 4.99 0 9.29-3.88 10.33-9a13.94 13.94 0 00.21-2.3z" id="path21"/><path d="M277.94 42.58A19.12 19.12 0 01284.67 31a20.15 20.15 0 0113-4.3c7 0 12.41 3.75 14.63 9.57l-7.9 3.26c-1.11-3.05-4-5-7.77-5a9.39 9.39 0 00-6.52 2.64 11.75 11.75 0 00-3.61 6.31 13.36 13.36 0 00-.28 2.36c0 4.71 3.12 8.11 8.12 8.11a10.57 10.57 0 008.39-4.71l7.35 3.95c-3.6 5.48-9.5 8.67-16.71 8.67-9.37 0-15.82-6.45-15.82-15.4a18.22 18.22 0 01.39-3.88z" id="path23"/><path class="codeac" id="polygon25" d="M49.81 19.14V7.61l-7.3 3.4h4.17v6.67z"/><path class="codeac" d="M68.71 21.23L56.24 9.61V7.2L49.05 0l-5.78 2.71h-.09l-1 2.05-9.68-.03L23 .33h-5.16l-2.33 5v9.61l-3 3-2.65-.27v4.71L0 27v7.53l2.52 5.39 2.1.21 2.56 5.47 5.67.49 5.15 5.1 2.1 2.09L38.94 72h9.39l29.86-50.77zM18.81 6L20 3.39h3.7L29.15 6l-6.46 3L21 5.33h-1.24v5.35l-1 1zm22.72 51.88L33.68 50H21.24l-6.77-6.91-5.29-.45-1-2.24h10.67l5.42-5.4L17 38.39 4.59 37.1l-1.53-3.29v-3.29l2.94.31 1 2.42 1.08 2.52 5.17-5.17-4.1.4-1.1-2.7L5 28l12.42-5.8.68.07 2.73 5.85 9.13.8L34 20.14l-4-.4-2.64 5.64v-5.91l-11-1.16 5.73-5.72 10.4-4.81 8.32.06-2.44 5.26h2.2L44 5.73l4.39-2.05 4.8 4.79v12l3.05 1.42v-8l11.09 9.35z" id="path27"/></svg>