<svg width="1116.572" height="427.58" xmlns="http://www.w3.org/2000/svg" clip-rule="evenodd" fill-rule="evenodd" stroke-linejoin="round" stroke-miterlimit="2"><path d="M440.563 253.443c0 3.35-.75 5.862-2.259 7.479-1.504 1.625-3.57 2.417-6.208 2.417h-59.825c0 4.208.492 8.008 1.458 11.383 1.025 3.433 2.596 6.325 4.746 8.733 2.18 2.371 4.958 4.204 8.388 5.446 3.42 1.25 7.52 1.892 12.291 1.892 4.854 0 9.104-.38 12.754-1.059 3.684-.712 6.884-1.462 9.555-2.333a97.786 97.786 0 006.65-2.292c1.77-.712 3.2-1.045 4.291-1.045.675 0 1.234.1 1.65.362.454.267.83.72 1.134 1.4.254.642.491 1.575.6 2.82.112 1.2.15 2.71.15 4.55 0 1.613-.038 3-.109 4.138a28.925 28.925 0 01-.346 2.934 6.281 6.281 0 01-.633 2.029 6.832 6.832 0 01-1.17 1.58c-.488.524-1.767 1.24-3.909 2.1-2.142.87-4.85 1.728-8.158 2.595-3.317.83-7.075 1.587-11.325 2.18-4.28.65-8.834.95-13.688.95-8.725 0-16.396-1.1-22.98-3.313-6.54-2.188-12.032-5.525-16.47-10-4.4-4.484-7.67-10.159-9.854-16.963-2.138-6.846-3.233-14.858-3.233-24.037 0-8.717 1.129-16.621 3.425-23.617 2.254-7.025 5.57-12.967 9.887-17.863 4.363-4.883 9.633-8.604 15.838-11.166 6.208-2.596 13.195-3.871 20.979-3.871 8.233 0 15.27 1.204 21.104 3.646 5.82 2.408 10.637 5.791 14.367 10.079 3.754 4.292 6.495 9.367 8.266 15.275 1.767 5.862 2.634 12.25 2.634 19.137zm-26.892-7.934c.225-7.779-1.32-13.916-4.663-18.354-3.345-4.433-8.495-6.658-15.491-6.658-3.53 0-6.584.646-9.18 1.958a18.785 18.785 0 00-6.5 5.342c-1.733 2.254-3.05 4.892-3.991 7.937-.904 3.046-1.425 6.317-1.575 9.775zm140.913 59.905c0 .833-.192 1.513-.571 2.075-.371.52-.975.975-1.88 1.35-.858.375-2.07.642-3.574.792-1.5.146-3.342.216-5.559.216-2.329 0-4.258-.07-5.716-.216-1.467-.15-2.671-.417-3.613-.792-.896-.375-1.58-.83-1.95-1.35-.417-.562-.608-1.242-.608-2.075v-10.9c-5.075 5.45-10.371 9.663-15.942 12.675-5.53 3.008-11.7 4.513-18.433 4.513-7.517 0-13.834-1.43-19.025-4.33-5.154-2.891-9.4-6.812-12.675-11.733-3.275-4.925-5.638-10.68-7.104-17.258-1.471-6.588-2.184-13.505-2.184-20.759 0-8.758.938-16.629 2.784-23.587 1.879-6.988 4.625-12.934 8.233-17.854 3.575-4.93 8.087-8.688 13.429-11.33 5.38-2.666 11.542-3.979 18.496-3.979 5.542 0 10.542 1.125 15.004 3.338 4.48 2.262 8.913 5.537 13.317 9.9v-53.213c0-.758.22-1.4.6-1.996.416-.604 1.166-1.087 2.216-1.504 1.059-.375 2.488-.72 4.263-.941 1.762-.184 3.98-.296 6.692-.296 2.741 0 4.958.112 6.725.296 1.766.22 3.166.566 4.17.941 1.067.417 1.767.9 2.225 1.504a3.16 3.16 0 01.68 1.996zm-27.571-65.654c-3.95-5.004-7.746-8.809-11.392-11.438-3.654-2.67-7.446-3.996-11.387-3.996-3.617 0-6.709.921-9.338 2.721-2.592 1.804-4.7 4.209-6.283 7.221-1.571 3.004-2.738 6.354-3.53 10.08a57.826 57.826 0 00-1.133 11.383c0 4.1.342 8.125.984 12.008.679 3.908 1.729 7.362 3.275 10.417 1.5 3.041 3.5 5.483 5.97 7.337 2.525 1.833 5.684 2.738 9.48 2.738 1.92 0 3.766-.263 5.575-.83 1.8-.529 3.641-1.429 5.516-2.67 1.85-1.28 3.796-2.892 5.759-4.93 1.995-1.991 4.17-4.479 6.504-7.441zm147.271 65.654c0 .758-.238 1.396-.642 1.958-.458.521-1.204 1.017-2.22 1.359-1.022.375-2.45.637-4.25.829-1.81.187-4.03.287-6.66.287-2.716 0-4.962-.1-6.77-.287-1.804-.192-3.238-.454-4.246-.83-1.017-.341-1.775-.837-2.212-1.358a3.135 3.135 0 01-.646-1.958v-56.07c0-4.772-.342-8.505-1.05-11.247-.725-2.7-1.7-5.033-3.059-6.987a13.795 13.795 0 00-5.112-4.521c-2.067-1.05-4.508-1.575-7.33-1.575-3.49 0-7.074 1.275-10.687 3.837-3.57 2.596-7.333 6.321-11.233 11.242v65.321c0 .758-.2 1.396-.646 1.958-.45.521-1.2 1.017-2.25 1.359-1.096.375-2.487.637-4.254.829-1.775.187-3.988.287-6.73.287-2.716 0-4.974-.1-6.7-.287-1.766-.192-3.19-.454-4.237-.83-1.1-.341-1.858-.837-2.262-1.358a2.98 2.98 0 01-.688-1.958V160.551c0-.745.23-1.391.688-1.987.404-.6 1.162-1.096 2.262-1.467 1.046-.42 2.471-.716 4.238-.937 1.725-.234 3.983-.342 6.7-.342 2.741 0 4.954.108 6.729.342 1.767.22 3.158.516 4.254.937 1.05.371 1.8.867 2.25 1.467.446.596.646 1.242.646 1.987v54.309c4.762-4.704 9.662-8.2 14.62-10.53 4.93-2.295 10.122-3.458 15.463-3.458 6.696 0 12.33 1.096 16.925 3.313 4.584 2.208 8.309 5.22 11.125 9.02 2.817 3.83 4.859 8.276 6.096 13.384 1.271 5.12 1.888 11.292 1.888 18.583zm124.571-50.125c0 8.383-1.125 16.02-3.305 22.933-2.229 6.887-5.566 12.87-10.041 17.83-4.467 5.003-10.084 8.878-16.854 11.587-6.763 2.708-14.659 4.062-23.692 4.062-8.72 0-16.317-1.208-22.783-3.617-6.471-2.433-11.842-5.983-16.1-10.604-4.238-4.625-7.405-10.3-9.48-17.07-2.066-6.738-3.075-14.442-3.075-23.13 0-8.387 1.121-16.025 3.342-22.975 2.254-6.92 5.608-12.866 10.083-17.825 4.509-4.966 10.075-8.796 16.817-11.508 6.73-2.742 14.583-4.1 23.654-4.1 8.8 0 16.425 1.204 22.9 3.567 6.463 2.412 11.8 5.912 16.017 10.537 4.25 4.625 7.367 10.346 9.442 17.067 2.025 6.77 3.075 14.512 3.075 23.246m-28.534 1.129c0-4.85-.37-9.334-1.17-13.392-.759-4.096-2.067-7.625-3.905-10.637-1.85-3.013-4.291-5.388-7.35-7.034-3.037-1.691-6.875-2.558-11.491-2.558-4.109 0-7.721.742-10.8 2.25-3.084 1.508-5.605 3.729-7.6 6.625-1.992 2.896-3.459 6.387-4.467 10.45-.983 4.1-1.467 8.725-1.467 13.962 0 4.842.367 9.284 1.196 13.384.8 4.054 2.1 7.591 3.908 10.637 1.805 3.004 4.246 5.338 7.342 6.992 3.092 1.658 6.883 2.483 11.433 2.483 4.205 0 7.821-.791 10.938-2.283 3.092-1.508 5.604-3.688 7.6-6.55 1.954-2.858 3.425-6.32 4.396-10.413.941-4.07 1.437-8.729 1.437-13.916m141.65 48.996c0 .758-.187 1.396-.562 1.958-.375.521-1.008 1.017-1.921 1.359-.933.375-2.137.637-3.646.829-1.504.187-3.383.287-5.67.287-2.426 0-4.405-.1-5.917-.287-1.496-.192-2.671-.454-3.563-.83-.87-.341-1.516-.837-1.891-1.358a3.74 3.74 0 01-.521-1.958v-11.32c-5.45 5.87-10.984 10.27-16.584 13.2-5.645 2.933-11.433 4.408-17.45 4.408-6.77 0-12.45-1.1-17.029-3.313-4.592-2.192-8.325-5.192-11.142-9.025-2.816-3.792-4.85-8.246-6.062-13.28-1.188-5.037-1.8-11.27-1.8-18.766v-60.167c0-.712.196-1.391.612-1.916.371-.563 1.121-1.025 2.188-1.396 1.075-.37 2.504-.633 4.27-.825 1.81-.188 4.03-.258 6.7-.258 2.71 0 4.955.07 6.688.258 1.767.192 3.192.454 4.259.825 1.087.37 1.837.833 2.254 1.396.446.525.675 1.204.675 1.916v55.538c0 5.12.341 9.067.983 11.77.667 2.717 1.692 5.047 3.046 7.005a13.742 13.742 0 005.142 4.508c2.116 1.096 4.558 1.621 7.333 1.621 3.546 0 7.07-1.287 10.65-3.87 3.575-2.555 7.367-6.317 11.388-11.242v-65.33a3.3 3.3 0 01.608-1.916c.417-.563 1.167-1.025 2.217-1.396 1.054-.37 2.487-.633 4.254-.825 1.766-.188 3.979-.258 6.683-.258 2.75 0 4.97.07 6.738.258 1.766.192 3.166.454 4.183.825 1.05.37 1.762.833 2.22 1.396.438.525.667 1.204.667 1.916zm95.021-27.742c0 5.596-1.05 10.492-3.15 14.767-2.075 4.254-5.046 7.829-8.846 10.687-3.833 2.85-8.341 5.004-13.575 6.433-5.191 1.43-10.862 2.142-16.966 2.142-3.671 0-7.18-.267-10.521-.83-3.346-.524-6.317-1.24-8.954-2.07-2.667-.862-4.842-1.72-6.617-2.6-1.767-.9-3.042-1.717-3.87-2.475-.784-.792-1.426-1.996-1.884-3.65-.413-1.65-.642-4.1-.642-7.333 0-2.109.084-3.842.23-5.109.145-1.283.374-2.304.633-3.091.308-.742.683-1.275 1.141-1.542.413-.267.967-.38 1.642-.38.792 0 1.996.46 3.583 1.393 1.575.908 3.53 1.925 5.9 3.004 2.334 1.096 5.075 2.15 8.2 3.096 3.125.979 6.65 1.429 10.605 1.429 2.516 0 4.745-.263 6.7-.75 1.904-.534 3.604-1.25 5.029-2.225 1.47-.934 2.52-2.146 3.27-3.646.717-1.467 1.092-3.15 1.092-5.046 0-2.204-.679-4.096-2.029-5.675-1.358-1.575-3.158-2.97-5.412-4.137a57.268 57.268 0 00-7.6-3.305c-2.834-1.02-5.713-2.191-8.684-3.42a81.732 81.732 0 01-8.725-4.296 33.987 33.987 0 01-7.6-5.938c-2.22-2.366-4.02-5.191-5.37-8.504-1.359-3.308-2.026-7.25-2.026-11.887 0-4.692.905-9.013 2.734-12.925 1.837-3.95 4.483-7.305 7.941-10.121 3.413-2.78 7.625-4.921 12.584-6.463 4.979-1.546 10.546-2.333 16.7-2.333 3.083 0 6.104.217 9 .67 2.887.426 5.525.98 7.862 1.663 2.359.634 4.321 1.359 5.93 2.13 1.62.758 2.783 1.445 3.5 1.97.674.554 1.166 1.121 1.474 1.654.292.563.521 1.234.675 1.992.155.788.259 1.73.375 2.858.113 1.167.188 2.555.188 4.246 0 2-.075 3.604-.188 4.85-.116 1.246-.312 2.254-.57 2.975-.221.75-.605 1.242-1.017 1.504-.442.263-.97.371-1.538.371-.675 0-1.695-.37-3.087-1.166a76.259 76.259 0 00-5.254-2.48c-2.075-.862-4.517-1.691-7.267-2.479-2.746-.754-5.9-1.133-9.392-1.133-2.525 0-4.67.229-6.52.75-1.83.529-3.346 1.25-4.509 2.22a9.043 9.043 0 00-2.666 3.347 10.249 10.249 0 00-.863 4.137c0 2.258.667 4.188 2.096 5.717 1.383 1.546 3.2 2.9 5.504 4.1 2.288 1.162 4.842 2.258 7.77 3.316a190.187 190.187 0 018.805 3.346c2.97 1.2 5.908 2.63 8.808 4.25 2.896 1.617 5.484 3.571 7.788 5.942 2.246 2.329 4.092 5.146 5.483 8.425 1.384 3.267 2.1 7.142 2.1 11.625m109.58-24.229c0 3.35-.75 5.862-2.255 7.479-1.504 1.625-3.57 2.417-6.191 2.417h-59.85c0 4.208.5 8.008 1.466 11.383 1.025 3.433 2.604 6.325 4.746 8.733 2.18 2.371 4.963 4.204 8.388 5.446 3.429 1.25 7.52 1.892 12.296 1.892 4.858 0 9.1-.38 12.745-1.059 3.696-.712 6.884-1.462 9.555-2.333a95.439 95.439 0 006.65-2.292c1.766-.712 3.204-1.045 4.295-1.045.675 0 1.246.1 1.659.362.441.267.816.72 1.125 1.4.258.642.487 1.575.596 2.82.12 1.2.154 2.71.154 4.55 0 1.613-.034 3-.109 4.138-.07 1.121-.195 2.1-.341 2.934a6.181 6.181 0 01-.634 2.029 6.954 6.954 0 01-1.17 1.58c-.492.524-1.767 1.24-3.909 2.1-2.15.87-4.858 1.728-8.17 2.595-3.313.83-7.063 1.587-11.313 2.18-4.296.65-8.846.95-13.688.95-8.737 0-16.396-1.1-22.97-3.313-6.555-2.188-12.046-5.525-16.492-10-4.392-4.484-7.654-10.159-9.838-16.963-2.146-6.846-3.237-14.858-3.237-24.037 0-8.717 1.129-16.621 3.425-23.617 2.254-7.025 5.558-12.967 9.887-17.863 4.363-4.883 9.63-8.604 15.83-11.166 6.208-2.596 13.2-3.871 20.979-3.871 8.246 0 15.275 1.204 21.104 3.646 5.825 2.408 10.642 5.791 14.37 10.079 3.759 4.292 6.5 9.367 8.267 15.275 1.767 5.862 2.63 12.25 2.63 19.137zm-26.888-7.934c.238-7.779-1.312-13.916-4.646-18.354-3.362-4.433-8.504-6.658-15.504-6.658-3.542 0-6.575.646-9.18 1.958a18.944 18.944 0 00-6.512 5.342c-1.733 2.254-3.041 4.892-3.979 7.937-.904 3.046-1.433 6.317-1.587 9.775z" fill="#939598" fill-rule="nonzero"/><path d="M.333.363C.279.318.251.154.252-.028c.002-.213.045-.443.124-.456.112-.02.298.088.421.198.104.092.168.19.138.244C.893.036.761.149.632.236a1.478 1.478 0 01-.095.06C.442.351.359.384.333.363zM.42.234C.441.255.53.213.617.154a.676.676 0 00.202-.186C.838-.068.79-.13.719-.184.64-.246.53-.299.465-.284.424-.276.397-.19.387-.072c.054.018.115.059.106.08C.482.035.427.077.383.101.386.149.39.204.42.234z" fill="url(#_Linear1)" fill-rule="nonzero" transform="matrix(345.0861 -205.83975 -212.07309 -355.53653 -36.068 215.775)"/><path d="M402.233 403.297c0 1.758-.325 3.337-.975 4.713a9.608 9.608 0 01-2.775 3.483c-1.2.942-2.633 1.658-4.291 2.137-1.659.492-3.488.734-5.475.734-1.23 0-2.396-.096-3.5-.284-1.117-.195-2.113-.433-2.988-.733-.883-.292-1.633-.592-2.246-.92-.608-.31-1.054-.6-1.337-.855-.28-.25-.483-.617-.613-1.07-.125-.467-.191-1.076-.191-1.884 0-.488.025-.888.079-1.23a3.78 3.78 0 01.192-.795c.075-.213.183-.359.32-.438a.866.866 0 01.48-.133c.283 0 .695.17 1.25.504.545.35 1.22.733 2.02 1.142.809.404 1.759.779 2.859 1.12 1.096.35 2.358.53 3.791.53 1.071 0 2.038-.121 2.909-.35.866-.233 1.62-.567 2.258-1.017a4.499 4.499 0 001.475-1.7c.342-.7.517-1.504.517-2.45 0-.975-.25-1.792-.746-2.45-.5-.667-1.158-1.254-1.97-1.767a17.223 17.223 0 00-2.763-1.358 213.39 213.39 0 01-3.155-1.254 26.06 26.06 0 01-3.179-1.47 11.898 11.898 0 01-2.775-2 9.235 9.235 0 01-1.975-2.843c-.496-1.091-.741-2.404-.741-3.937a9.82 9.82 0 01.783-3.888 8.985 8.985 0 012.354-3.258c1.046-.929 2.354-1.679 3.925-2.233 1.567-.567 3.4-.846 5.496-.846.92 0 1.837.07 2.754.233.925.146 1.75.338 2.492.567.737.237 1.37.48 1.896.746.52.279.916.512 1.183.712.27.209.45.384.537.546.088.146.155.317.192.508.038.188.075.425.113.717.041.271.058.617.058 1.03 0 .424-.017.803-.058 1.124-.038.317-.1.584-.188.788-.092.208-.2.354-.329.437a.702.702 0 01-.42.134c-.23 0-.56-.138-.993-.425-.437-.275-1-.575-1.687-.896a19.4 19.4 0 00-2.433-.896c-.93-.28-1.996-.425-3.196-.425-1.075 0-2.017.117-2.83.37-.82.238-1.487.576-2.016 1.034-.52.442-.92.975-1.183 1.583a4.858 4.858 0 00-.405 1.988c0 1 .255 1.837.767 2.512.508.68 1.175 1.267 1.988 1.775.816.509 1.75.98 2.8 1.388 1.045.408 2.108.833 3.195 1.254 1.088.442 2.155.921 3.217 1.458a12.162 12.162 0 012.817 1.955 8.77 8.77 0 011.966 2.758c.5 1.075.75 2.346.75 3.825m34.542-7.804a25.72 25.72 0 00-.525-5.284c-.346-1.662-.92-3.125-1.72-4.37-.797-1.246-1.884-2.238-3.247-2.967-1.366-.73-3.066-1.096-5.1-1.096-1.879 0-3.495.342-4.85 1a8.86 8.86 0 00-3.341 2.817c-.875 1.212-1.525 2.646-1.95 4.308-.425 1.654-.638 3.471-.638 5.43 0 1.895.175 3.67.525 5.32.346 1.663.925 3.117 1.734 4.346.812 1.237 1.904 2.22 3.266 2.954 1.367.725 3.067 1.092 5.1 1.092 1.859 0 3.463-.325 4.83-.992 1.366-.667 2.487-1.587 3.362-2.8.875-1.204 1.52-2.629 1.933-4.292.409-1.65.621-3.479.621-5.466m6.542-.434c0 2.817-.371 5.405-1.109 7.767-.741 2.358-1.841 4.392-3.312 6.096-1.467 1.725-3.304 3.05-5.513 4.013-2.208.95-4.766 1.429-7.679 1.429-2.833 0-5.3-.421-7.408-1.259-2.104-.841-3.863-2.07-5.263-3.679-1.408-1.612-2.45-3.567-3.145-5.862-.684-2.292-1.03-4.896-1.03-7.813 0-2.8.363-5.383 1.092-7.746.725-2.362 1.825-4.396 3.292-6.112 1.47-1.7 3.3-3.034 5.496-3.98 2.195-.941 4.758-1.416 7.695-1.416 2.834 0 5.305.42 7.409 1.27 2.108.83 3.862 2.055 5.266 3.676 1.405 1.604 2.459 3.558 3.155 5.85.704 2.3 1.054 4.891 1.054 7.766m17.308-12.587v30.213a.86.86 0 01-.154.516c-.104.146-.27.259-.517.354-.241.109-.566.18-.975.238-.408.05-.916.075-1.529.075-.612 0-1.129-.025-1.533-.075-.413-.058-.738-.13-.975-.238-.246-.095-.417-.208-.521-.354a.89.89 0 01-.154-.516v-30.213h-4.863c-.408 0-.716-.208-.92-.613-.2-.412-.305-1.075-.305-1.995 0-.48.03-.888.08-1.221.045-.342.125-.609.225-.825.104-.217.237-.375.391-.463.15-.087.325-.129.53-.129h4.862v-3.558c0-2.404.225-4.467.675-6.188.446-1.72 1.12-3.137 2.029-4.225.904-1.108 2.054-1.912 3.442-2.441 1.396-.521 3.029-.788 4.92-.788.946 0 1.863.104 2.759.296.892.187 1.529.362 1.917.537.379.159.65.325.8.475.154.15.275.35.366.588.088.25.154.542.192.88.037.345.058.77.058 1.253 0 .48-.02.871-.058 1.163a2.595 2.595 0 01-.175.708c-.075.183-.167.304-.267.367a.65.65 0 01-.341.096c-.209 0-.438-.063-.692-.18-.254-.116-.58-.237-.954-.375a8.766 8.766 0 00-1.363-.379 8.422 8.422 0 00-1.816-.175c-.946 0-1.746.146-2.396.446-.654.308-1.18.796-1.588 1.45-.408.646-.708 1.488-.9 2.525-.191 1.033-.287 2.283-.287 3.775v3.75h15.55v-8.204c0-.175.046-.338.15-.496.096-.15.266-.287.496-.396.229-.12.545-.196.954-.258.408-.042.937-.07 1.575-.07.608 0 1.12.028 1.529.07.408.062.725.137.962.258.225.109.392.246.492.396a.88.88 0 01.154.496v8.204h8.809c.2 0 .387.042.554.13.166.087.3.245.404.462.096.216.183.483.25.825.067.333.096.741.096 1.22 0 .921-.121 1.584-.346 1.996-.233.405-.538.613-.921.613h-8.846v19.212c0 2.384.346 4.175 1.034 5.388.687 1.204 1.954 1.82 3.791 1.82.563 0 1.08-.053 1.55-.178.471-.113.884-.225 1.246-.359.354-.137.67-.25.938-.37.266-.117.491-.171.67-.171a.7.7 0 01.384.104c.1.058.183.179.25.358.058.18.112.421.175.734.046.308.075.683.075 1.137 0 .742-.063 1.333-.175 1.767-.117.429-.275.758-.475.958-.209.204-.5.392-.888.57a6.5 6.5 0 01-1.358.443 23.01 23.01 0 01-1.683.291c-.6.067-1.184.113-1.742.113-1.817 0-3.358-.234-4.633-.717-1.275-.462-2.321-1.18-3.138-2.146-.82-.946-1.412-2.166-1.783-3.629-.371-1.475-.55-3.192-.55-5.192v-20.133zm88.488-4.329c0 .179-.021.396-.075.65-.05.254-.146.575-.259.958l-10.154 32.742c-.07.283-.196.504-.362.692-.163.17-.396.316-.688.42-.291.092-.7.163-1.212.205-.509.041-1.15.058-1.913.058a22.22 22.22 0 01-1.996-.075c-.525-.058-.962-.13-1.275-.233-.32-.1-.558-.238-.708-.425a1.676 1.676 0 01-.35-.642l-7.233-25.013-.075-.337-.075.337-6.704 25.013a1.556 1.556 0 01-.367.692c-.163.17-.408.316-.746.42a7.08 7.08 0 01-1.283.205c-.525.041-1.167.058-1.925.058-.8 0-1.446-.025-1.938-.075-.5-.058-.904-.13-1.229-.233-.32-.1-.554-.238-.708-.425a1.72 1.72 0 01-.342-.642l-10.07-32.742a8.825 8.825 0 01-.272-.958 3.453 3.453 0 01-.075-.65c0-.234.046-.417.146-.554.104-.146.28-.263.53-.35.237-.088.566-.146.979-.175.404-.013.9-.034 1.483-.034.717 0 1.292.021 1.72.063.442.029.776.1 1 .191.23.088.397.217.505.375.096.171.187.371.262.6l8.317 28.413.07.333.076-.333 7.62-28.413c.05-.229.138-.429.247-.6.116-.158.283-.287.52-.375.23-.091.538-.162.93-.191.404-.042.92-.063 1.562-.063.613 0 1.108.021 1.5.063.404.029.717.1.95.191.22.088.396.205.5.363.1.146.17.33.22.533l8.234 28.492.075.333.046-.333 8.192-28.413c.05-.229.137-.429.246-.6a1.13 1.13 0 01.533-.375 3.664 3.664 0 011-.191c.42-.042.962-.063 1.625-.063.612 0 1.108.021 1.47.034.376.029.676.1.884.195.22.105.37.221.458.342.088.133.134.308.134.542m26.658 18.829h-5.404c-1.733 0-3.242.154-4.517.446-1.275.304-2.333.725-3.179 1.312-.837.563-1.458 1.254-1.858 2.059-.396.812-.592 1.733-.592 2.775 0 1.791.57 3.216 1.704 4.27 1.134 1.059 2.725 1.588 4.767 1.588 1.662 0 3.2-.412 4.617-1.258 1.42-.85 2.9-2.134 4.462-3.867zm6.28 15.746c0 .304-.105.537-.305.692-.208.145-.496.27-.85.341-.354.075-.87.117-1.567.117-.662 0-1.187-.042-1.587-.117-.396-.07-.68-.196-.863-.341-.183-.155-.27-.388-.27-.692v-3.442c-1.505 1.604-3.18 2.859-5.034 3.746a13.352 13.352 0 01-5.875 1.342c-1.812 0-3.458-.23-4.916-.709-1.475-.47-2.73-1.145-3.759-2.05-1.033-.887-1.837-1.987-2.412-3.295-.567-1.305-.863-2.767-.863-4.438 0-1.938.396-3.62 1.188-5.063.787-1.412 1.929-2.604 3.408-3.554 1.48-.941 3.296-1.65 5.442-2.125 2.146-.475 4.55-.708 7.233-.708h4.75v-2.683c0-1.325-.137-2.492-.425-3.517-.28-1.02-.733-1.875-1.362-2.55-.621-.675-1.43-1.183-2.43-1.53-.991-.345-2.212-.512-3.675-.512-1.554 0-2.954.18-4.191.554-1.242.367-2.321.771-3.254 1.225-.934.442-1.709.855-2.338 1.23-.625.358-1.087.545-1.396.545a.842.842 0 01-.533-.158c-.154-.092-.283-.242-.4-.45a2.037 2.037 0 01-.25-.792 5.863 5.863 0 01-.08-1.045c0-.642.042-1.146.138-1.517.088-.367.309-.717.642-1.054.35-.334.942-.721 1.787-1.163a18.62 18.62 0 012.909-1.229c1.096-.37 2.3-.679 3.596-.92a21.622 21.622 0 013.945-.363c2.48 0 4.584.283 6.317.85 1.738.55 3.146 1.383 4.213 2.462 1.07 1.092 1.854 2.438 2.337 4.042.48 1.604.73 3.487.73 5.633zm31.741-32.242c0 .563-.017 1.038-.046 1.417-.025.383-.07.687-.146.908-.079.217-.175.38-.291.492a.657.657 0 01-.48.175c-.204 0-.45-.059-.741-.175a18.92 18.92 0 00-.992-.346 16.7 16.7 0 00-1.25-.32 6.544 6.544 0 00-1.496-.155c-.641 0-1.258.125-1.879.387-.608.246-1.262.667-1.929 1.255-.68.595-1.383 1.366-2.13 2.341a55.49 55.49 0 00-2.45 3.563v22.67a.835.835 0 01-.145.513c-.104.146-.27.263-.508.359-.221.104-.542.179-.95.237-.409.046-.938.07-1.571.07-.613 0-1.13-.024-1.53-.07-.416-.058-.737-.133-.979-.237-.237-.096-.404-.213-.504-.359a.995.995 0 01-.129-.512v-34.471c0-.204.046-.38.117-.509.075-.145.233-.275.462-.387.221-.117.517-.2.88-.23a14.1 14.1 0 011.412-.058c.562 0 1.033.021 1.4.059.367.029.662.112.862.229.205.112.35.242.442.387.083.13.13.305.13.509v5.016c.95-1.375 1.841-2.5 2.67-3.366.821-.871 1.604-1.546 2.346-2.05.746-.496 1.475-.842 2.204-1.03.73-.2 1.454-.291 2.204-.291a12.06 12.06 0 012.45.262c.459.113.875.217 1.238.35.379.134.633.255.787.38.154.129.259.25.309.366.05.113.1.263.133.438.037.187.07.446.075.783.02.354.025.821.025 1.4m29.217 11.6c.075-3.312-.667-5.917-2.221-7.804-1.554-1.888-3.859-2.83-6.917-2.83-1.562 0-2.937.292-4.129.872a9.066 9.066 0 00-2.963 2.337c-.795.975-1.404 2.1-1.845 3.392a14.031 14.031 0 00-.734 4.033zm6.345 1.88c0 1-.241 1.708-.745 2.128a2.586 2.586 0 01-1.709.63h-22.7c0 1.912.196 3.637.58 5.166.391 1.53 1.024 2.85 1.929 3.954.895 1.092 2.058 1.938 3.5 2.526 1.429.575 3.187.87 5.27.87 1.638 0 3.105-.133 4.38-.391 1.287-.271 2.391-.571 3.337-.913a27.506 27.506 0 002.304-.896c.6-.266 1.059-.396 1.375-.396.171 0 .334.038.471.13a.85.85 0 01.325.408c.075.18.13.42.18.746.033.317.058.7.058 1.167 0 .341-.017.608-.042.862-.025.233-.067.454-.088.65a2.05 2.05 0 01-.195.513c-.092.154-.213.3-.342.437-.15.146-.563.375-1.254.692-.684.32-1.58.637-2.68.946a36.53 36.53 0 01-3.808.812 27.485 27.485 0 01-4.612.367c-2.842 0-5.317-.392-7.446-1.18-2.133-.795-3.925-1.97-5.38-3.533-1.466-1.554-2.558-3.5-3.295-5.85-.742-2.346-1.117-5.079-1.117-8.196 0-2.958.392-5.625 1.154-7.987.767-2.354 1.867-4.367 3.313-6.009a14.462 14.462 0 015.225-3.791c2.037-.884 4.33-1.321 6.854-1.321 2.708 0 5.013.437 6.917 1.296 1.896.875 3.458 2.041 4.687 3.508 1.221 1.471 2.125 3.192 2.7 5.171.571 1.98.854 4.087.854 6.333zm50.517-5.513c-1.716-2.113-3.379-3.734-4.962-4.842-1.596-1.112-3.267-1.662-5.009-1.662-1.6 0-2.966.375-4.083 1.141-1.137.767-2.042 1.775-2.742 3.025-.708 1.259-1.212 2.671-1.529 4.25a24.308 24.308 0 00-.483 4.83c0 1.733.133 3.433.4 5.083.275 1.67.742 3.141 1.392 4.429.675 1.292 1.554 2.325 2.654 3.1 1.087.775 2.47 1.17 4.133 1.17a8.5 8.5 0 002.425-.35c.78-.216 1.58-.607 2.392-1.137.82-.537 1.679-1.246 2.57-2.1.896-.846 1.842-1.896 2.842-3.15zm6.346 24.246c0 .204-.037.383-.137.529-.088.154-.234.267-.455.358-.212.096-.504.163-.854.217-.366.05-.8.075-1.312.075-.53 0-.984-.025-1.342-.075a4.042 4.042 0 01-.88-.217c-.228-.091-.39-.204-.495-.358a.954.954 0 01-.154-.53v-4.566c-1.817 1.97-3.696 3.5-5.642 4.6-1.958 1.096-4.091 1.642-6.412 1.642-2.53 0-4.688-.488-6.475-1.471-1.792-.98-3.242-2.304-4.346-3.988-1.117-1.67-1.921-3.629-2.433-5.883a32.885 32.885 0 01-.767-7.154c0-2.963.325-5.634.962-8.025.634-2.375 1.575-4.417 2.83-6.096 1.254-1.692 2.8-2.992 4.654-3.892 1.858-.908 3.979-1.358 6.412-1.358 2.021 0 3.859.437 5.538 1.32 1.666.88 3.325 2.18 4.962 3.888v-20.029c0-.17.042-.354.121-.512.1-.175.27-.296.52-.388a5.34 5.34 0 01.972-.225c.404-.07.908-.1 1.52-.1.642 0 1.155.03 1.571.1.409.058.725.133.95.225.238.092.409.213.53.388a.92.92 0 01.162.512zm34.733-20.613c.075-3.312-.666-5.917-2.22-7.804-1.546-1.888-3.859-2.83-6.909-2.83-1.57 0-2.937.292-4.12.872a9.013 9.013 0 00-2.971 2.337c-.796.975-1.413 2.1-1.846 3.392a14.031 14.031 0 00-.734 4.033zm6.346 1.88c0 1-.241 1.708-.737 2.128a2.623 2.623 0 01-1.717.63H722.15c0 1.912.188 3.637.571 5.166.392 1.53 1.034 2.85 1.93 3.954.895 1.092 2.066 1.938 3.5 2.526 1.429.575 3.195.87 5.262.87 1.646 0 3.112-.133 4.396-.391 1.279-.271 2.383-.571 3.32-.913a27.837 27.837 0 002.313-.896c.608-.266 1.067-.396 1.367-.396.179 0 .341.038.479.13.146.087.246.229.325.408.083.18.146.42.18.746.032.317.057.7.057 1.167 0 .341-.008.608-.033.862-.033.233-.058.454-.104.65a1.74 1.74 0 01-.188.513 1.96 1.96 0 01-.35.437c-.133.146-.545.375-1.245.692-.684.32-1.58.637-2.68.946a36.53 36.53 0 01-3.808.812c-1.446.246-2.98.367-4.612.367-2.834 0-5.317-.392-7.446-1.18-2.134-.795-3.934-1.97-5.38-3.533-1.458-1.554-2.558-3.5-3.287-5.85-.75-2.346-1.117-5.079-1.117-8.196 0-2.958.384-5.625 1.146-7.987.767-2.354 1.867-4.367 3.313-6.009a14.492 14.492 0 015.233-3.791c2.033-.884 4.32-1.321 6.846-1.321 2.708 0 5.012.437 6.917 1.296 1.904.875 3.466 2.041 4.687 3.508 1.22 1.471 2.133 3.192 2.7 5.171.57 1.98.854 4.087.854 6.333zm37.496-15.813c0 .1 0 .208-.017.325-.016.108-.033.241-.058.362-.03.13-.054.267-.104.425a3.86 3.86 0 01-.13.496l-11.758 32.742c-.1.283-.229.504-.391.692-.171.17-.425.316-.75.42a6.94 6.94 0 01-1.263.205c-.512.041-1.154.058-1.912.058-.771 0-1.413-.025-1.93-.075-.504-.058-.908-.13-1.233-.233-.32-.1-.57-.238-.741-.425a1.714 1.714 0 01-.425-.642l-11.71-32.743a9.405 9.405 0 01-.254-.804c-.07-.233-.104-.4-.12-.52a3.297 3.297 0 01-.017-.284c0-.204.05-.38.154-.542.1-.142.279-.275.512-.362.246-.088.563-.146.963-.175.387-.013.887-.034 1.47-.034.742 0 1.334.021 1.776.063.454.029.795.1 1.041.204.246.104.417.237.538.383.112.159.22.35.316.58l9.734 28.412.146.458.112-.458 9.613-28.413a1.52 1.52 0 01.27-.579c.13-.146.317-.279.559-.383.237-.104.579-.175 1.004-.204a17.31 17.31 0 011.658-.063c.588 0 1.075.021 1.459.034.379.029.675.1.891.195.221.105.375.23.467.367.087.138.13.313.13.517m29.45 13.934c.075-3.312-.667-5.917-2.22-7.804-1.555-1.888-3.859-2.83-6.909-2.83-1.57 0-2.946.292-4.138.872a9.154 9.154 0 00-2.962 2.337c-.796.975-1.404 2.1-1.846 3.392a14.32 14.32 0 00-.733 4.033zm6.354 1.88c0 1-.25 1.708-.754 2.128a2.586 2.586 0 01-1.708.63h-22.7c0 1.912.196 3.637.579 5.166.392 1.53 1.033 2.85 1.93 3.954.895 1.092 2.057 1.938 3.5 2.526 1.428.575 3.195.87 5.27.87 1.646 0 3.104-.133 4.387-.391 1.28-.271 2.384-.571 3.33-.913a27.506 27.506 0 002.304-.896c.6-.266 1.058-.396 1.375-.396.17 0 .333.038.47.13a.804.804 0 01.326.408c.083.18.129.42.179.746.033.317.058.7.058 1.167 0 .341-.017.608-.05.862-.017.233-.058.454-.079.65a1.749 1.749 0 01-.196.513c-.092.154-.204.3-.342.437-.15.146-.554.375-1.254.692-.683.32-1.579.637-2.67.946-1.105.3-2.376.579-3.817.812a27.485 27.485 0 01-4.613.367c-2.833 0-5.316-.392-7.446-1.18-2.125-.795-3.925-1.97-5.379-3.533-1.458-1.554-2.558-3.5-3.296-5.85-.741-2.346-1.108-5.079-1.108-8.196 0-2.958.383-5.625 1.154-7.987.759-2.354 1.859-4.367 3.304-6.009a14.533 14.533 0 015.225-3.791c2.042-.884 4.33-1.321 6.855-1.321 2.708 0 5.012.437 6.916 1.296 1.896.875 3.459 2.041 4.688 3.508 1.229 1.471 2.125 3.192 2.7 5.171.57 1.98.862 4.087.862 6.333zm15.929 18.733a.898.898 0 01-.154.512c-.1.146-.262.263-.496.359-.237.104-.554.179-.962.237-.404.046-.933.07-1.563.07-.616 0-1.129-.024-1.529-.07-.42-.058-.75-.133-.983-.237-.246-.096-.4-.213-.496-.359a.925.925 0 01-.142-.512V361.53c0-.208.05-.396.142-.541.096-.159.25-.275.496-.38.233-.1.562-.179.983-.233.4-.046.913-.07 1.53-.07.629 0 1.158.024 1.562.07.408.054.725.133.962.233.234.105.396.221.496.38a.986.986 0 01.154.541zm37.184-17.196c0-1.871-.18-3.634-.53-5.284-.341-1.662-.92-3.125-1.708-4.37-.804-1.246-1.887-2.238-3.254-2.967-1.366-.73-3.062-1.096-5.104-1.096-1.87 0-3.492.342-4.85 1a8.88 8.88 0 00-3.338 2.817c-.879 1.212-1.529 2.646-1.954 4.308-.429 1.654-.633 3.471-.633 5.43 0 1.895.17 3.67.52 5.32.35 1.663.93 3.117 1.742 4.346.805 1.237 1.905 2.22 3.255 2.954 1.375.725 3.07 1.092 5.112 1.092 1.846 0 3.459-.325 4.825-.992 1.367-.667 2.492-1.587 3.363-2.8.879-1.204 1.52-2.629 1.929-4.292.412-1.65.625-3.479.625-5.466m6.542-.434c0 2.817-.375 5.405-1.113 7.767-.742 2.358-1.842 4.392-3.304 6.096-1.475 1.725-3.313 3.05-5.517 4.013-2.2.95-4.77 1.429-7.675 1.429-2.842 0-5.308-.421-7.408-1.259-2.104-.841-3.863-2.07-5.271-3.679-1.4-1.612-2.45-3.567-3.142-5.862-.683-2.292-1.025-4.896-1.025-7.813 0-2.8.367-5.383 1.084-7.746.729-2.362 1.829-4.396 3.287-6.112 1.48-1.7 3.313-3.034 5.5-3.98 2.196-.941 4.758-1.416 7.7-1.416 2.83 0 5.296.42 7.404 1.27 2.109.83 3.859 2.055 5.275 3.676 1.396 1.604 2.455 3.558 3.146 5.85.709 2.3 1.059 4.891 1.059 7.766m34.462.58c0-1.75-.137-3.463-.408-5.113-.275-1.646-.73-3.1-1.384-4.379-.658-1.275-1.537-2.3-2.641-3.067-1.109-.766-2.484-1.141-4.121-1.141a8.24 8.24 0 00-2.433.362c-.788.233-1.6.621-2.417 1.15-.83.517-1.692 1.204-2.588 2.058-.895.863-1.845 1.917-2.854 3.171v13.696c1.746 2.125 3.4 3.746 4.971 4.867 1.563 1.125 3.213 1.679 4.933 1.679 1.592 0 2.959-.375 4.1-1.142 1.146-.77 2.075-1.791 2.784-3.058.708-1.28 1.22-2.713 1.554-4.292.325-1.583.504-3.179.504-4.791m6.542-.725c0 3.012-.325 5.72-.967 8.112-.658 2.413-1.612 4.438-2.883 6.113a12.747 12.747 0 01-4.688 3.866c-1.862.905-4 1.359-6.396 1.359-1.016 0-1.966-.104-2.829-.309a10.89 10.89 0 01-2.55-.954 14.63 14.63 0 01-2.462-1.641 37.319 37.319 0 01-2.613-2.346v17.237a.886.886 0 01-.15.538c-.096.154-.266.283-.496.383-.225.104-.554.18-.958.225-.408.05-.937.083-1.562.083-.621 0-1.134-.033-1.538-.083-.417-.046-.733-.12-.98-.225-.232-.1-.403-.23-.503-.383a1.048 1.048 0 01-.13-.538v-48.133c0-.238.042-.413.121-.559.067-.133.23-.254.459-.362.225-.1.52-.175.879-.204.354-.038.787-.059 1.3-.059.537 0 .975.021 1.325.059.333.029.629.104.862.204.23.108.392.23.475.362.096.146.138.321.138.559v4.641a34.805 34.805 0 013.02-2.804 19.06 19.06 0 012.93-1.966 13.884 13.884 0 013.025-1.192 13.07 13.07 0 013.279-.4c2.492 0 4.625.48 6.392 1.454a12.003 12.003 0 014.304 3.988c1.112 1.675 1.92 3.633 2.433 5.879.504 2.229.763 4.591.763 7.096m60.616 17.775a.84.84 0 01-.154.512c-.1.146-.27.263-.496.359-.229.104-.545.179-.954.237-.404.046-.916.07-1.529.07-.642 0-1.17-.024-1.58-.07-.407-.058-.724-.133-.974-.237-.238-.096-.408-.213-.513-.359a.868.868 0 01-.154-.512v-20.95c0-1.455-.125-2.788-.383-3.98-.254-1.204-.658-2.229-1.22-3.108-.563-.862-1.28-1.529-2.15-1.987-.872-.467-1.888-.696-3.06-.696-1.458 0-2.92.566-4.387 1.696-1.462 1.12-3.083 2.766-4.841 4.933v24.092a.84.84 0 01-.155.512c-.1.146-.279.263-.52.359-.238.104-.563.179-.975.237-.4.046-.921.07-1.534.07-.583 0-1.079-.024-1.504-.07-.425-.058-.758-.133-1-.237-.237-.096-.408-.213-.496-.359a.862.862 0 01-.141-.512v-20.95c0-1.455-.138-2.788-.413-3.98-.287-1.204-.708-2.229-1.262-3.108-.571-.862-1.271-1.529-2.134-1.987-.854-.467-1.862-.696-3.033-.696-1.458 0-2.93.566-4.413 1.696-1.479 1.12-3.083 2.766-4.816 4.933v24.092a.903.903 0 01-.163.512c-.1.146-.262.263-.496.359-.22.104-.545.179-.954.237-.412.046-.933.07-1.57.07a14.07 14.07 0 01-1.53-.07c-.408-.058-.741-.133-.975-.237-.254-.096-.408-.213-.496-.359a.925.925 0 01-.141-.512v-34.471c0-.204.033-.38.116-.509.08-.145.225-.275.463-.387.237-.117.52-.2.88-.225.357-.042.82-.063 1.416-.063.562 0 1.025.021 1.391.063.384.025.659.108.871.225.196.112.35.242.43.387.1.13.15.305.15.509v4.558c1.933-2.167 3.816-3.758 5.637-4.762 1.825-1.013 3.67-1.517 5.533-1.517 1.425 0 2.713.17 3.842.496 1.146.333 2.142.8 3.012 1.4a9.14 9.14 0 012.221 2.146 12.644 12.644 0 011.538 2.77 35.804 35.804 0 013.27-3.179c1.034-.858 2.03-1.562 2.988-2.1.95-.541 1.88-.933 2.792-1.17a10.4 10.4 0 012.741-.363c2.213 0 4.088.392 5.584 1.162 1.504.788 2.725 1.83 3.662 3.125.934 1.305 1.596 2.83 1.984 4.584.4 1.741.595 3.583.595 5.529zm34.584-20.613c.066-3.312-.667-5.917-2.221-7.804-1.554-1.888-3.858-2.83-6.917-2.83-1.562 0-2.937.292-4.12.872a9.099 9.099 0 00-2.971 2.337 10.83 10.83 0 00-1.846 3.392 14.031 14.031 0 00-.734 4.033zm6.346 1.88c0 1-.25 1.708-.738 2.128a2.645 2.645 0 01-1.725.63h-22.692c0 1.912.196 3.637.58 5.166.383 1.53 1.025 2.85 1.92 3.954.896 1.092 2.067 1.938 3.509 2.526 1.429.575 3.187.87 5.254.87 1.654 0 3.112-.133 4.396-.391 1.287-.271 2.391-.571 3.329-.913.937-.325 1.7-.625 2.312-.896.6-.266 1.059-.396 1.367-.396.18 0 .333.038.48.13.145.087.245.229.324.408.084.18.138.42.171.746.042.317.067.7.067 1.167 0 .341-.017.608-.042.862a5.447 5.447 0 01-.104.65c-.033.196-.1.358-.188.513a1.94 1.94 0 01-.341.437c-.142.146-.554.375-1.246.692-.683.32-1.588.637-2.68.946a36.27 36.27 0 01-3.816.812c-1.437.246-2.97.367-4.604.367-2.842 0-5.325-.392-7.454-1.18-2.134-.795-3.925-1.97-5.38-3.533-1.45-1.554-2.55-3.5-3.287-5.85-.742-2.346-1.117-5.079-1.117-8.196 0-2.958.384-5.625 1.146-7.987.775-2.354 1.875-4.367 3.313-6.009a14.492 14.492 0 015.233-3.791c2.042-.884 4.32-1.321 6.846-1.321 2.708 0 5.012.437 6.917 1.296 1.904.875 3.466 2.041 4.695 3.508 1.221 1.471 2.125 3.192 2.692 5.171.58 1.98.863 4.087.863 6.333zm39.291 18.733a.898.898 0 01-.154.512c-.104.146-.27.263-.496.359-.237.104-.554.179-.97.237-.396.046-.917.07-1.521.07-.642 0-1.163-.024-1.571-.07-.409-.058-.725-.133-.95-.237-.238-.096-.4-.213-.504-.359a.866.866 0 01-.15-.512V392.5c0-1.962-.155-3.55-.463-4.742-.3-1.204-.758-2.229-1.342-3.108a5.802 5.802 0 00-2.279-1.987c-.929-.467-2.004-.696-3.229-.696-1.587 0-3.167.566-4.754 1.696-1.58 1.12-3.238 2.766-4.98 4.933v24.092a.811.811 0 01-.15.512c-.095.146-.266.263-.503.359-.225.104-.546.179-.95.237-.409.046-.938.07-1.571.07a13.96 13.96 0 01-1.53-.07c-.416-.058-.741-.133-.979-.237-.241-.096-.404-.213-.504-.359a.956.956 0 01-.129-.512v-34.471c0-.204.042-.38.113-.509.075-.145.237-.275.466-.387.225-.117.521-.2.88-.225.35-.042.829-.063 1.412-.063.562 0 1.033.021 1.4.063.367.025.662.108.862.225.205.112.35.242.442.387.088.13.13.305.13.509v4.558c1.937-2.167 3.883-3.758 5.803-4.762 1.93-1.013 3.871-1.517 5.834-1.517 2.312 0 4.233.392 5.812 1.162 1.571.788 2.83 1.83 3.8 3.125.975 1.305 1.667 2.83 2.092 4.584.42 1.741.633 3.841.633 6.296zm28.713-2.542c0 .742-.05 1.333-.154 1.767-.1.429-.254.754-.454.958-.205.204-.517.392-.921.57a7.32 7.32 0 01-1.4.438 21.33 21.33 0 01-1.671.296c-.575.063-1.171.113-1.754.113-1.784 0-3.313-.238-4.592-.717-1.28-.462-2.33-1.18-3.142-2.146-.82-.946-1.408-2.166-1.783-3.629-.362-1.475-.55-3.192-.55-5.196v-20.129h-4.838c-.37 0-.683-.208-.916-.617-.221-.408-.334-1.07-.334-1.991 0-.48.03-.888.088-1.221a3.57 3.57 0 01.246-.825c.104-.217.241-.375.412-.463.163-.087.35-.129.554-.129h4.788v-8.204a.96.96 0 01.13-.496c.087-.15.258-.287.495-.396.246-.12.57-.196.975-.258.408-.042.92-.07 1.533-.07.642 0 1.163.028 1.575.07.409.062.725.137.955.258.229.109.4.246.495.396a.88.88 0 01.155.496v8.204h8.845c.205 0 .392.042.538.13.154.087.292.245.4.462.12.212.196.483.25.825.042.333.075.741.075 1.22 0 .921-.113 1.584-.342 1.992-.229.409-.529.617-.92.617h-8.846v19.212c0 2.384.35 4.175 1.05 5.388.708 1.204 1.962 1.82 3.775 1.82.587 0 1.116-.053 1.57-.178a10.66 10.66 0 001.221-.359c.367-.137.671-.25.921-.375.263-.112.496-.17.7-.17.12 0 .246.041.358.108.113.058.205.179.267.358.067.18.117.421.17.734a8.4 8.4 0 01.076 1.137" fill="#939598" fill-rule="nonzero"/><defs id="defs121"><linearGradient id="_Linear1" x1="0" y1="0" x2="1" y2="0" gradientUnits="userSpaceOnUse" gradientTransform="matrix(1 0 0 -1 0 -.12)"><stop offset="0" id="stop114" stop-color="#00a650" stop-opacity="1"/><stop offset=".11" id="stop116" stop-color="#4eb848" stop-opacity="1"/><stop offset="1" id="stop118" stop-color="#a6ce38" stop-opacity="1"/></linearGradient></defs></svg>