<svg width="354.323" height="84.814" xmlns="http://www.w3.org/2000/svg"><path d="M152.986 40.522l-.75-.019-.737-.056-.725-.093-.713-.127-.7-.162-.7-.196-.675-.228-.65-.261-.65-.292-.625-.32-.612-.351-.588-.377-.562-.407-.55-.43-.538-.458-.5-.481-.487-.505-.45-.528-.438-.55-.4-.57-.375-.59-.35-.609-.325-.627-.287-.645-.263-.66-.225-.676-.2-.69-.162-.704-.125-.717-.1-.728-.05-.739-.025-.748c0-8.023 6.512-14.532 14.537-14.532 8.038 0 14.538 6.51 14.538 14.532 0 8.036-6.5 14.544-14.538 14.544z" fill="none"/><path d="M165.748 0c-42.01 0-76.06 18.985-76.06 42.402 0 13.268 10.921 25.102 28.021 32.875-8.081-5.487-13.403-12.973-14.584-21.859-2.685-20.186 16.83-40.82 45.148-49.615-14.687 6.665-24.923 21.427-24.923 38.6 0 23.217 18.648 42.045 41.773 42.382-.037.005-.087.015-.137.02.263 0 .512.01.762.01 42.013 0 76.076-18.985 76.076-42.413 0-13.26-10.937-25.097-28.037-32.87l.75.52.736.532.713.543.7.555.687.566.664.578.649.588.625.6.613.61.588.62.574.631.562.643.538.652.513.662.5.672.475.684.45.693.437.703.425.713.387.723.375.73.352.74.336.75.3.76.287.77.264.777.25.787.211.795.188.805.175.812.15.82.126.83c2.675 20.19-16.838 40.826-45.15 49.62 14.687-6.665 24.925-21.426 24.925-38.614 0-23.202-18.65-42.026-41.775-42.367.05-.005.1-.015.15-.025-.262 0-.526-.01-.789-.01zM152.5 11.314a14.25 14.25 0 0114.25 14.25 14.25 14.25 0 01-14.25 14.25 14.25 14.25 0 01-14.25-14.25 14.25 14.25 0 0114.25-14.25z" fill="#004170"/><path d="M213.786 9.531l.75.521.738.532.712.544.7.555.688.566.662.577.65.588.625.6.613.61.587.62.575.631.563.643.537.652.513.663.5.672.475.683.45.693.437.702.425.713.388.723.375.731.35.741.337.75.3.76.288.77.262.776.25.786.213.797.187.804.175.812.15.821.125.83c2.675 20.19-16.837 40.825-45.15 49.619 14.688-6.665 24.925-21.426 24.925-38.614 0-23.202-18.65-42.026-41.775-42.367.05-.005.1-.015.15-.025-.262 0-.525-.01-.787-.01-42.01 0-76.062 18.985-76.062 42.402 0 13.267 10.922 25.102 28.022 32.876-8.081-5.487-13.403-12.973-14.585-21.86-2.684-20.185 16.832-40.82 45.15-49.614-14.688 6.665-24.925 21.426-24.925 38.598 0 23.218 18.65 42.046 41.775 42.383-.038.005-.088.015-.138.02.263 0 .513.01.763.01 42.012 0 76.075-18.985 76.075-42.413 0-13.26-10.938-25.097-28.038-32.87z" fill="none"/><path d="M354.323 82.588l-42-42.002 38.525-38.515h-29.913L297.373 25.63 273.81 2.07h-29.924l38.525 38.515-42 42.002h29.913l27.048-27.046 27.05 27.046h29.9" fill="#004170"/><path d="M354.323 82.588l-42-42.002 38.525-38.515h-29.913L297.373 25.63 273.81 2.07h-29.924l38.525 38.515-42 42.002h29.913l27.048-27.046 27.05 27.046z" fill="none"/><path d="M0 2.071h75.033v16.49h-51.63v14.93h40.26v16.495h-40.26v16.05h53.125v16.488H0V2.071" fill="#004170"/><path d="M0 2.071h75.033v16.49h-51.63v14.93h40.26v16.495h-40.26v16.05h53.125v16.488H0z" fill="none"/></svg>