<svg width="538.71" height="467.65" xmlns="http://www.w3.org/2000/svg"><defs><clipPath clipPathUnits="userSpaceOnUse" id="a"><path d="M0 383.75h432V0H0z"/></clipPath></defs><g clip-path="url(#a)" transform="matrix(1.33333 0 0 -1.33333 -18.645 489.658)"><path d="M383.17 179.205c-1.69 1.376-3.496 2.508-5.327 3.482a.504.504 0 01.022.178c-.28 3.697-.03 7.344.837 12.195a62.42 62.42 0 014.106 4.13.5.5 0 01-.742.671c-6.578-7.269-13.105-11.032-16.322-12.866a62.79 62.79 0 01-7.196 1.04c-.021.004-.038.017-.06.02-.672.085-1.311.122-1.92.12-5.09.288-9.945-.002-13.663-.746-3.746-.748-7.184-1.776-10.952-3.282.41.804.779 1.62 1.094 2.45a21.5 21.5 0 011.373 6.8c3.149-.627 6.168-.922 9.052-.92 28.655.001 44.162 28.208 45.375 30.508 7.386 2.212 13.48 6.21 17.634 11.632 1.367 1.784 3.229 4.22 5.038 7.411-6.105-15.07-13.822-26.99-23.022-35.528a.5.5 0 11.68-.734c11.1 10.303 20.054 25.46 26.64 45.045-1.181-6.194-3.23-12.518-6.158-18.857-5.28-11.43-9.893-18.15-15.235-25.933a611.837 611.837 0 01-3.657-5.369c-4.047-6.034-6.9-14.13-7.597-21.447m-6.327 3.995a59.4 59.4 0 01-1.93.928c-2.352 1.071-4.972 1.912-7.707 2.553 2.465 1.43 6.186 3.725 10.303 7.312-.68-4.157-.882-7.474-.666-10.793m14.313-20.433c1.31-8.173-3.104-17.75-8.052-21.568-6.535-5.043-14.804-4.933-20.098-2.584-5.095 2.26-10.15 8.497-9.475 15.606.716 7.556 5.063 12.044 12.24 12.638a.49.49 0 01.21-.064c3.878-.21 7.04-1.775 8.907-4.4 1.55-2.183 2.05-4.968 1.335-7.448-1.285-4.45-5.882-7.047-8.531-6.942-1.842.323-4.205 1.29-5.747 4.01a.499.499 0 11-.869-.492c1.372-2.423 3.55-3.95 6.309-4.472a.49.49 0 01.167-.044c.027-.002.057-.002.085-.003.1-.017.194-.042.295-.056 3.853-.522 8.286.97 11.03 3.716 3.066 3.067 4.76 7.437 4.65 11.988-.102 4.193-1.718 7.92-4.551 10.49-9.514 8.632-22.1 6.156-27.613 1.762-1.954-1.558-3.008-3.292-3.052-4.914-2.59 3.25-2.42 6.653-2.014 9.05.14.531 2.292 8.125 10.234 8.134 6.175-.36 12.69-1.59 17.883-3.956 2.927-1.333 5.919-2.967 8.573-5.26-.002-.038-.007-.076-.01-.113l.15-.008c3.754-3.293 6.802-7.944 7.944-15.07m-7.266-33.34c2.2-6.16 5.492-7.452 7.867-7.452 1.32 0 2.494.387 3.335.775l-10.976-25.443c-.446-.235-1.945-.95-3.795-1.037a8.496 8.496 0 00-.36-.008c-3.543 0-6.188 2.375-7.861 7.06-2.261 6.331-6.152 7.66-9.018 7.66-1.381 0-2.6-.302-3.451-.595l12.087 25.104c.477.226 2.123.932 4.096.932 3.7 0 6.418-2.355 8.076-6.997m7.203-57.697c-4.506-8.59-9.846-12.717-12.628-14.412a2.955 2.955 0 01-.198-.128c-4.672-1.95-11.146-3.33-11.212-3.345a.5.5 0 01-.391-.56.485.485 0 01.535-.427c.17.01 16.539 1.177 21.216-8.696-1.823 1.15-5.502 2.566-12.513 2.39-2.143-.058-4.038-.3-6.046-.557-4.08-.524-8.703-1.113-17.757-.675-5.67.275-13.854 1.527-20.65 5.933-12.442 8.064-16.071 20.04-16.564 21.875.138.23.283.454.414.686 1.815 3.213 2.879 5.552 3.629 7.438l.029-.056c5.626-11.213 16.625-25.213 37.078-28.23a.5.5 0 01.572.52 50.669 50.669 0 01-.462 4.388c15.284 6.28 18.298 19.55 18.327 19.684a.5.5 0 01-.774.516c-8.087-5.612-15.61-7.486-22.454-6.964a.497.497 0 01-.278.021c-11.9 1.024-21.725 9.308-28.845 17.924 2.439 4.367 4.57 4.752 4.588 4.754.01.002.016.01.026.012a.51.51 0 01.219.096c.016.012.027.027.04.042.053.05.092.111.118.182.004.011.015.017.019.03 0 .004-.002.01-.001.015.003.011.01.02.012.03a.48.48 0 01-.016.227c-.005.016-.013.03-.02.044a.498.498 0 01-.124.182c-.01.008-.011.021-.02.03-.051.04-4.418 3.407-9.247.068-1.388 1.972-2.854 4.32-3.84 5.938 2.539-1.803 5.173-3.01 7.858-3.579 1.603-.339 3.312-.453 4.896-.453 1.93 0 3.67.17 4.803.316 1.035-1.809 7.67-12.677 18.855-15.305a21.927 21.927 0 015.023-.583c5.603 0 11.412 2.127 17.335 6.344a8.446 8.446 0 013.285-.648c2.432 0 4.36.914 4.475.97a.504.504 0 01.275.367l.58 3.452a9.962 9.962 0 011.204.453.499.499 0 01.275.367l.58 3.471a9.334 9.334 0 011.443.646.5.5 0 01.204.232l3.289 7.623c2.104-2.915 11.099-16.9 2.838-32.648m-1.843-27.023c-3.487 7.164-12.636 8.81-18.021 9.13 2.207.59 4.968 1.42 7.314 2.39 9.254-2.172 10.652-8.268 10.707-11.52m-33.684 9.342c-19.634 3.144-30.253 16.71-35.715 27.596-.13.26-.195.382-.242.472a6.21 6.21 0 00-.196.4c.195.531.375 1.036.54 1.507.43 1.221.803 2.276 1.352 3.448.104.221.208.421.31.627 7.258-8.692 17.21-16.966 29.25-18.002 3.545-4.32 4.505-13.577 4.7-16.048m14.223 20.442a47.568 47.568 0 013.32 1.98c-1.161-3.4-5.316-12.622-17.123-17.569a50.197 50.197 0 01-.405 2.155c9.402 4.083 12.866 10.754 14.208 13.434m-14.43-12.436c-.663 2.82-1.664 5.781-3.17 7.958 5.016-.206 10.379.862 16.05 3.67-1.647-3.02-5.17-8.224-12.88-11.628m-30.913 32.84c-4.13-.382-7.108-3.836-8.832-6.558.21 1.135.397 2.396.488 3.574 3.208 3.811 6.397 3.65 8.344 2.984m-8.421-1.57c-.12.921-.392 2.118-.915 3.528.59-.91 1.209-1.838 1.812-2.694a12.612 12.612 0 01-.897-.834m-12.57-2.73c1.177-1.815 2.724-4.982 2.55-9.629-1.65.381-3.431.612-4.985.42 1.506 2.73 2.312 5.81 2.436 9.21m.01 1.726a28.022 28.022 0 01-.096 1.785c1.704-1.874 4.987-6.479 4.574-13.66-.304.092-.622.183-.947.271.302 6.314-2.402 10.091-3.53 11.604M302.15 77.22a.502.502 0 01-.688-.164c-1.31-2.12-6.583-8.45-22.571-8.75 5.767.997 14.592 3.534 19.995 9.96a19.36 19.36 0 011.445 1.977c3.18.86 8.366-1.045 10.078-1.736-9.551-13.043-24.816-12.537-32.686-11.207 11.946.04 20.969 3.37 24.59 9.231a.501.501 0 01-.163.69m3.22-12.713c-2.62-1.914-6.3-3.313-6.56-3.412-2.163-.53-6.63-1.613-12.934-1.106a.51.51 0 01-.538-.458.499.499 0 01.458-.538 41.227 41.227 0 013.347-.137c.12 0 .23.007.35.008 8.633-6.446 9.508-11.847 9.362-14.264-3.18 5.685-10.291 10.02-16.434 11.681a.492.492 0 01-.29.075c-.218.056-.44.12-.656.168-1.416.325-2.765.62-4.082.907-5.923 1.293-11.038 2.411-18.531 5.437-1.717.693-3.295 1.505-4.805 2.384 8.828-4.105 16.905-5.983 25.502-5.983l.369.001a.5.5 0 01.497.503c-.002.277-.263.491-.502.497-8.51-.036-16.475 1.758-25.19 5.768 1.565-.4 2.95-.635 4.067-.817l.283-.046a19.5 19.5 0 013.164-.256c3.396 0 6.888.871 10.275 2.553.976-.305 6.156-1.816 12.777-1.816 8.37 0 19.018 2.424 26.292 12.781a.502.502 0 01-.206.743c-.106.048-1.078.475-2.463.947.712 10.256-5.63 15.5-5.903 15.72a.498.498 0 01-.808-.46c.934-6.596-.441-12.139-4.087-16.477-6.82-8.11-19.77-9.828-23.737-10.169a21.523 21.523 0 013.388 3.404c1.34 1.68 2.092 3.681 2.447 4.842 1.757.104 9.354.868 13.872 6.42 3.026 3.718 3.974 8.768 2.818 15.01-.708 3.824-3.796 10.218-4.822 12.276 2.697.225 12.644.39 18.835-8.247 3.645-5.085 4.143-8.84 4.188-10.22a2.44 2.44 0 01.007-.1c-.221-3.129-1.26-7.108-1.27-7.148a.5.5 0 01.947-.315c.039.096 3.685 8.852 9.984 9.254-1.007-.75-2.331-2.134-3.701-4.674l-.012-.024a26.193 26.193 0 01-.667-1.323c-.572-1.218-.97-2.346-1.39-3.54-.85-2.412-1.811-5.144-4.583-10.05-2.06-3.649-5.022-6.854-9.057-9.799m-5.49-12.658c.288-2.367.177-4.146-.064-5.463-.378 2.91-2.228 7.378-8.738 12.521 3.36.165 5.892.716 7.493 1.102.24-1.21.86-4.476 1.309-8.16M278.408 41.1c-2.46-3.086-5.245-6.586-9.618-11.404-10.243-11.285-18.812-12.368-24.086-11.385-.036.015-.07.035-.11.041-.281.047-.542.108-.817.16a15.344 15.344 0 00-3.095 1.121c-7.726 3.815-11.023 16.455-7.055 27.047 3.233 8.632 12.048 14.972 17.872 14.972.053 0 .106 0 .159-.002 2.67-.054 4.617-.977 5.766-2.677.296-.509.516-.948.659-1.268.119-.315.226-.64.306-.99 1.316-5.763-3.111-14.806-8.612-17.594-1.966-.994-4.346-.75-5.31.547-.62.837-1.494 3.381 3.796 8.92a.484.484 0 01.114.21.49.49 0 01.007.46.5.5 0 01-.674.21c-1.89-.99-5.285-5.613-5.165-10.193.059-2.266 1.039-5.386 5.372-7.377a11.181 11.181 0 014.727-1.037c8.167 0 16.713 8.474 24.4 16.096 2.82 2.795 5.482 5.434 7.914 7.43.003.002.004.006.008.01a31.41 31.41 0 003.852-1.804c-4.617-4.222-7.18-7.436-10.41-11.493m3.787 14.207c.557-.152 1.12-.32 1.69-.517-2.347-1.974-4.875-4.477-7.544-7.123-8.956-8.88-19.105-18.946-28.006-14.86a11.09 11.09 0 00-1.407.78c.054-.018.103-.043.158-.059a6.737 6.737 0 011.91-.259c7.623 0 19.72 10.584 27.192 17.121 2.785 2.436 4.999 4.37 6.007 4.917m-6.665-4.164c-7.978-6.98-21.35-18.658-28.162-16.656-1.796.527-3.012 1.973-3.716 4.417a.492.492 0 01-.085.164c-.003.06-.015.116-.017.177.038-.059.076-.12.116-.173 1.259-1.699 4.144-2.067 6.562-.844 5.952 3.017 10.563 12.458 9.136 18.708-.034.15-.091.278-.131.421l.054.017a7.78 7.78 0 01-.301.777c-.038.096-.086.182-.127.275-.11.235-.237.492-.4.788-.033.057-.064.116-.1.172-.636 1.126-1.668 2.604-3.256 4.141a36.345 36.345 0 013.384-1.587c7.572-3.057 12.726-4.182 18.693-5.486 1.192-.26 2.419-.529 3.692-.819-1.226-.892-3.047-2.484-5.342-4.492m-49.144-19.562c-3.163 7.277-2.461 16.722 1.705 22.97l.482.733c1.03 1.58 2.442 3.742 3.85 4.893.067.056.11.128.14.204a20.176 20.176 0 011.814-.089c.926 0 1.866.063 2.812.193a15.51 15.51 0 0110.323 6.046c.15.197.276.406.415.608 3.364-1.538 5.695-3.444 7.286-5.188-1.026.421-2.2.672-3.536.7a9.305 9.305 0 01-.17.001c-6.157 0-15.444-6.615-18.816-15.62-3.325-8.876-1.821-21.19 5.183-26.757-6.484 2.776-9.805 7.436-11.488 11.306m-7.1-5.615c-.334.973-1.673 1.682-3.327 1.682-1.653 0-2.992-.708-3.327-1.68-3.576-.41-7.732-1.275-10.034-1.789a22.63 22.63 0 014.256 6.486c3.344 7.691 2.625 17.305-1.79 23.924-.913 1.372-3.361 4.273-5.191 5.757 7.43.51 13.878 5.104 16.562 12.03 2.48-6.399 8.172-10.81 14.885-11.847-1.354-1.288-2.628-3.233-3.584-4.698l-.477-.725c-4.414-6.618-5.132-16.232-1.79-23.924.988-2.272 2.515-4.807 4.855-7.107-2.564.54-7.267 1.471-11.037 1.891m-3.328-2.286c-1.37 0-2.413 1.207-2.413 1.811 0 .546 1.032 1.157 2.413 1.157 1.38 0 2.413-.61 2.413-1.157 0-.604-1.043-1.81-2.413-1.81m-21.506-3.92c7.003 5.566 8.506 17.88 5.18 26.753-3.373 9.006-12.66 15.62-18.816 15.62h-.17c-1.485-.03-2.781-.322-3.881-.837 1.616 1.945 4.162 4.202 8.1 5.956.162-.242.315-.488.492-.722a15.517 15.517 0 0110.324-6.046 20.44 20.44 0 012.607-.186.48.48 0 01.169-.169c1.625-.926 4.717-4.508 5.775-6.096 4.167-6.248 4.867-15.694 1.704-22.97-1.681-3.87-5.002-8.529-11.484-11.304m-2.811-.645a15.321 15.321 0 00-3.058-1.112c-.286-.055-.56-.119-.855-.167-.043-.007-.08-.028-.118-.045-5.275-.98-13.84.108-24.075 11.387-4.375 4.82-7.161 8.32-9.62 11.407-3.258 4.09-5.83 7.32-10.52 11.593-.007.008-.02.011-.028.018a31.658 31.658 0 003.846 1.916.49.49 0 01.152-.243c2.432-1.995 5.095-4.636 7.914-7.43 7.688-7.622 16.233-16.095 24.4-16.095 1.594 0 3.173.323 4.729 1.038 4.33 1.99 5.31 5.108 5.37 7.375.12 4.58-3.274 9.203-5.164 10.193a.501.501 0 01-.675-.21.49.49 0 01.008-.46.485.485 0 01.113-.21c5.289-5.539 4.416-8.083 3.794-8.92-.963-1.297-3.344-1.54-5.307-.547-5.501 2.788-9.928 11.831-8.613 17.593.072.316.172.606.276.892l.018-.005c.003.011.073.222.224.57 1.043 2.212 3.152 3.418 6.215 3.48 5.852.127 14.768-6.26 18.03-14.97 3.969-10.592.67-23.232-7.056-27.048m-6.246 13.954c-.432-.278-.89-.543-1.405-.779-8.9-4.088-19.051 5.978-28.007 14.86-2.77 2.745-5.388 5.338-7.808 7.344.535.201 1.066.382 1.594.546a.493.493 0 01.186-.154c.915-.407 3.237-2.438 6.178-5.01 7.473-6.539 19.572-17.124 27.194-17.124a6.77 6.77 0 011.91.258c.055.016.105.041.158.06m-3.3 4.641c2.417-1.225 5.3-.857 6.563.843.039.054.077.114.116.173-.002-.059-.014-.115-.017-.174a.49.49 0 01-.086-.167c-.704-2.444-1.92-3.889-3.715-4.417-6.84-2.005-20.187 9.677-28.165 16.66-2.571 2.248-4.541 3.968-5.75 4.772.193.05.389.105.579.15 1.412.323 2.758.617 4.07.904 5.968 1.303 11.12 2.428 18.693 5.485.94.38 1.838.795 2.707 1.233-2.17-2.203-3.192-4.234-3.595-5.204a8.15 8.15 0 01-.535-1.55c-1.428-6.25 3.183-15.692 9.135-18.708M132.54 80.242c.44-.68.913-1.346 1.445-1.978 5.403-6.425 14.228-8.962 19.995-9.96-15.995.3-21.261 6.631-22.571 8.751a.503.503 0 01-.69.164.502.502 0 01-.162-.689c3.624-5.864 12.65-9.193 24.602-9.23-7.866-1.335-23.137-1.85-32.697 11.206 1.713.69 6.897 2.59 10.078 1.736m-.688 1.143c-1.554.192-3.336-.039-4.986-.42-.174 4.647 1.375 7.815 2.55 9.63.124-3.4.93-6.48 2.436-9.21m-2.446 10.937c-1.13-1.515-3.834-5.29-3.532-11.605a29.667 29.667 0 01-.946-.272c-.411 7.163 2.87 11.777 4.575 13.657a27.908 27.908 0 01-.097-1.78m4.6-47.74c-.163 2.4.678 7.791 9.372 14.282.119 0 .228-.008.348-.008 1.052 0 2.169.041 3.35.137a.5.5 0 01.458.538.502.502 0 01-.538.458c-6.312-.507-10.772.576-12.934 1.106-.261.098-3.94 1.498-6.561 3.413-4.036 2.945-7 6.15-9.06 9.797-2.77 4.907-3.732 7.64-4.581 10.05-.421 1.195-.818 2.323-1.391 3.541-1.604 3.418-3.206 5.146-4.38 6.02 6.299-.403 9.947-9.157 9.986-9.253a.499.499 0 01.946.315c-.01.04-1.047 4.01-1.27 7.136.007.042.012.083.014.118.148 1.953.938 5.946 4.57 10.741 5.81 7.673 15.68 7.81 18.43 7.692-1.04-2.088-4.101-8.442-4.805-12.249-1.157-6.24-.208-11.29 2.817-15.009 4.519-5.55 12.114-6.316 13.872-6.42.355-1.16 1.106-3.163 2.446-4.842a21.54 21.54 0 013.39-3.405c-3.967.34-16.912 2.054-23.735 10.167-3.65 4.338-5.024 9.883-4.088 16.48a.5.5 0 01-.81.46c-.272-.22-6.616-5.464-5.904-15.72a31.342 31.342 0 01-2.463-.947.496.496 0 01-.205-.743c7.274-10.358 17.92-12.78 26.292-12.78 6.619 0 11.8 1.51 12.778 1.815 3.387-1.683 6.878-2.553 10.275-2.553 1.066 0 2.123.085 3.164.256l.282.046c1.119.182 2.507.417 4.075.82-8.598-3.962-16.471-5.772-24.836-5.772l-.362.001c-.263-.032-.501-.219-.503-.497a.5.5 0 01.497-.503h.369c8.598 0 16.676 1.877 25.506 5.983a37.362 37.362 0 00-4.808-2.385c-7.493-3.026-12.608-4.144-18.53-5.437a367.865 367.865 0 01-4.082-.907c-6.346-1.456-14.052-5.955-17.39-11.942m-.953 1.807c-.24 1.316-.351 3.095-.064 5.46a114.57 114.57 0 001.31 8.16c1.6-.386 4.13-.938 7.492-1.102-6.508-5.14-8.358-9.61-8.738-12.518m-51.71 23.887c12.957 1.382 23.3 10.877 29.6 18.426.206-.384.413-.787.62-1.23.55-1.173.922-2.228 1.353-3.449l.173-.488c-.01-.016-.025-.027-.033-.044a64.42 64.42 0 00-.945-1.96c-5.462-10.891-16.082-24.457-35.718-27.6.186 2.523 1.134 12.176 4.95 16.344m-4.99-9.322a46.822 46.822 0 01-.398-2.157c-11.792 4.95-15.942 14.162-17.101 17.557a45.359 45.359 0 013.305-1.949c1.332-2.658 4.784-9.354 14.195-13.45M63.703 73.606c5.742-2.79 11.187-3.75 16.253-3.445-1.633-2.19-2.696-5.276-3.382-8.209-7.718 3.42-11.235 8.644-12.871 11.654m36.81-22.47c-6.794-4.406-14.98-5.658-20.648-5.933-9.054-.439-13.681.153-17.761.675-2.007.256-3.902.5-6.043.557-7.012.182-10.69-1.24-12.511-2.39 4.676 9.872 21.044 8.708 21.215 8.696.278-.019.5.17.535.432a.498.498 0 01-.401.557c-.078.015-7.825 1.514-11.196 3.337a2.888 2.888 0 01-.204.134c-2.782 1.695-8.122 5.821-12.63 14.412-8.33 15.878.89 29.97 2.893 32.722l3.272-7.582a.5.5 0 01.204-.232 9.461 9.461 0 011.44-.645l.583-3.472a.503.503 0 01.276-.367 9.805 9.805 0 011.203-.453l.579-3.452a.504.504 0 01.275-.368c.116-.055 2.043-.969 4.476-.969.996 0 2.078.168 3.154.597 5.956-4.262 11.797-6.408 17.429-6.408 1.694 0 3.37.195 5.024.583C92.706 84.16 99.316 94.772 100.489 96.8a26.888 26.888 0 014.675-.424c1.306 0 2.72.107 4.125.404 3.319.702 6.308 1.806 8.947 3.244a144.855 144.855 0 01-3.648-4.894c-4.597 2.714-8.63-.393-8.68-.432-.01-.008-.01-.02-.02-.029a.494.494 0 01-.126-.185c-.004-.012-.011-.02-.014-.034a.485.485 0 01-.02-.234c.003-.013.01-.022.014-.035v-.004c0-.004.005-.006.006-.01a.49.49 0 01.133-.214c.009-.009.016-.018.027-.027a.49.49 0 01.226-.105c.008-.002.013-.009.02-.01.023-.004 1.966-.352 4.263-4.178-9.481-11.478-28.69-27.956-52.152-11.674a.5.5 0 01-.774-.516c.029-.135 3.04-13.392 18.307-19.675a50.182 50.182 0 01-.442-4.4.5.5 0 01.572-.519c20.453 3.02 31.453 17.02 37.078 28.233.195.387.372.77.556 1.153.744-1.985 1.814-4.489 3.834-8.102-.613-2.235-4.576-15.019-16.882-22.996m-57.8-6.545c.055 3.25 1.452 9.336 10.684 11.513 1.836-.954 4.684-1.798 7.07-2.4-5.415-.358-14.325-2.067-17.754-9.113m-5.807 78.16c.842-.389 2.015-.776 3.335-.776 2.375 0 5.669 1.292 7.868 7.451 1.658 4.642 4.375 6.997 8.076 6.997.215 0 .424-.012.63-.027a21.871 21.871 0 011.637-.268 10.213 10.213 0 001.828-.637l12.088-25.104c-.852.293-2.07.595-3.45.595-2.867 0-6.757-1.329-9.02-7.66-1.672-4.685-4.316-7.06-7.86-7.06-.12 0-.24.003-.36.008-1.84.086-3.346.803-3.795 1.038zm11.953 18.333c-4.947 3.817-9.364 13.394-8.053 21.568 1.156 7.214 4.268 11.891 8.086 15.191l.043.002-.002.033c1.81 1.557 3.773 2.814 5.769 3.871a.487.487 0 01.296.153c.822.427 1.647.827 2.467 1.2 4.81 2.193 10.759 3.41 16.52 3.864 9.048.706 11.466-7.562 11.598-8.05.404-2.395.57-5.794-2.016-9.04-.044 1.621-1.098 3.356-3.052 4.913-5.511 4.393-18.1 6.871-27.614-1.763-2.833-2.57-4.45-6.295-4.551-10.487-.111-4.552 1.584-8.922 4.65-11.99 2.745-2.746 7.179-4.237 11.033-3.715.099.013.192.038.289.054l.089.003c.062.004.12.023.173.047 2.755.521 4.932 2.05 6.303 4.47a.501.501 0 01-.871.492c-1.542-2.724-3.907-3.688-5.75-4.01-2.65-.11-7.244 2.494-8.526 6.942-.716 2.481-.216 5.265 1.336 7.448 1.866 2.627 5.028 4.188 8.904 4.4a.505.505 0 01.21.063c7.179-.594 11.527-5.082 12.24-12.637.675-7.11-4.378-13.347-9.474-15.605-2.815-1.248-6.472-1.854-10.261-1.399-.521.13-1.113.233-1.754.284a19.742 19.742 0 00-8.082 3.698m5.609 52.927c4.197-3.66 7.984-5.977 10.452-7.404-2.795-.645-5.47-1.5-7.87-2.595a55.638 55.638 0 01-1.884-.904c.169 3.297-.066 6.953-.698 10.903m-13.237 6.641a578.102 578.102 0 01-3.66 5.373c-5.34 7.781-9.952 14.501-15.23 25.93-2.93 6.338-4.978 12.662-6.16 18.856 6.588-19.586 15.539-34.742 26.64-45.045a.498.498 0 01.707.027.5.5 0 01-.026.707c-9.2 8.537-16.917 20.458-23.022 35.528 1.809-3.192 3.67-5.627 5.038-7.41 4.155-5.424 10.25-9.422 17.637-11.634 1.23-2.282 17.103-30.556 45.847-30.553 2.85 0 5.836.29 8.938.9a21.58 21.58 0 011.378-6.734c.338-.894.74-1.772 1.19-2.636a67.521 67.521 0 01-11.451 3.353c-3.87.774-8.97 1.053-14.284.702a14.656 14.656 0 01-1.212-.069c-.022-.002-.04-.014-.061-.019a63.028 63.028 0 01-7.113-1.013l-.011.011c-3.176 1.81-9.785 5.578-16.444 12.935a.5.5 0 01-.742-.671 62.7 62.7 0 014.108-4.13c.817-4.583 1.095-8.77.848-12.474-1.825-.969-3.626-2.094-5.311-3.46-.684 7.338-3.541 15.471-7.604 21.526m-25.413 52.832c-.032-.01-.057-.032-.085-.048a66.694 66.694 0 00-.262 1.894c.13-.625.268-1.24.418-1.838-.024-.004-.048 0-.071-.008m-.197 17.298a.497.497 0 01-.066.275c.23 1.613.524 3.208.897 4.777 3.545 14.925 12.352 26.772 26.178 35.213 2.124 1.297 4.803 2.578 7.782 3.71-3.29-3.245-3.377-7.862-3.332-9.133-3.267-1.817-33.021-19.486-17.775-51.43 5.679-11.897 18.196-12.464 20.51-12.464.205 0 .315.004.35.005.217-.018.433-.029.648-.029.603 0 1.2.062 1.822.127.179.02.372.033.557.051.09-.372.207-.756.377-1.163.913-2.19 2.666-6.017 4.074-9.09a291.705 291.705 0 001.965-4.335 21.1 21.1 0 01.659-1.359c-1.643-.852-4.007-1.862-6.55-2.227-3.53-.506-6.86-.462-9.91.116-7.352 2.127-13.4 6.055-17.496 11.4-3.998 5.22-12.317 16.08-10.69 35.556m29.522 51.43c2.575-.664 6.814-2.123 9.53-4.917a12.329 12.329 0 01-.808-.298 64.148 64.148 0 01-4.253-1.485c.124 2.477-2.551 5.13-4.47 6.7m28.365-.517c3.886-1.205 7.32-2.816 10.314-4.806-3.78 1.747-7.735 2.383-11.467 2.67-5.041.385-10.757-.43-16.101-1.87a.493.493 0 01-.167-.002c-.118-.026-.227-.058-.342-.086-2.998 3.374-7.917 4.998-10.666 5.668 4.498.891 16.634 2.082 28.429-1.574m3.032 4.405c-.291 1.855 1.086 3.85 3.443 5.462-.473-.738-.685-1.52-.563-2.296.315-2.006 2.797-3.354 6.178-3.354.812 0 1.647.08 2.484.232 2.655.485 4.846 1.625 6.1 3.006.024-1.494.248-3.39 1.042-4.999-1.71-.932-3.763-1.675-6.002-2.085a21.396 21.396 0 00-3.838-.357c-4.803 0-8.44 1.805-8.844 4.391m10.266 8.181c.779.143 1.553.215 2.304.215 2.824 0 4.959-1.03 5.19-2.507a1.91 1.91 0 00.018-.338 10.38 10.38 0 01-.04-.318c-.34-1.765-3.022-3.592-6.376-4.206a12.876 12.876 0 00-2.304-.215c-2.824 0-4.96 1.032-5.19 2.51-.305 1.944 2.626 4.17 6.398 4.86m13.185-3.865c.309-1.972-1.27-4.1-3.904-5.76-1.111 2.321-.93 5.416-.82 6.497.02.11.029.22.037.331l.009.066-.001.017c.009.192.006.384-.024.575-.171 1.09-.996 1.973-2.241 2.563 3.836-.41 6.596-2.058 6.944-4.289m.368-13.838c-6.892.842-12.706 2.708-16.513 4.195a19.637 19.637 0 011.538-.065c1.31 0 2.664.126 4.018.374 4.198.768 7.676 2.534 9.706 4.676-.333-2.282-.352-5.658 1.25-9.18m37.083 8.187c6.708 4.97 11.122 10.703 16.234 17.343 2.63 3.417 5.612 7.29 9.222 11.461 14.023 16.206 25.016 13.04 29.093 10.93 8.013-4.152 11.432-17.902 7.315-29.427-3.353-9.39-12.46-16.27-18.48-16.27l-.191.002c-2.956.073-4.836 1.135-6.04 2.527-.345.456-.67.937-.964 1.448-.013.021-.033.035-.05.054-.631 1.247-.901 2.567-1.01 3.616-.751 7.318 4.269 17.644 11.197 19.261 1.295.303 2.446.045 3.239-.725.92-.896 1.827-2.91.908-7.419a.441.441 0 01-.01-.073c-1.102-2.267-2.568-4.019-3.441-4.506a.499.499 0 11.486-.873c2.092 1.166 5.728 6.81 5.403 11.78-.097 1.491-.56 2.803-1.33 3.934a.496.496 0 01-.216.324c-.952 1.252-2.326 2.254-4.103 2.961-7.838 3.117-16.03-4.613-26.405-14.4-3.576-3.374-7.274-6.862-11.31-10.245-25.171-21.095-54.35-12.847-64.66-6.226-.065.048-.138.1-.203.146 9.029-3.76 33.778-11.573 55.316 4.377m57.996 39.055c5.06-2.18 8.822-5.822 11.02-10.76 4.09-9.18 1.787-20-2.082-26.169-4.086-6.514-11.538-10.839-18.627-10.839-.103 0-.204.002-.306.003-2.77.05-5.247.78-7.341 2.084a11.38 11.38 0 012.508-.335c6.395-.12 16.109 7.053 19.638 16.933 3.538 9.906 1.8 23.792-6.014 29.534.396-.142.799-.296 1.204-.45m18.045-6.52c.173-1.175 1.612-2.069 3.44-2.069 1.81 0 3.238.875 3.435 2.033 4.087.703 8.372 2.507 12.544 4.317a21.636 21.636 0 01-6.232-8.115c-4.238-9.516-1.857-20.722 2.149-27.107 1.856-2.959 4.382-5.484 7.254-7.392-.915.354-1.837.717-2.772 1.09-4.283 1.704-8.705 3.457-12.94 4.117.012.084.036.17.036.25 0 1.29-1.525 2.3-3.473 2.3-1.95 0-3.475-1.01-3.475-2.3 0-.085.025-.174.038-.26-4.314-.667-8.605-2.406-12.76-4.098-.942-.384-1.872-.76-2.795-1.125 2.888 1.911 5.427 4.446 7.29 7.418 4.006 6.386 6.388 17.592 2.15 27.107-1.126 2.528-2.962 5.405-5.927 7.872 4.004-1.69 8.102-3.34 12.038-4.038m3.44 2.24c1.405 0 2.474-1.339 2.474-2.008 0-.616-1.015-1.3-2.473-1.3s-2.475.684-2.475 1.3c0 .67 1.07 2.007 2.475 2.007m22.956 4.788c-7.876-5.709-9.635-19.654-6.085-29.59 3.49-9.777 13.07-16.937 19.432-16.936l.205.002c.896.022 1.73.14 2.508.334-2.093-1.303-4.571-2.034-7.34-2.083-7.158-.13-14.788 4.228-18.933 10.836-3.87 6.168-6.172 16.988-2.084 26.17 2.38 5.343 6.588 9.17 12.297 11.267m31.264-10.759c3.61-4.17 6.59-8.042 9.219-11.458 5.113-6.64 9.529-12.377 16.237-17.346 21.52-15.937 46.246-8.149 55.293-4.386-.084-.062-.18-.128-.266-.19-10.384-6.612-39.467-14.759-64.574 6.28-4.036 3.381-7.733 6.87-11.31 10.242-8.786 8.29-16.01 15.102-22.774 15.102a9.725 9.725 0 01-3.631-.7c-1.78-.708-3.154-1.71-4.107-2.966a.497.497 0 01-.21-.316c-.773-1.132-1.235-2.445-1.333-3.938-.323-4.97 3.313-10.614 5.404-11.779a.5.5 0 11.487.873c-.873.487-2.34 2.24-3.444 4.508a.351.351 0 01-.008.071c-.917 4.51-.012 6.524.91 7.42.792.77 1.942 1.025 3.236.724 6.93-1.617 11.948-11.943 11.196-19.26-.107-1.05-.377-2.369-1.01-3.616-.014-.019-.035-.033-.048-.055-.296-.512-.62-.993-.965-1.449-1.204-1.39-3.084-2.453-6.04-2.526-5.991-.188-15.281 6.778-18.67 16.268-4.116 11.524-.697 25.275 7.315 29.426 4.078 2.111 15.073 5.275 29.093-10.929m63.739-27.757c2.022-2.166 5.524-3.956 9.756-4.73a22.396 22.396 0 014.019-.374c.532 0 1.044.026 1.545.066-3.807-1.49-9.625-3.359-16.524-4.202 1.55 3.427 1.543 6.842 1.204 9.24m-.834 4.604c.35 2.231 3.109 3.88 6.945 4.29-1.245-.592-2.07-1.475-2.24-2.563a2.869 2.869 0 01-.027-.555c0-.013-.004-.026-.002-.039l.023-.18c.008-.066.01-.132.022-.198.11-1.066.303-4.206-.831-6.545-1.763 1.1-3.04 2.405-3.602 3.752-.12.408-.213.662-.232.71l-.002.004c-.1.443-.122.886-.054 1.324m10.88 4.08c.752 0 1.527-.073 2.305-.216 3.773-.689 6.703-2.915 6.399-4.86-.231-1.477-2.366-2.509-5.19-2.509-.75 0-1.525.073-2.303.215-3.408.623-6.12 2.5-6.39 4.291-.011.102-.02.17-.027.22a1.8 1.8 0 00.019.351c.23 1.476 2.364 2.507 5.188 2.507m9.078-2.854c2.41-1.612 3.793-3.628 3.494-5.543-.405-2.585-4.041-4.39-8.844-4.39-1.252 0-2.543.12-3.84.357-2.26.414-4.312 1.144-6.013 2.06.804 1.615 1.03 3.524 1.053 5.026 1.253-1.383 3.446-2.523 6.103-3.008a13.843 13.843 0 012.482-.232c3.38 0 5.863 1.348 6.179 3.354.125.804-.104 1.615-.614 2.376m4.485-9.947c11.796 3.655 23.93 2.465 28.43 1.574-2.75-.67-7.67-2.295-10.667-5.668-.115.028-.224.06-.342.086a.512.512 0 01-.17.002c-5.343 1.438-11.057 2.254-16.1 1.87-3.405-.262-6.997-.806-10.471-2.226.635.4 1.233.792 1.789 1.172.214.125.413.251.616.377a42.508 42.508 0 006.915 2.813m23.895-6.184a63.966 63.966 0 01-4.247 1.484c-.262.107-.533.207-.815.3 2.714 2.791 6.954 4.25 9.53 4.916-1.918-1.57-4.592-4.224-4.468-6.7m-34.58-107.34c-8.833 1.041-16.36 5.898-22.37 14.436a.499.499 0 01-.895-.17c-.045-.185-.975-4.234.893-10.083a24.745 24.745 0 01-6.6 3.735 24.669 24.669 0 01-7.9 1.571l-4.876 7.105 7.384 5.067a.5.5 0 01-.02.837l-5.237 3.254c2.71 9.951 10.852 14.78 13.224 15.996l.216-.156c.814-2.86 3.733-12.609 7.05-17.773 5.415-8.427 11.97-13.118 19.487-13.944l.013.117c2.072-1.204 4.584-2.07 7.55-2.07 2.063 0 4.342.416 6.838 1.42 3.738 1.502 6.64 4.047 8.682 7.55 1.714-.89 4.2-1.956 6.892-2.343 2.922-.418 5.708-.454 8.33-.15-3.66-2.998-21.211-16.454-38.661-14.4m-3.948-.28a30.272 30.272 0 013.835-.714 32.41 32.41 0 013.778-.218c13.45 0 26.34 7.974 32.535 12.465-20.105-19.673-34.075-17.97-38.05-16.9a.5.5 0 01-.26-.966c1.683-.454 3.454-.676 5.305-.676 10.16 0 22.623 6.728 34.76 18.881-5.891-9.092-23.18-30.849-50.964-25.429.812 2.257 4.225 11.02 9.06 13.557m-14.906 8.873c4.014-4.149 8.554-6.989 13.572-8.506-2.198-1.493-4.053-4.044-5.488-6.576-6.074 5.723-7.581 11.736-8.084 15.082m-1.998-5.71c-1.777 4.53-1.772 8.19-1.608 9.973a44.428 44.428 0 012.43-2.992c.334-2.922 1.272-10.295 8.714-17.22.016-.014.035-.02.052-.033a46.756 46.756 0 01-2.185-4.77c-.47 5.647-3.115 11.036-7.403 15.041m3.504-27.52l-.045-.019.015-.035c-2.494-4.299-6.452-8.203-11.861-11.629-3.238-2.05-5.76-4.377-7.983-6.428-3.37-3.11-6.032-5.566-9.508-5.566-1.034 0-2.1.212-3.258.647-5.272 1.981-5.702 6.206-6.297 12.053-.306 3.011-.653 6.423-1.731 10.105-2.284 7.8-2.346 14.65-.187 20.362 3.142 8.308 11.183 13.677 20.487 13.677.1 0 .2-.013.303-.014l.03-.045.06.041a23.677 23.677 0 007.999-1.527c11.718-4.43 17.832-17.082 13.629-28.203-.442-1.168-1.011-2.304-1.653-3.419M296.25 136.15c.13.407.252.81.375 1.213-.408-8.765 1.684-15.356 2.819-18.908 1.14-3.572 2.917-6.504 5.32-9.32-3.153 1.667-6.352 2.312-8.85 2.524a166.894 166.894 0 00-.526 5.34c-.521 6.36-.23 12.683.862 19.151m-37.91-51.519c-1.845 1.243-3.732 2.791-5.42 4.68 17.897 11.028 31.894 30.35 38.542 53.234a5.837 5.837 0 011.78-.296c1.158 0 2.324.338 3.466.918a88.56 88.56 0 01-1.434-6.786c-5.598-17.466-18.302-38.488-36.933-51.75m-7.686-7.952a32.974 32.974 0 011.544-.65c1.776-.692 3.462-.969 5.024-.969 6.107 0 10.297 4.218 10.435 4.36 2.887 2.268 5.867 6.785 6.775 10.195 1.348-.625 4.902-2.803 5.162-8.487.072-1.569.009-2.425-.052-2.876-.014-.03-.034-.059-.041-.094-.002-.008-.051-.229-.153-.587-.002-.01-.007-.018-.008-.029-.292-1.014-1.008-3.095-2.348-4.772-1.42-1.774-2.982-3.205-4.645-4.267-4.344-2.22-8.87-3.038-13.104-2.342l-.283.047c-2.34.382-5.844.966-9.81 3.015a15.483 15.483 0 011.504 7.456m-30.276-2.827c.498-3.304 2.24-6.194 4.933-8.145 2.207-1.6 4.858-2.442 7.614-2.442.62 0 1.246.043 1.873.13 5.649.78 9.613 6.016 8.835 11.675-.638 4.577-4.876 7.792-9.454 7.154a.499.499 0 11.137-.99c2.944.407 5.733-1.003 7.24-3.368-.003-.037-.011-.074-.006-.112a5.605 5.605 0 00-1.086-4.189 5.739 5.739 0 00-3.824-2.232 7.359 7.359 0 00-6.615 2.52h2.945c.8 0 1.453.651 1.453 1.452v1.902c0 .803-.652 1.457-1.453 1.457h-4.425c-.072 4.577 3.318 8.58 7.908 9.211.755.104 1.508.132 2.253.091a.49.49 0 01.2-.058c.04 0 .082.016.123.027a11.54 11.54 0 006.013-2.302 11.534 11.534 0 004.494-7.662 14.534 14.534 0 00-2.823-10.836 14.518 14.518 0 00-9.663-5.66c-9.054-1.235-17.41 3.948-20.064 12.377zm22.193 1.457c.024-.125.054-.248.072-.377.702-5.11-2.88-9.842-7.982-10.547-3.156-.436-6.27.323-8.763 2.131a11.172 11.172 0 00-3.745 4.713c2.28-2.998 5.947-4.8 9.949-4.8.606 0 1.22.04 1.836.126a10.076 10.076 0 018.633 8.754m-8.77-7.764c-5.175-.709-10.04 1.873-12.056 6.307h7.027a8.33 8.33 0 018.004-3.509 6.734 6.734 0 013.739 1.784 9.099 9.099 0 00-6.713-4.582m-36.225 7.307a.456.456 0 00-.447.453v1.902c0 .248.205.457.447.457h35.393c.25 0 .453-.205.453-.457v-1.902a.448.448 0 00-.453-.453zm13.497-2.659a11.183 11.183 0 00-4.106-5.677c-2.494-1.808-5.603-2.566-8.761-2.13-5.105.704-8.686 5.435-7.984 10.545.005.032.013.063.018.094.633-4.289 4.019-7.844 8.514-8.47a13.022 13.022 0 011.817-.127c4.368 0 8.338 2.191 10.502 5.765m-12.182-4.648a9.006 9.006 0 00-6.634 4.568 6.65 6.65 0 013.688-1.77 8.193 8.193 0 015.15.97 8.288 8.288 0 012.774 2.54h6.943c-1.995-4.434-6.811-7.015-11.921-6.308m-15.56 10.426a11.534 11.534 0 004.494 7.662 11.52 11.52 0 008.588 2.242c4.59-.632 7.98-4.634 7.908-9.21h-6.745a1.454 1.454 0 01-1.447-1.458v-1.902c0-.8.649-1.453 1.447-1.453h5.045a7.3 7.3 0 00-2.013-1.666 7.222 7.222 0 00-4.525-.853 5.658 5.658 0 00-3.761 2.205 5.648 5.648 0 00-1.095 4.21 7.387 7.387 0 007.323 3.486.5.5 0 01.137.99c-4.572.637-8.814-2.578-9.455-7.155-.777-5.658 3.187-10.894 8.837-11.675a13.628 13.628 0 011.873-.129c2.756 0 5.405.841 7.612 2.442 2.692 1.951 4.435 4.841 4.933 8.145h3.392c-2.653-8.428-11.003-13.615-20.063-12.377a14.52 14.52 0 00-9.664 5.66 14.528 14.528 0 00-2.821 10.836m-30.06 3.15c.349 5.67 3.83 7.855 5.164 8.49.91-3.412 3.892-7.93 6.78-10.199.194-.196 4.364-4.352 10.428-4.352 1.562 0 3.249.277 5.025.968.527.206 1.04.426 1.545.651a15.462 15.462 0 011.502-7.456c-3.967-2.049-7.471-2.633-9.808-3.015l-.283-.047c-4.238-.696-8.761.122-13.105 2.342-1.664 1.061-3.227 2.493-4.645 4.267-1.365 1.707-2.086 3.847-2.366 4.838-.003.011 0 .022-.004.032-.003.011-.378 1.097-.233 3.48m-17.786 62.133c1.195-.633 2.418-1.005 3.632-1.004.686 0 1.368.12 2.04.368 6.658-22.98 20.725-42.375 38.71-53.4-1.39-1.539-2.91-2.839-4.431-3.939-27.99 18.14-36.113 40.418-39.951 57.975m-2.97-24.91c1.26 4.025 3.4 10.896 2.76 20.034 1.445-7.294 1.88-14.374 1.295-21.495-.148-1.823-.33-3.658-.54-5.454-2.591-.347-5.756-1.138-8.763-2.853 2.469 3.135 4.172 6.323 5.249 9.768m-31.433 85.21c2.574 5.334 7.119 9.454 12.796 11.601 2.48.937 5.053 1.43 7.658 1.511l.037-.025.019.028c.227.007.452.031.679.031 9.303 0 17.344-5.369 20.485-13.677 2.16-5.71 2.097-12.56-.186-20.362-1.078-3.682-1.425-7.094-1.731-10.105-.595-5.847-1.025-10.072-6.296-12.053-1.16-.435-2.224-.647-3.257-.647h-.001c-3.476.001-6.138 2.456-9.508 5.566-2.225 2.051-4.746 4.377-7.984 6.428-5.364 3.397-9.302 7.264-11.8 11.52l.005.008-.01.003c-.681 1.164-1.276 2.35-1.737 3.571-2.035 5.38-1.74 11.274.83 16.601m-5.487-2.65c7.355 6.896 8.293 14.217 8.626 17.13a44.324 44.324 0 012.328 2.86c.037-2.017-.175-6.053-1.984-10.625-.01-.022-.007-.045-.012-.067a23.767 23.767 0 01-4.371-6.213A22.586 22.586 0 0198 196.071a50.108 50.108 0 01-2.403 4.83m-8.943 1.268a.5.5 0 01-.612.353c-3.973-1.07-17.943-2.772-38.05 16.9 6.195-4.49 19.085-12.463 32.534-12.463 1.256 0 2.519.07 3.779.217 1.308.155 2.584.4 3.835.714 4.842-2.539 8.604-11.322 9.516-13.607-27.65-5.38-45.197 16.172-51.29 25.351 12.098-12.07 24.506-18.753 34.632-18.753 1.849 0 3.623.223 5.303.675a.5.5 0 01.353.613m16.394 14.595c-.5-3.324-1.995-9.282-7.973-14.973-1.512 2.498-3.42 4.998-5.598 6.466 5.018 1.518 9.557 4.358 13.57 8.507m-42.294 8.3c2.042-3.505 4.945-6.049 8.682-7.552 2.496-1.003 4.775-1.419 6.837-1.419 2.872 0 5.312.816 7.346 1.96 5.297.594 12.997 3.498 19.704 13.937 3.318 5.164 6.236 14.913 7.05 17.773l.218.156c2.372-1.217 10.514-6.045 13.222-15.996l-5.236-3.254a.501.501 0 01-.02-.837l7.384-5.067-4.888-7.122a24.68 24.68 0 01-7.524-1.554 24.773 24.773 0 01-7.396-4.4c1.909 5.905 1.36 10.484 1.334 10.694a.501.501 0 01-.905.224c-6.01-8.538-13.537-13.395-22.37-14.437-17.436-2.058-34.996 11.401-38.66 14.398 2.623-.302 5.409-.267 8.33.152 2.692.387 5.178 1.452 6.892 2.343m-5.21 20.507c1.345.85 3.044.646 4.127-.493a1464.53 1464.53 0 005.856-6.242c-.54-1.43-.877-2.329-.877-2.329a.499.499 0 01.468-.677.5.5 0 01.468.324c.88 2.34 8.599 22.856 8.62 22.916.638 1.695 2.419 2.602 3.976 2.018 1.553-.585 2.297-2.44 1.659-4.138l-6.166-16.387a.5.5 0 01.936-.353l2.45 6.512.008.013c.506 1.342 2.169 1.962 3.723 1.38 1.135-.428 1.888-1.388 2.01-2.398l-.015-.029.025-.016a2.281 2.281 0 00-.132-1.047l-.752-2c-.018-.043-.047-.08-.063-.124-.01-.026-.007-.05-.013-.077l-1.984-5.275.935-.353 2.06 5.474c.258.577.739 1.03 1.386 1.275.714.271 1.53.262 2.299-.027 1.56-.587 2.419-2.157 1.915-3.5l-2.452-6.512.936-.353 1.524 4.05c.002.005.008.01.01.016.24.638.755 1.134 1.448 1.397.716.27 1.533.261 2.299-.027 1.56-.588 2.42-2.158 1.915-3.5l-2.195-5.835c-.018-.042-1.751-4.299-5.354-7.75-4.788-4.587-10.435-5.615-16.785-3.063-4.241 1.705-7.364 4.818-9.282 9.253-.356.823-1.103 2.454-1.974 4.353-1.405 3.068-3.154 6.885-4.06 9.06-1.107 2.655-.09 3.746 1.052 4.464m12.593.207l-2.218-5.897c-.717.767-2.051 2.194-3.296 3.522 2.117.673 3.99 1.481 5.514 2.375m15.34 1.133a4.18 4.18 0 01-2.335 2.14 4.16 4.16 0 01-3.248-.11l.576 1.53c.978.57 4.593 2.745 7.04 5.184-.12-1.963-.545-5.725-2.033-8.744m.33-1.46c1.803 2.957 2.427 6.821 2.639 9.248.569-2.1 1.064-5.688-.192-10.064-.8.173-1.62.127-2.361-.155-.092-.035-.17-.087-.258-.128.126.361.175.731.172 1.1m-38.876 31.436c3.623 13.451 14.58 19.822 20.638 22.386-3.94-3.377-5.242-8.329-3.67-14.325 1.824-6.959 8.392-10.933 13.722-11.68.335-.047.665-.08.989-.103v.001l32.678-23.552c-.956-3.276-3.756-12.335-6.808-17.083-4.625-7.2-10.396-11.685-16.796-13.11a19.07 19.07 0 011.6 1.36c3.758 3.598 5.517 7.918 5.595 8.11l2.199 5.845c.699 1.858-.422 4.006-2.5 4.787-.992.375-2.062.385-3.004.027-.097-.037-.18-.092-.271-.135l.094.25c.663 1.763-.322 3.771-2.196 4.641 2.17 7.482-.485 12.672-.6 12.891a.493.493 0 01-.36.252c-.006.002-.01.01-.015.011a.496.496 0 01-.552-.153c-1.74-2.102-4.867-4.215-6.633-5.32l1.734 4.61c.833 2.213-.173 4.647-2.242 5.426-2.07.776-4.431-.39-5.264-2.605l-4.545-12.083c-1.7-1.198-4.068-2.278-6.86-3.126-.578.616-1.1 1.17-1.47 1.558-1.415 1.488-3.628 1.753-5.384.65-1.408-.887-2.05-2.06-1.968-3.542-.17-.017-.347-.03-.511-.047-.72-.075-1.396-.147-2.072-.113-1.178 2.035-9.907 17.907-5.528 34.172M85.8 299.228c-2.014 5.692-8.406 10.918-18.186 9.767-10.498-1.24-12.892-9.083-13.387-11.554-.884 1.241-.651 3.192.679 5.376 3.379 5.548 13.508 11.67 24.514 7.195 3.182-1.293 5.7-3.949 7.09-7.479 1.52-3.857 1.44-8.117-.215-11.688-.59-1.27-1.51-2.46-2.61-3.485 2.772 3.431 3.6 7.673 2.115 11.868m6.98 8.613a32.33 32.33 0 003.03-6.06 24.057 24.057 0 001.009-5.704l-20.805-21.78c-.016-.018-.023-.042-.037-.06-.073.008-.144.011-.217.022-5.012.702-11.184 4.426-12.893 10.942-1.862 7.105.595 12.63 6.919 15.56a.493.493 0 01.218.014c3.595 1.1 6.989.73 9.559-1.037 2.135-1.468 3.514-3.83 3.688-6.323.313-4.469-2.986-8.364-5.438-9.144-1.781-.32-4.251-.227-6.555 1.733a.502.502 0 01-.65-.762c2.063-1.752 4.56-2.42 7.253-1.97.008 0 .013-.007.02-.007.047 0 .094.007.142.021.022.006.045.017.067.024.099.02.196.027.296.05 3.687.808 7.23 3.647 8.815 7.064 1.77 3.818 1.859 8.365.24 12.476-1.491 3.786-4.206 6.641-7.644 8.04-11.545 4.69-22.187-1.763-25.745-7.602-1.25-2.054-1.636-3.972-1.156-5.462-3.401 2.091-4.375 5.225-4.803 7.53-.047.506-.608 7.925 6.158 10.672 5.853 1.807 12.378 2.918 18.028 2.483 6.969-.535 14.744-2.294 20.502-10.72m8.372 2.505a50.936 50.936 0 018.057-1.298L97.748 297.05a24.904 24.904 0 01-.882 4.693c-.003.05-.005.1-.024.148-.026.073-.058.142-.086.215a20.3 20.3 0 01-1.64 3.886c-.48.857-.981 1.642-1.493 2.394-2.108 3.294-4.778 6.123-8 8.475 3.953-2.395 9.228-4.954 15.53-6.514m60.278 23.014a390.136 390.136 0 00-3.617-3.414c-22.912-21.247-43.304-21.865-56.377-18.64a53.634 53.634 0 00-9.802 3.477c5.199-1.669 11.472-2.813 18.287-2.813 11.928 0 25.486 3.49 37.709 13.733 4.057 3.401 7.767 6.9 11.354 10.284 10.116 9.543 18.108 17.078 25.349 14.198a10.198 10.198 0 002.036-1.075c-7.028 1.287-16.863-8.065-24.94-15.75m171.16-22.08c-13.058-3.222-33.433-2.598-56.364 18.666a403.56 403.56 0 00-3.613 3.411c-8.08 7.688-17.918 17.04-24.945 15.751.593.411 1.27.771 2.038 1.077 7.249 2.88 15.234-4.657 25.35-14.2 3.587-3.383 7.296-6.882 11.353-10.282 12.225-10.245 25.78-13.734 37.71-13.734 6.856.001 13.16 1.16 18.379 2.845a53.589 53.589 0 00-9.908-3.534m5.783-2.9a32.151 32.151 0 01-1.49-2.39 20.306 20.306 0 01-1.636-3.874c-.03-.077-.062-.149-.09-.226a.484.484 0 01-.023-.15 24.764 24.764 0 01-.88-4.692l-11.332 11.863c3.626.158 6.959.671 9.908 1.4a54.381 54.381 0 0110.009 3.56 30.98 30.98 0 01-4.466-5.492m45.534-2.974c-.43-2.304-1.401-5.438-4.804-7.529.48 1.49.095 3.408-1.156 5.462-3.557 5.84-14.198 12.294-25.743 7.601-3.44-1.398-6.154-4.252-7.645-8.039-1.62-4.11-1.531-8.658.24-12.476 1.585-3.417 5.128-6.256 8.817-7.065.099-.022.196-.03.295-.049.022-.007.044-.018.066-.024a.504.504 0 01.142-.02c.007 0 .013.006.02.006 2.692-.448 5.19.218 7.25 1.97a.5.5 0 01-.647.762c-2.304-1.96-4.773-2.053-6.554-1.733-2.451.78-5.753 4.675-5.44 9.144.175 2.492 1.554 4.856 3.69 6.323 2.568 1.766 5.967 2.134 9.558 1.037a.506.506 0 01.218-.014c6.324-2.929 8.782-8.454 6.92-15.56-1.664-6.345-7.852-10.32-13.108-10.97-.014.021-.022.047-.04.066l-20.806 21.781a24.074 24.074 0 001.012 5.711 32.39 32.39 0 003.026 6.051c5.758 8.427 13.533 10.186 20.502 10.721 5.655.432 12.176-.677 18.026-2.482 6.768-2.746 6.208-10.167 6.16-10.674m-35.595-18.042c-1.097 1.024-2.016 2.212-2.605 3.482-1.657 3.571-1.736 7.831-.216 11.69 1.39 3.528 3.908 6.184 7.09 7.477 11.004 4.475 21.134-1.648 24.513-7.194 1.33-2.184 1.563-4.135.68-5.377-.496 2.473-2.89 10.314-13.387 11.554-9.765 1.15-16.172-4.074-18.187-9.768-1.484-4.193-.657-8.433 2.112-11.864m-14.307-2.536c-1.76 1.094-3.747 2.092-5.9 2.79l8.133 5.907 3.993-4.18zm5.643-4.353a37.671 37.671 0 01-4.741 3.771l6.022 4.37 4.093-4.287zm-14.863-12.337c4.11 1.355 7.089 5.226 7.089 9.784 0 3.97-2.26 7.415-5.555 9.136 7.412-1.834 13.272-7.839 14.609-9.304-1.428-1.564-8.014-8.309-16.143-9.616m25.533 10.648l4.55-4.764-32.095-23.13v7.937zm-27.545-18.722v6.855c10.549.403 18.85 10.092 19.205 10.513a.5.5 0 010 .644c-.086.103-.65.76-1.597 1.695l5.338 3.828 3.902-4.084zm0 33.87v13.687l7.653-8.01zm8.349 4.947l4.419-4.626-8.647-6.284a19.158 19.158 0 01-4.121.618v4.1zm-9.554-30.264c-5.131 0-9.305 4.174-9.305 9.305 0 5.131 4.174 9.306 9.305 9.306 5.13 0 9.306-4.175 9.306-9.306 0-5.13-4.175-9.305-9.306-9.305m-5.83 17.795c-2.7-1.86-4.475-4.97-4.475-8.49 0-4.09 2.403-7.622 5.866-9.285-7.056 2.037-12.565 7.702-13.856 9.117 1.205 1.321 6.086 6.337 12.466 8.658m-26.061-12.39l32.095 33.6v-19.023c-10.712-.2-19.192-10.097-19.551-10.523a.5.5 0 010-.644c.359-.426 8.839-10.322 19.55-10.522v-15.73c-.028-.007-.057-.005-.085-.016a.058.058 0 00-.011-.005.488.488 0 01-.497.16zm-2.998-26.334c4.475 3.956 7.768 14.3 3.226 24.938l30.166-21.74c-4.398-1.725-21.901-7.965-33.392-3.198m2.31-1.838c2.517-.676 5.198-.962 7.905-.962 8.187 0 16.577 2.525 21.144 4.156-3.518-2.432-8.608-7.083-10.741-14.568zm11.53-26.58l1.928-2.808a22.819 22.819 0 01-4.996-2.362c1.293 1.52 2.354 3.217 3.069 5.17m-14.621-12.736c-.546-.335-1.092-.672-1.638-1.01 4.555 7.146 4.472 20.248 3.605 29.96l3.768-19.77a.498.498 0 01.774-.32l7.32 5.027.083-.12c-2.014-6.454-8.057-10.173-13.912-13.767m1.766-19.17l-15.357-7.219c-.372 4.084-.255 7.808.386 11.051.978 4.946 4.346 8.238 8.515 11.145l.01-.003c.108 0 .216.034.307.106.199.155.38.334.57.504 1.388.928 2.846 1.826 4.326 2.734 1.907 1.171 3.835 2.354 5.646 3.641a21.702 21.702 0 01-3.4-5.947c-1.761-4.657-2.081-10.033-1.003-16.012m-.868-29.633c-.571-2.958-.72-6.342-.065-9.2-3.13-12.607-8.604-24.289-15.906-33.954.137 1.251.1 2.562-.16 3.905-.13.665-.36 1.37-.662 2.087 4.22 10.017 6.459 21.282 6.459 32.621 0 8.912-1.342 17.633-3.99 25.928l15.388 7.234c.266-1.3.573-2.617.97-3.972 1.05-3.593 1.393-6.956 1.695-9.924.234-2.297.45-4.405.96-6.259-2.171-.34-3.907-4.406-4.69-8.466m10.514.964c-2.071.783-3.892 1.834-5.128 2.961-1.086.99-1.594 1.952-1.36 2.574.155.41.603.648 1.047.791.9-2.4 2.487-4.285 5.597-5.454 1.273-.478 2.454-.71 3.61-.71 1.597 0 3.008.443 4.366 1.188.297-.435.577-1.008.396-1.49-.484-1.276-4.105-1.53-8.528.14m-9.482-.913c.498 2.468 1.23 4.402 1.99 5.68.16-.795.727-1.666 1.692-2.545 1.326-1.209 3.26-2.33 5.447-3.157 2.212-.836 4.297-1.249 5.982-1.248 1.146 0 2.098.197 2.787.574a11.79 11.79 0 00-.173-.682c-4.75-4.202-15.79.503-17.725 1.378m-.518-4.565c.026 1.173.143 2.371.335 3.55 1.746-.783 7.31-3.088 12.31-3.088 1.836 0 3.59.317 5.053 1.13a23.832 23.832 0 00-1.293-2.706c-5.917-3.255-14.481.247-16.405 1.114m.67-5.393c-.077.24-.144.488-.207.74.03.123.064.244.094.367l-.198.048a17.193 17.193 0 00-.356 3.14c1.764-.77 6.017-2.398 10.455-2.398 1.696 0 3.418.24 5.035.855a25.719 25.719 0 00-1.935-2.649c-4.097-2.805-12.458-.238-12.888-.103m.46-1.176c1.346-.369 4.163-1.03 7.046-1.03 1.228 0 2.465.126 3.608.44-.318-.292-.64-.572-.967-.827a.498.498 0 01-.58-.39l-.007-.035c-1.982-1.376-4.074-1.979-6.023-1.242-1.397.528-2.397 1.636-3.076 3.084m-38.33-53.455c5.233 3.057 9.285 5.971 14.079 11.333a9.995 9.995 0 012.006 1.256c1.78 1.462 3.396 3.8 4.19 6.59 7.685 9.671 13.504 21.495 16.91 34.323.669-1.656 1.72-2.99 3.239-3.77-6.584-22.748-20.49-41.94-38.264-52.843a22.827 22.827 0 00-2.16 3.111m-12.51 9.457h.03c2.67 0 5.256.863 7.425 2.503.516.391.985.825 1.427 1.281-.327-3.067-.277-8.126 2.389-13.109 4.764-8.907 14.53-12.776 17.456-13.765-1.75-1.477-7.075-5.202-13.765-2.599a31.46 31.46 0 00-2.01.864c-.011.095-.012.19-.025.284a12.517 12.517 0 01-4.881 8.322 12.53 12.53 0 01-6.412 2.487c-2.145 4.935-2.103 10.1-1.633 13.732m-17.416-7.35c.08.988 2.378 3.731 4.614 6.395 1.37 1.636 2.906 3.473 4.28 5.29a9.982 9.982 0 017.52-4.288c-.458-3.61-.492-8.66 1.474-13.579-2.29-.396-13.901-1.956-17.888 6.182m4.573-6.416c-.31.366-.618.733-.924 1.098 2.859-1.674 6.25-2.177 9.074-2.232a10.282 10.282 0 01-4.024-3.922c-1.337 1.743-2.804 3.49-4.126 5.056m-15.856-.646c3.08 3.648 4.823 5.773 4.823 7.001 0 1.243-1.757 3.4-4.861 7.1-1.448 1.726-3.084 3.678-4.504 5.58a9.839 9.839 0 011.188 4.387h21.773a9.84 9.84 0 011.199-4.408c-1.416-1.896-3.045-3.839-4.488-5.559-2.777-3.31-4.465-5.379-4.793-6.669a.501.501 0 01-.085-.547c.016-.034.035-.064.05-.097.175-1.255 1.873-3.333 4.79-6.788 1.41-1.67 2.99-3.548 4.386-5.396a10.034 10.034 0 01-.833-4.177h-22.225a10.043 10.043 0 01-.824 4.154c1.4 1.855 2.987 3.741 4.404 5.42m.373 1.998c-.375-.448-.755-.9-1.138-1.353-1.326-1.572-2.8-3.326-4.141-5.076a10.26 10.26 0 01-4.05 3.945c2.93.074 6.44.641 9.329 2.484m-13.004 12.46c.227.02.455.04.684.071a9.98 9.98 0 016.846 4.236c1.379-1.823 2.92-3.668 4.296-5.309 2.068-2.465 4.18-4.989 4.55-6.138-.002-.006-.008-.01-.011-.016-3.205-6.976-11.876-7.076-16.071-6.677l-.014.002c-.024.003-.05.003-.074.007a26.06 26.06 0 00-1.714.222c1.999 4.932 1.964 9.993 1.508 13.602m-12.273-9.37c2.553 4.771 2.579 9.901 2.163 13.337a12.586 12.586 0 011.653-1.51 12.258 12.258 0 017.423-2.505l.03.001c.469-3.626.507-8.794-1.666-13.736a12.524 12.524 0 01-6.378-2.483 12.529 12.529 0 01-4.881-8.322c-.013-.094-.013-.189-.025-.284a32.16 32.16 0 00-2.011-.864c-6.672-2.597-12.007 1.123-13.763 2.6 2.927.99 12.69 4.86 17.455 13.765m-38.767 53.834c3.394-13 9.37-25.126 17.362-35.165.828-2.624 2.38-4.816 4.08-6.213a9.97 9.97 0 011.773-1.14c4.87-5.47 8.962-8.405 14.279-11.504a22.989 22.989 0 00-2.205-3.15c-17.876 10.906-31.858 30.191-38.446 53.053 1.525.871 2.532 2.344 3.157 4.12m-8.353-1.544c2.882 0 5.698.662 7.044 1.03-.68-1.448-1.68-2.555-3.077-3.083-2.467-.933-5.162.274-7.575 2.494 1.142-.314 2.379-.44 3.608-.44m-2.284 4.103c4.438 0 8.69 1.627 10.457 2.397-.044-1.544-.258-3.01-.668-4.295-.447-.14-8.796-2.7-12.888.104a25.563 25.563 0 00-1.934 2.65c1.616-.617 3.337-.856 5.033-.856m-2.187 3.958c5 0 10.565 2.305 12.31 3.088.193-1.179.31-2.378.336-3.55-1.923-.868-10.48-4.372-16.405-1.115-.53.96-.96 1.868-1.293 2.705 1.462-.812 3.216-1.128 5.052-1.128m-3.174 2.844h.17c1.763 0 3.886.436 6.003 1.237 2.186.827 4.122 1.948 5.448 3.157.964.88 1.53 1.75 1.689 2.545.76-1.278 1.493-3.212 1.99-5.679-1.933-.874-12.973-5.58-17.723-1.379-.067.236-.125.464-.173.683.637-.348 1.51-.546 2.596-.564m12.307 7.707c.235-.622-.273-1.584-1.36-2.575-1.235-1.126-3.056-2.177-5.128-2.96-2.071-.783-4.138-1.206-5.802-1.172-1.471.025-2.49.41-2.724 1.031-.183.483.098 1.057.396 1.491 1.358-.745 2.769-1.188 4.366-1.189 1.156 0 2.337.233 3.609.711 3.11 1.17 4.696 3.054 5.597 5.455.444-.143.892-.383 1.046-.792m18.629 14.888c-2.646-8.294-3.987-17.015-3.987-25.928 0-11.443 2.273-22.815 6.569-32.9a10.344 10.344 0 01-.546-1.809 13.002 13.002 0 01-.118-4.197c-7.605 10.05-13.237 22.056-16.332 34.865.504 2.721.34 5.835-.19 8.583-.781 4.06-2.516 8.125-4.688 8.465.508 1.853.726 3.962.96 6.258.3 2.968.643 6.332 1.695 9.925.409 1.397.723 2.755.993 4.094zm-13.954 26.564a188.01 188.01 0 003.192-1.99c.039-.032.074-.07.114-.1.028-.024.064-.019.095-.034 4.983-3.222 9.21-6.716 10.327-12.362.654-3.307.769-6.937.384-11.048l-15.605 7.337c1.05 5.932.722 11.266-1.027 15.891a21.677 21.677 0 01-3.878 6.498c2.025-1.503 4.223-2.857 6.398-4.192m-13.275 14.28l6.652-4.568a.504.504 0 01.474-.05c.156.064.27.203.3.37l2.727 14.313c-.463-8.48.098-17.992 3.878-23.636l-.233.143c-5.751 3.53-11.68 7.183-13.798 13.427m-1.032-.066c.762-2.384 2.02-4.404 3.602-6.176a22.831 22.831 0 01-5.89 2.844zm2.817 24.993c2.95 0 5.874.332 8.583 1.15l-18.607-11.562c-2.056 7.22-6.863 11.802-10.36 14.301 4.699-1.625 12.633-3.889 20.384-3.889m7.29 27.682c-4.798-10.73-1.614-20.9 2.923-24.883-11.298-4.685-28.387 1.261-33.142 3.102zm112.419-166.91c-3.975 2.493-5.233 6.088-3.54 10.122.81 1.93 2.312 3.221 4.229 3.637 1.832.397 3.805-.079 5.032-1.214 2.054-1.9 2.22-5.075 1.439-6.466-.672-.896-1.825-1.889-3.685-1.98a.5.5 0 01.024-1l.025.001c1.803.088 3.322.91 4.419 2.364.022.024.047.043.064.071.005.01.008.021.013.03.038.052.08.1.117.153 1.402 2.048 1.82 5.002 1.043 7.351-.866 2.616-2.861 4.823-5.475 6.058-2.412 1.14-4.99 1.282-7.263.407a14.369 14.369 0 01-3.193-1.722c-.25.401-.515.796-.804 1.177a15.48 15.48 0 01-1.244 1.428c4.199 3.314 7.814 4.685 14.416 2.595 4.856-1.539 8.9-6.61 9.63-10.38.965-4.977-1.375-9.48-4.121-11.736a9.18 9.18 0 00-1.986-1.222l-.001.001-.003-.003c-2.677-1.234-6.24-1.489-9.136.328m5.55-2.274l-.01.01c.732.054 1.45.173 2.142.356-2.85-3-5.491-5.172-8.372-7.117a64.612 64.612 0 016.24 6.751m-12.285 4.503c.679.96 1.218 2.012 1.597 3.133.429-2.418 1.985-4.565 4.607-6.21 1.49-.934 3.139-1.357 4.774-1.426-2.793-3.415-5.867-6.473-9.16-9.114-2.797 5.595-2.255 11.206-1.818 13.617m14.267 9.612c-.307.513-.665 1.007-1.131 1.438-1.46 1.35-3.784 1.92-5.924 1.457-2.245-.487-4-1.988-4.94-4.227-.003-.01-.005-.019-.01-.029a15.149 15.149 0 01-.832 4.302c3.254 2.33 7.19 2.6 10.11.65a6.83 6.83 0 002.727-3.59m-2.171 4.422c-3.21 2.144-7.492 1.923-11.05-.519-.172.404-.362.801-.57 1.19a13.323 13.323 0 003.06 1.666c2.016.777 4.314.645 6.478-.378 2.23-1.054 3.953-2.892 4.797-5.075a7.815 7.815 0 01-2.715 3.116m-26.824-9.618c.8 0 1.453.653 1.453 1.454v1.906c0 .804-.652 1.457-1.453 1.457h-3.244a7.048 7.048 0 006.645 2.804c1.467-.204 2.788-1.012 3.72-2.277a5.944 5.944 0 001.173-3.44 8.829 8.829 0 00-.068-.737v-.039c-1.566-2.049-4.16-3.227-6.88-2.852a.499.499 0 11-.137-.99 8.338 8.338 0 011.152-.08c4.113.001 7.717 3.044 8.302 7.235.778 5.657-3.186 10.895-8.835 11.676-6.821.936-13.388-4.23-14.428-11.3h-3.39c2.584 8.334 10.903 13.661 19.652 12.45a14.2 14.2 0 009.449-5.528 14.215 14.215 0 002.765-10.605 11.269 11.269 0 00-2.07-5.129l-.018.003-.006-.033a11.386 11.386 0 00-2.301-2.33 11.285 11.285 0 00-8.401-2.192c-4.324.6-7.58 4.24-7.73 8.547zm7.08 6.894a6.44 6.44 0 01-3.542 1.718 8.05 8.05 0 01-7.996-3.795h-6.596c1.953 4.484 6.755 7.198 11.707 6.513 2.76-.382 5.088-2.108 6.427-4.436m-6.291 5.427c-4.741.663-9.37-1.56-11.865-5.439 1.842 5.364 7.219 9.002 12.767 8.244 5.103-.706 8.684-5.437 7.982-10.547a7.378 7.378 0 00-.398-1.557c-.316 4.611-3.845 8.656-8.486 9.3m-36.182-11.322a.456.456 0 00-.447.454v1.906c0 .252.2.457.447.457h35.393c.25 0 .453-.205.453-.457v-1.906a.449.449 0 00-.453-.454zm13.374 3.817h-6.596a8.046 8.046 0 01-7.997 3.795 6.918 6.918 0 01-3.77-1.835c1.355 2.375 3.777 4.154 6.657 4.553 4.955.691 9.753-2.029 11.706-6.513m-11.843 7.504c-4.613-.639-8.158-4.476-8.622-8.887a7.29 7.29 0 00-.263 1.144c-.702 5.111 2.879 9.842 7.984 10.548 3.089.424 6.197-.467 8.74-2.516a12.724 12.724 0 004.015-5.71 12.157 12.157 0 01-11.854 5.421m-15.087-11.187a14.215 14.215 0 002.765 10.605 14.197 14.197 0 009.449 5.528c8.94 1.234 17.1-3.989 19.554-12.45h-3.293c-.49 3.324-2.275 6.443-4.921 8.572-2.762 2.223-6.14 3.195-9.505 2.728-5.65-.782-9.614-6.019-8.837-11.677.586-4.19 4.19-7.235 8.304-7.235.38 0 .764.027 1.15.081a.5.5 0 11-.136.99c-2.822-.388-5.494.884-7.04 3.063-.18 1.434.238 2.881 1.187 4.08.944 1.195 2.329 1.997 3.798 2.202a7.058 7.058 0 006.644-2.804h-5.563a1.453 1.453 0 01-1.447-1.457v-1.906c0-.8.649-1.454 1.447-1.454h6.97c-.151-4.308-3.406-7.948-7.73-8.547a11.272 11.272 0 00-8.4 2.192 11.269 11.269 0 00-4.396 7.49m-9.951-10.063c1.674.052 3.369.476 4.896 1.434 2.643 1.658 4.19 3.786 4.605 6.216.326-.965.777-1.875 1.326-2.724.57-3.009 1.095-8.772-1.584-14.106-3.327 2.658-6.43 5.74-9.243 9.18m-1.297.022l-.018-.014A64.636 64.636 0 01179 96.632c-2.9 1.957-5.557 4.145-8.427 7.175a11.78 11.78 0 012.2-.408m9.22 21.794c-2.274.875-4.852.733-7.264-.407-2.613-1.235-4.608-3.442-5.474-6.058-.78-2.349-.36-5.303 1.042-7.35.037-.055.079-.102.117-.154.005-.009.008-.02.013-.03.01-.016.028-.023.039-.038 1.099-1.475 2.627-2.308 4.445-2.397h.024a.5.5 0 01.025.999c-1.861.091-3.013 1.084-3.686 1.98-.781 1.39-.614 4.564 1.44 6.466 1.14 1.055 2.775 1.541 4.366 1.294 1.928-.296 3.635-1.587 4.808-3.636.025-.044.06-.076.096-.109 1.645-4.115.42-7.605-3.55-10.094-3.697-2.32-8.492-1.27-11.125.896-2.746 2.255-5.086 6.76-4.122 11.736.73 3.77 4.775 8.841 9.63 10.38 7.083 2.243 10.93.138 14.417-2.594-.438-.45-.86-.92-1.245-1.43a15.565 15.565 0 01-.804-1.176 14.324 14.324 0 01-3.192 1.722m1.746-4.756a15.126 15.126 0 01-.831-4.299l-.01.024-.083-.034a.486.486 0 01-.06.23c-1.327 2.32-3.288 3.785-5.523 4.128-1.893.293-3.835-.288-5.197-1.548-.435-.402-.774-.86-1.07-1.336a6.788 6.788 0 002.625 3.408c2.873 1.942 6.915 1.696 10.149-.573m-10.71 1.403a7.771 7.771 0 01-2.84-3.485c.006.02.008.04.015.06.78 2.356 2.586 4.35 4.952 5.467 2.162 1.023 4.463 1.157 6.477.378a13.316 13.316 0 003.06-1.666c-.21-.39-.4-.789-.573-1.195-3.54 2.378-7.935 2.574-11.09.441m9.272 145.826c1.722-1.608 3.208-2.997 4.574-3.967 2.518-1.788 4.893-2.367 6.914-2.367.258 0 .492.033.738.05a.513.513 0 01.225-.03c1.962.194 4.719.967 7.914 1.863 4.61 1.293 9.839 2.757 13.897 2.782l.097.001c3.908 0 8.47-1.407 12.498-2.649 2.729-.84 5.09-1.567 6.846-1.736a10.52 10.52 0 011.783-.165c2.019 0 4.396.58 6.915 2.368 1.365.97 2.85 2.358 4.573 3.966 7.859 7.345 19.728 18.434 38.887 5.868.02-.022.039-.047.062-.065a.503.503 0 01.228-.179c5.36-11.082 1.675-22.05-3.013-25.459-.006-.004-.007-.01-.013-.016a.493.493 0 01-.146-.176c-.003-.006-.002-.013-.005-.019-.006-.014-.006-.029-.01-.044a.491.491 0 01-.02-.208c.002-.012-.005-.023-.003-.036.067-.348 6.48-34.407-3.794-43.735-4.617-3.113-8.634-6.746-9.736-12.325-.7-3.53-.816-7.587-.347-12.057.002-.017.01-.03.014-.048.004-.018 0-.037.007-.055 2.703-8.32 4.075-17.082 4.075-26.039 0-10.892-2.102-21.707-6.048-31.393-1.768 3.267-5.083 6.568-9.06 7.828-7.757 2.457-11.76.093-15.44-2.84a15.18 15.18 0 01-8.144 3.778c-8.844 1.231-17.286-3.877-20.38-12.042-2.961 8.281-11.238 13.298-20.291 12.042a15.184 15.184 0 01-8.147-3.78c-4.453 3.49-8.494 5.041-15.437 2.842-4.077-1.293-7.457-4.726-9.19-8.072-4.01 9.747-6.143 20.654-6.143 31.637 0 8.958 1.37 17.72 4.073 26.04a.503.503 0 01.018.202c0 .003.003.006.003.01.47 4.468.355 8.376-.352 11.947-1.196 6.048-5.815 9.81-10.911 13.1-8.531 6.878-5.953 29.234-4.417 38.677l.714 3.748c.01.051-.01.097-.015.147l.078.378c.002.011-.004.022-.003.033a.481.481 0 01-.016.216c-.005.016-.005.031-.011.046-.003.007-.002.014-.005.022a.497.497 0 01-.147.176c-.006.005-.007.012-.013.016-4.76 3.462-8.348 14.22-2.703 25.416a.488.488 0 01.047.238c19.094 12.452 30.937 1.396 38.78-5.935m22.156 14.44c2.464-4.379 2.782-9.342.85-13.278a10.69 10.69 0 00-4.39-4.656c3.332 3.483 3.943 9.813 2.134 14.48-2.056 5.304-7.5 8.937-11.163 8.937h-.1a7.243 7.243 0 003.316.697c3.657-.06 7.24-2.429 9.353-6.18m21.792.605c-2.626-4.665-2.954-9.976-.877-14.208a11.768 11.768 0 013.063-3.887c-3.873 1.184-8.137 2.392-11.878 2.381-4.037-.024-9.092-1.4-13.634-2.672a11.748 11.748 0 013.282 4.062c2.077 4.232 1.749 9.543-.877 14.208-1.068 1.897-2.492 3.461-4.114 4.603.842-.222 1.713-.46 2.6-.705 4.165-1.146 8.885-2.445 12.618-2.445h.012c3.818.003 7.986 1.297 11.663 2.44.652.201 1.293.401 1.923.59-1.484-1.118-2.787-2.6-3.781-4.367m2.276-3.944c-1.81-4.666-1.198-10.997 2.135-14.48a10.695 10.695 0 00-4.391 4.657c-1.931 3.935-1.613 8.9.85 13.277 1.838 3.264 4.79 5.477 7.935 6.04.043.004.09.015.133.02a9.1 9.1 0 001.286.122 7.595 7.595 0 003.272-.7c-3.638.033-9.154-3.604-11.22-8.936m11.357-8.18c1.496.533 2.913 1.594 4.172 2.546.478.361.938.71 1.377 1.01.198.134.529.386.975.727 11.215 8.578 20.808 12.052 28.519 10.325 2.736-.613 5.22-1.895 7.439-3.83-2.28 1.598-4.778 2.64-7.485 3.1-8.072 1.372-17.681-2.27-28.572-10.832l-.326-.257c-2.287-1.787-4.298-2.7-6.1-2.79m-1.954 9.451a.5.5 0 01-.673.216c-1.185-.609-3.343-3.539-3.172-6.308.049-.803.317-1.779 1.133-2.633a.483.483 0 01.146-.173c.049-.035.098-.057.147-.09.476-.42 1.086-.804 1.91-1.106a6.252 6.252 0 012.174-.385c2.099 0 4.412 1.003 7.004 3.03l.329.258c10.659 8.38 20.007 11.954 27.786 10.633 4.65-.792 8.67-3.394 11.976-7.739-18.624 10.95-30.285.071-38.095-7.227-1.695-1.583-3.16-2.952-4.468-3.882-2.891-2.053-5.547-2.417-7.725-2.092a.497.497 0 01-.192.056c-.121.011-.253.03-.381.046-.881.186-1.676.475-2.36.802-4.411 2.104-6.284 9.096-4.01 14.962 1.874 4.83 7.006 8.38 10.32 8.3 1.005-.02 1.792-.3 2.364-.827a7.21 7.21 0 00.628-.862c.229-.456.387-.994.453-1.636.404-3.932-2.494-9.539-5.255-10.168-.76-.174-1.557.096-2.023.69-.643.82-.595 2.081.14 3.55.01.017.009.037.016.055.559.94 1.214 1.652 1.613 1.857a.499.499 0 01.215.673m-88.712 1.212c2.217 1.936 4.7 3.217 7.438 3.83 7.713 1.724 17.305-1.748 28.518-10.325.447-.342.776-.593.974-.728.439-.299.899-.647 1.376-1.009 1.26-.952 2.678-2.013 4.174-2.548-1.8.091-3.812 1.005-6.1 2.793l-.33.258c-10.89 8.56-20.5 12.203-28.568 10.828-2.707-.46-5.204-1.5-7.482-3.099m7.649 2.114c7.772 1.33 17.123-2.25 27.784-10.629l.332-.26c2.594-2.028 4.906-3.032 7.005-3.032a6.27 6.27 0 012.174.385c.824.302 1.434.687 1.91 1.107.049.033.098.055.147.09.064.045.11.106.145.171.816.854 1.085 1.83 1.135 2.633.17 2.77-1.99 5.7-3.175 6.31a.5.5 0 01-.457-.89c.399-.205 1.055-.92 1.614-1.859.007-.018.006-.036.015-.053.735-1.469.784-2.73.139-3.552-.464-.592-1.26-.86-2.02-.689-2.762.63-5.661 6.236-5.257 10.168.066.646.226 1.187.458 1.646a7.5 7.5 0 00.608.84c.574.537 1.366.82 2.379.84 3.342.073 8.448-3.47 10.32-8.299 2.273-5.867.4-12.86-4.008-14.964-2.453-1.169-6.293-1.91-10.66 1.19-1.31.93-2.773 2.297-4.468 3.881-7.807 7.297-19.47 18.18-38.094 7.228 3.305 4.344 7.323 6.945 11.974 7.738m-46.638-16.454c10.713.2 19.19 10.096 19.55 10.522a.5.5 0 010 .644c-.36.426-8.837 10.322-19.55 10.523v19.022l32.095-33.599-31.627-22.794-.175.074a.493.493 0 01-.293.024zm6.035 19.502c6.38-2.32 11.259-7.337 12.464-8.658-1.291-1.415-6.8-7.08-13.855-9.117 3.463 1.663 5.866 5.194 5.866 9.285 0 3.52-1.776 6.63-4.475 8.49m-15.135-8.49c0 5.131 4.174 9.306 9.304 9.306s9.306-4.175 9.306-9.306c0-5.13-4.175-9.305-9.306-9.305-5.13 0-9.304 4.174-9.304 9.305m-4.034 6.323a37.601 37.601 0 01-4.741-3.77l-5.374 3.854 4.094 4.286zm6.816 3.377c-2.16-.697-4.151-1.698-5.915-2.795l-6.225 4.518 3.994 4.181zm1.776-.562c-3.298-1.72-5.558-5.168-5.558-9.138 0-4.558 2.978-8.429 7.088-9.784-8.13 1.307-14.715 8.052-16.142 9.616 1.335 1.465 7.193 7.474 14.612 9.306m-4.111 12.55l7.653 8.011v-13.688zm7.653-6.92v-4.1a19.268 19.268 0 01-4.104-.614l-8.663 6.28 4.419 4.625zm0-33.86v-7.939l-32.094 23.131 4.55 4.764zM82.38 279.513l3.902 4.084 5.338-3.828a27.45 27.45 0 01-1.597-1.695.5.5 0 010-.644c.355-.42 8.656-10.11 19.205-10.513v-6.855zm44.54-54.208l-7.165 4.917 25.3 15.721a129.05 129.05 0 01-.581-3.33l-4.945-25.963-7.104 4.877a.504.504 0 01-.696-.13l-3.12-4.544a24.307 24.307 0 01-6.306.844l4.745 6.913a.498.498 0 01-.128.695m178.032-.695l4.754-6.926a24.256 24.256 0 01-6.261-.91l-2.555 3.721a.491.491 0 01-.292.425l-.328.477a.496.496 0 01-.695.13l-7.103-4.877-5.588 29.33 25.362-15.758-7.165-4.917a.497.497 0 01-.129-.695m72.036 21.806c-1.754 1.103-3.97.836-5.383-.65-.37-.389-.892-.942-1.471-1.558-2.79.847-5.16 1.927-6.858 3.126l-4.548 12.087c-.832 2.212-3.192 3.38-5.262 2.6-2.068-.778-3.075-3.212-2.243-5.425l1.735-4.61c-1.767 1.105-4.894 3.217-6.633 5.32a.5.5 0 01-.553.153c-.004-.002-.006-.007-.011-.008a.495.495 0 01-.39-.255c-.115-.219-2.771-5.414-.595-12.9-1.86-.877-2.834-2.876-2.175-4.632l.094-.249c-.091.043-.173.097-.27.134-.943.358-2.012.348-3.004-.027-2.078-.78-3.2-2.929-2.5-4.788l2.204-5.854c.073-.182 1.832-4.502 5.59-8.1.51-.49 1.086-.973 1.7-1.439-6.432 1.317-12.11 5.738-16.897 13.19-3.05 4.746-5.851 13.805-6.807 17.082l32.678 23.551c.248.017.499.041.753.072 5.419.667 12.099 4.616 13.958 11.711 1.573 6 .269 10.953-3.676 14.331 6.055-2.56 17.017-8.926 20.643-22.392 4.38-16.265-4.35-32.137-5.526-34.172-.674-.034-1.354.038-2.073.113-.164.017-.342.03-.512.047.082 1.481-.56 2.655-1.968 3.542m-13.126-.64c1.525-.895 3.397-1.702 5.514-2.376a2116.34 2116.34 0 01-3.295-3.52zm-17.374 9.876c2.446-2.437 6.06-4.612 7.04-5.183l.576-1.53c-.087.041-.166.093-.258.13-.94.358-2.002.351-2.988-.02a4.18 4.18 0 01-2.336-2.14c-1.486 3.017-1.912 6.78-2.034 8.743m1.704-10.204a3.25 3.25 0 01.17-1.098 4.136 4.136 0 01-2.64.274c-1.274 4.43-.752 8.046-.176 10.14.207-2.424.827-6.333 2.646-9.316m-4.655-5.432c-.504 1.343.355 2.913 1.915 3.5 1.508.568 3.123.004 3.685-1.249l2.06-5.473.935.353-1.983 5.271c-.006.027-.004.054-.014.081-.017.045-.046.083-.065.127l-.751 1.996a2.302 2.302 0 00-.131 1.048l.025.016c-.006.01-.01.02-.016.028.123 1.011.876 1.971 2.013 2.4.759.284 1.568.292 2.278.02.689-.264 1.202-.762 1.442-1.4.002-.005.007-.009.009-.014l2.449-6.51.936.35-6.165 16.388c-.638 1.697.106 3.553 1.659 4.137 1.552.585 3.336-.32 3.975-2.016l8.622-22.917.935.353-.876 2.33c.864.925 4.44 4.754 5.856 6.241 1.08 1.138 2.779 1.342 4.126.493 1.14-.717 2.157-1.809 1.05-4.464-.907-2.178-2.658-6-4.065-9.073-.867-1.893-1.612-3.518-1.968-4.34-1.918-4.434-5.041-7.548-9.282-9.253-15.144-6.085-21.86 10.121-22.135 10.803l-2.2 5.844c-.504 1.343.356 2.913 1.916 3.501.768.288 1.584.297 2.299.027.693-.263 1.208-.759 1.448-1.397l.008-.013 1.525-4.052.936.351zm44.347 58.851a.5.5 0 11-.504-.863c10.778-6.289 16.919-19.052 15.283-31.758-1.272-9.872-6.957-17.52-15.842-21.637 7.883 5.52 12.562 13.755 13.017 23.273.469 9.826-3.797 19.518-10.378 23.568a.501.501 0 01-.524-.852c6.284-3.867 10.357-13.189 9.903-22.668-.413-8.625-4.42-16.163-11.206-21.476 5.37 5.64 8.426 13.022 8.556 21.077.115 7.185-2.273 13.964-5.811 16.485a.5.5 0 11-.58-.814c3.285-2.342 5.5-8.779 5.39-15.654-.152-9.443-4.45-17.936-11.861-23.626 2.553 5.006 8.55 18.945 4.705 33.223-5.234 19.441-25.298 24.51-25.5 24.56a.474.474 0 01-.204.004c-.014.006-.025.017-.04.021-3.893 1.19-7.591.775-10.416-1.169-2.385-1.638-3.925-4.283-4.121-7.077-.127-1.812.274-3.518.964-5.008-2.246 3.075-2.863 6.771-1.573 10.417 1.882 5.318 7.91 10.196 17.127 9.108 11.602-1.37 12.592-10.984 12.628-11.393a.5.5 0 01.484-.447.5.5 0 01.466-.047c3.71 1.563 5.977 4.332 6.908 8.453 4.376-2.518 31.49-19.658 17.037-49.943-3.985-8.349-11.51-10.85-16.087-11.59 10.086 4.062 16.559 12.29 17.95 23.084 1.687 13.1-4.65 26.261-15.771 32.75m-173.436 25.557c0 .615 1.017 1.3 2.475 1.3 1.458 0 2.473-.685 2.473-1.3 0-.669-1.07-2.008-2.473-2.008-1.405 0-2.475 1.34-2.475 2.008m-42.872 1.922c.24-2.334 1.014-4.243 2.246-5.66 2.705-3.563 6.759-5.546 11.603-5.632.106 0 .212-.003.32-.003.707.001 1.418.054 2.128.134l.014-.13c4.365.478 8.866 2.311 13.217 4.084 4.17 1.7 8.479 3.45 12.748 4.073.593-.958 1.775-1.796 3.07-1.796 1.3 0 2.487.844 3.077 1.806 4.184-.615 8.63-2.383 12.93-4.095 5.223-2.079 10.157-4.043 14.619-4.074v.026c.249-.009.499-.028.748-.028l.322.003c4.842.086 8.894 2.07 11.598 5.63 1.234 1.418 2.008 3.327 2.248 5.662.792 7.713-4.574 18.612-11.965 20.336-1.638.385-3.115.035-4.16-.98-.705-.686-1.412-1.884-1.561-3.962a10.004 10.004 0 00-.093 2.087c.089 1.37.512 2.554 1.233 3.564 6.393 3.894 17.262-6.439 26.005-14.76 1.25-1.19 2.463-2.345 3.624-3.42 17.07-15.83 32.778-20.373 45.184-20.373.29 0 .563.022.85.027l-32.764-34.3c-3.448 6.435-8.043 10.343-13.672 11.604-8.016 1.793-17.885-1.74-29.345-10.506-.426-.326-.741-.568-.93-.696a37.07 37.07 0 01-1.417-1.039c-2.291-1.733-4.882-3.683-7.358-2.07-.41.38-.695.827-.856 1.336a3.01 3.01 0 012.95-.959c3.483.793 6.443 7.211 6.029 11.245a5.717 5.717 0 01-.551 1.974c-.007.014-.008.03-.016.043-.012.02-.027.037-.04.057a3.936 3.936 0 01-.782 1.053c-1.578 1.833-3.852 2.863-6.37 2.793a9.629 9.629 0 01-1.186-.099l-.008.001-.076-.012a9.167 9.167 0 01-.332-.052c-2.084-.27-4.491-1.005-7.045-1.798-3.61-1.12-7.7-2.39-11.366-2.394h-.012c-3.598 0-8.25 1.28-12.352 2.41-3.528.97-6.573 1.808-8.672 1.823h-.004c-.015 0-.028-.007-.042-.008-.081.003-.161.012-.241.013-2.53.042-4.797-.968-6.372-2.793a3.907 3.907 0 01-.781-1.05c-.013-.022-.03-.039-.042-.06-.008-.014-.01-.03-.016-.045a5.718 5.718 0 01-.55-1.972c-.414-4.034 2.547-10.452 6.029-11.245a3.01 3.01 0 012.95.96 3.064 3.064 0 00-.854-1.337c-2.476-1.615-5.068.337-7.36 2.071-.492.371-.965.73-1.417 1.037-.19.13-.503.37-.93.696-11.458 8.765-21.33 12.304-29.343 10.507-5.525-1.238-10.056-5.025-13.481-11.25L110.33 308.96a50.243 50.243 0 012.992-.097c12.418 0 28.125 4.542 45.17 20.35 1.162 1.076 2.376 2.232 3.628 3.422 8.74 8.318 19.6 18.65 25.999 14.76.722-1.01 1.145-2.195 1.234-3.566a9.984 9.984 0 00-.092-2.085c-.15 2.076-.854 3.273-1.56 3.96-1.043 1.013-2.521 1.363-4.161.98-7.392-1.724-12.757-12.624-11.965-20.336M42.32 283.9a.499.499 0 01-.697.117c-3.538-2.52-5.927-9.3-5.812-16.485.13-8.056 3.187-15.439 8.558-21.079-6.788 5.313-10.796 12.852-11.208 21.478-.454 9.48 3.618 18.801 9.902 22.668a.5.5 0 11-.523.852c-6.581-4.05-10.848-13.742-10.378-23.568.455-9.518 5.133-17.752 13.015-23.272-8.883 4.117-14.568 11.765-15.84 21.636-1.637 12.706 4.505 25.47 15.283 31.758a.5.5 0 11-.504.863c-11.12-6.488-17.458-19.649-15.771-32.749 1.392-10.8 7.872-19.032 17.968-23.092-4.573.733-12.11 3.228-16.104 11.598-14.454 30.285 12.659 47.426 17.036 49.943.932-4.12 3.197-6.89 6.907-8.453a.496.496 0 01.464.045.495.495 0 01.487.45c.009.1 1 10.018 12.628 11.392 9.219 1.09 15.244-3.79 17.126-9.108 1.29-3.645.673-7.339-1.57-10.413.689 1.49 1.088 3.194.962 5.005-.197 2.792-1.736 5.437-4.12 7.076-2.827 1.943-6.527 2.358-10.418 1.17-.015-.005-.025-.016-.04-.022a.486.486 0 01-.204-.005c-.201-.049-20.264-5.118-25.5-24.559-3.844-14.278 2.153-28.217 4.707-33.223-7.413 5.69-11.71 14.183-11.863 23.626-.11 6.875 2.107 13.312 5.392 15.654a.5.5 0 01.117.697m44.94-177.5c1.23-2.243 3.42-5.03 7.269-7.19 2.592-1.456 4.07-2.029 4.902-2.238-.735-1.224-2.583-4.055-5.42-6.929-5.19 4.708-6.453 12.415-6.751 16.356m-4.404 35.67c1.717 1.212 2.488 2.993 2.83 4.243l13.078-24.505c-.14-.724-.878-3.844-3.547-5.485-2.165-1.329-5.076-1.384-8.647-.159-3.721 1.275-6.851 1.19-9.302-.248-2.347-1.379-3.487-3.655-4-5.09l-12.086 25.1.008.031c3.025-.002 5.868.608 8.172 1.631 1.827.81 3.642 2.11 5.226 3.756 3.458-.945 6.244-.705 8.268.725m-8.234-30.615c.576 1.21 1.554 2.663 3.16 3.603 2.187 1.282 5.035 1.336 8.464.162 3.867-1.328 7.062-1.243 9.494.253 1.609.99 2.589 2.416 3.183 3.668l1.744-1.88c-.307-.983-1.607-4.54-4.675-5.924-2.157-.975-4.776-.684-7.781.863-7.01 3.613-11.422 1.243-13.59-.745m13.133-.144c3.288-1.694 6.199-1.99 8.65-.886 2.265 1.021 3.649 3.02 4.434 4.596l1.887-2.033c-.307-.983-1.607-4.54-4.675-5.924-2.16-.975-4.778-.683-7.782.864-7.606 3.92-13.06 3.076-15.49 2.315 1.679 1.834 5.78 4.772 12.976 1.068m-30.102 37.422c-1.498.608-2.878 1.46-3.943 2.525-2.874 2.875-4.463 6.98-4.36 11.258.097 3.916 1.597 7.387 4.225 9.772 9.082 8.243 21.074 5.9 26.319 1.722 2.084-1.66 2.998-3.488 2.559-5.017-1.33 2.185-6.424 8.997-17.065 6.468-9.864-2.344-14.212-9.672-14.145-15.896.049-4.648 2.414-8.502 6.41-10.832m-2.872 5.823c.534-1.849 1.565-3.398 2.806-4.61-3.345 2.182-5.301 5.585-5.344 9.63-.063 5.825 4.05 12.695 13.376 14.912 11.744 2.792 16.11-6.185 16.29-6.569a.495.495 0 01.61-.254.495.495 0 01.462.115c3.043 2.833 4.253 6.321 3.689 10.648 5.069-.874 37.517-7.843 34.245-42.368-.911-9.6-7.434-14.699-11.605-17.01 8.4 7.516 11.792 17.816 9.304 28.804-3.008 13.283-13.81 23.782-26.878 26.125a.5.5 0 11-.176-.984c12.678-2.274 23.158-12.465 26.078-25.36 2.283-10.08-.561-19.564-7.807-26.722 5.76 8.17 7.41 17.86 4.46 27.294-3.026 9.682-10.591 17.555-18.398 19.146a.502.502 0 01-.59-.39.502.502 0 01.39-.59c7.467-1.52 14.722-9.113 17.645-18.464 2.915-9.326 1.188-18.922-4.693-26.944 2.604 5.905 5.597 17.062-2.014 27.867-11.927 16.926-40.086 18.893-40.37 18.911a.477.477 0 01-.28-.07c-.02 0-.034.008-.053.006-4.186-.227-7.62-1.938-9.666-4.817-1.726-2.43-2.28-5.534-1.481-8.306m24.648-.354c-.52 5.484-2.831 9.46-6.668 11.652 8.983-1.629 24.92-6.057 33.05-17.598 10.13-14.377.744-29.453-.19-30.878-1.132-.518-2.438-.842-3.817-1.184l-.498-.124c.266.671.39 1.141.406 1.201a.496.496 0 01-.12.462l-2.247 2.425c.325.92.428 1.6.437 1.667a.493.493 0 01-.054.304L85.899 148.04a.5.5 0 01-.94-.203c-.002-.033-.234-3.224-2.68-4.952-1.674-1.183-4.008-1.41-6.93-.703 2.7 3.17 4.515 7.417 4.079 12.018M65.006 95.064c2.867 10.663 8.747 13.688 8.827 13.728.052.03 4.699 2.481 12.334-.183-.017-2.015.22-12.962 7.13-19.267-2.998-2.87-6.977-5.658-11.856-6.802-6.721-1.577-13.846.231-21.188 5.356 2.217 1.294 3.82 3.692 4.753 7.168M50.203 92.84l-.456 2.717a9.681 9.681 0 012.293-.294c2.757 0 6.52 1.34 8.802 7.723 1.659 4.643 4.375 6.997 8.077 6.997.843 0 1.623-.13 2.28-.296-2.738-.494-7.173-2.498-9.215-10.09-.946-3.518-2.586-5.834-4.873-6.88-2.895-1.329-6.042-.23-6.908.123m3.809-1.77c1.106 0 2.316.188 3.507.732 2.575 1.177 4.403 3.713 5.43 7.536 2.126 7.908 6.82 9.298 9.117 9.488-2.006-1.526-5.835-5.357-8.024-13.5-.947-3.52-2.586-5.835-4.873-6.883-2.895-1.328-6.042-.228-6.908.124l-.461 2.746a10.659 10.659 0 012.212-.244m64.554 10.272c-2.737-1.618-5.92-2.829-9.484-3.582-3.385-.716-6.905-.25-8.611.066a.434.434 0 01-.186.034c-.542.105-.86.186-.872.19-.046.011-.091.008-.136.007-.745.242-2.052.786-4.258 2.026-4.381 2.46-6.491 5.763-7.477 7.995a29.259 29.259 0 002.269-1.039c3.288-1.695 6.2-1.992 8.65-.887 3.994 1.802 5.256 6.642 5.308 6.847a.498.498 0 01-.118.462l-1.632 1.756.025.006c1.466.364 2.85.71 4.095 1.294.67.217 14.387 4.87 15.77 19.45 3.449 36.372-31.701 42.918-35.453 43.51-.415 1.24-2.227 5.79-6.877 7.698 3.45-.02 6.657-.314 9.284-.839 4.377-.874 8.549-2.139 12.419-3.749 2.584-4.287 6.593-8.17 11.979-11.58 3.162-2.003 5.649-4.296 7.84-6.32 1.749-1.61 3.314-3.054 4.918-4.1-1.358-1.595-.113-5.633 1.825-9.099 1.487-2.656 3.444-5.143 5.593-6.867 0-.03-.006-.06 0-.093 2.444-12.08-.364-21.06-1.873-25.885-1.93-6.176-5.95-11.525-12.998-17.3m-1.31-13.004c-1.725 2.725-4.713 6.183-8.846 6.56 1.943.672 5.135.845 8.36-2.986.09-1.179.277-2.439.487-3.574m-.376 4.951c-.487.506-.974.93-1.458 1.29a137.622 137.622 0 003.285 4.42c-1.113-2.299-1.611-4.266-1.827-5.71m35.508-15.227v-.049c-2.12.184-8.864 1.146-12.837 6.026-2.832 3.48-3.71 8.256-2.61 14.196.808 4.362 5.013 12.567 5.055 12.65a.499.499 0 01-.388.725c-.048.005-1.894.198-4.555-.06.198 1.731.373 3.496.515 5.252.437 5.315.308 10.607-.367 15.978 4.88-15.582 14.534-33.216 37.364-48.12-4.063-2.743-7.914-4.03-8.894-4.332-2.85 2.32-5.745 6.865-6.392 10.068a.498.498 0 01-.646.377c-.058-.019-5.892-2.012-6.358-9.592-.091-1.472.007-2.493.113-3.119m138.485 32.823c.042-.083 4.247-8.288 5.055-12.65 1.1-5.936.223-10.71-2.606-14.19-3.946-4.854-10.652-5.835-12.811-6.029.117.71.146 1.784.082 3.158-.347 7.592-6.3 9.581-6.36 9.6a.5.5 0 01-.643-.378c-.647-3.204-3.544-7.749-6.392-10.068-.904.278-4.252 1.404-7.953 3.726 17.01 12.236 29.087 30.863 35.344 47.36a76.781 76.781 0 01-.197-14.496c.145-1.767.319-3.508.51-5.192-2.178.1-3.621-.113-3.664-.119a.499.499 0 01-.365-.722m19.18 25.196c1.39-14.667 15.264-19.288 15.78-19.453 1.242-.583 2.623-.927 4.086-1.29l.14-.036-1.71-1.842a.498.498 0 01-.118-.462c.052-.205 1.315-5.045 5.308-6.847 2.452-1.104 5.362-.806 8.649.887.744.383 1.46.704 2.16.997-1.014-2.229-3.125-5.436-7.405-7.838-2.203-1.237-3.51-1.784-4.245-2.029-.037.002-.074.01-.111.004-.06-.012-5.946-1.06-10.648-.068-3.204.678-6.345 2.308-9.335 4.845-6.217 5.274-10.208 9.553-12.207 15.812-1.398 4.375-4.282 13.434-1.94 25.498 2.333 1.727 4.468 4.38 6.06 7.227 1.94 3.466 3.186 7.505 1.827 9.098 1.604 1.048 3.17 2.491 4.917 4.103 2.193 2.023 4.678 4.316 7.84 6.318 5.454 3.454 9.496 7.393 12.077 11.744 4.168 1.741 7.864 2.89 11.92 3.701 2.568.513 5.685.808 9.045.84-4.496-1.933-6.237-6.456-6.64-7.7-3.766-.594-38.897-7.146-35.45-43.509m44.678-20.165c-2.452 1.438-5.58 1.523-9.302.248-3.57-1.224-6.475-1.172-8.638.154-2.665 1.634-3.414 4.765-3.555 5.491l13.076 24.504c.344-1.25 1.114-3.03 2.83-4.244 2.038-1.438 4.843-1.674 8.328-.71 1.562-1.6 3.34-2.864 5.13-3.657 2.308-1.023 5.154-1.633 8.18-1.63.015-.055.028-.106.037-.146l-1.502-3.12-10.585-21.98c-.512 1.435-1.651 3.711-4 5.09m-16.835-25.699c-2.805 2.854-4.634 5.655-5.364 6.872.83.21 2.31.781 4.902 2.237 3.58 2.01 5.725 4.562 6.999 6.713-.342-3.983-1.651-11.237-6.537-15.822m-6.563 27.044l1.745 1.88c.593-1.253 1.573-2.68 3.182-3.669 2.43-1.495 5.626-1.58 9.495-.253 3.427 1.174 6.275 1.121 8.462-.162 1.608-.94 2.586-2.395 3.162-3.603-2.167 1.987-6.58 4.356-13.59.745-3.001-1.545-5.617-1.838-7.776-.866-3.063 1.38-4.371 4.942-4.68 5.928m4.263-6.837c2.452-1.105 5.362-.807 8.65.886 7.199 3.707 11.302.762 12.978-1.072-2.442.766-7.891 1.604-15.492-2.31-3.001-1.546-5.616-1.839-7.775-.868-3.064 1.38-4.371 4.943-4.681 5.928l1.886 2.031c.785-1.576 2.17-3.574 4.434-4.595m31.398-15.359c.918-3.417 2.48-5.798 4.639-7.106-7.315-5.083-14.412-6.872-21.111-5.303-4.91 1.152-8.91 3.968-11.914 6.857 6.439 6.058 6.93 16.181 6.946 18.791.034.084.065.164.095.244 7.749 2.772 12.467.273 12.54.234.059-.029 5.939-3.054 8.805-13.717m-6.192 14.622a9.36 9.36 0 002.28.296c3.7 0 6.418-2.354 8.077-6.997 2.278-6.383 6.044-7.723 8.802-7.723a9.739 9.739 0 012.291.293l-.454-2.716c-.866-.354-4.014-1.452-6.91-.124-2.286 1.047-3.925 3.363-4.872 6.881-2.04 7.59-6.476 9.596-9.214 10.09m8.25-10.349c1.027-3.823 2.854-6.359 5.429-7.536 1.192-.544 2.4-.733 3.508-.733.813 0 1.56.106 2.21.244l-.46-2.746c-.865-.352-4.011-1.453-6.908-.124-2.287 1.048-3.926 3.363-4.872 6.882-2.191 8.151-6.026 11.982-8.021 13.5 2.299-.19 6.988-1.583 9.114-9.487M356.7 142.194c-2.94-.72-5.287-.498-6.972.686-2.441 1.718-2.684 4.925-2.686 4.957a.501.501 0 01-.941.203l-13.828-25.913a.5.5 0 01-.054-.304c.01-.068.112-.747.438-1.667l-2.25-2.425a.498.498 0 01-.118-.462c.014-.057.126-.477.36-1.084l-.488.122c-1.38.342-2.686.666-3.818 1.184-.934 1.423-10.331 16.487-.19 30.877 8.127 11.536 24.063 15.967 33.049 17.598-3.836-2.193-6.148-6.168-6.667-11.65-.441-4.65 1.416-8.94 4.165-12.122m-4.63 31.928c5.245 4.18 17.235 6.522 26.319-1.72 2.628-2.386 4.128-5.856 4.224-9.773.104-4.28-1.484-8.383-4.358-11.258-1.064-1.065-2.444-1.916-3.94-2.523 3.994 2.33 6.357 6.184 6.406 10.83.067 6.224-4.282 13.552-14.145 15.896-10.646 2.532-15.735-4.279-17.064-6.467-.438 1.53.476 3.355 2.559 5.015m-2.63-6.344a.496.496 0 01.613.253c.18.384 4.552 9.364 16.29 6.57 9.328-2.217 13.44-9.087 13.377-14.912-.043-4.045-2-7.447-5.343-9.63 1.24 1.212 2.272 2.761 2.806 4.611.799 2.77.245 5.875-1.48 8.303-2.047 2.88-5.481 4.592-9.667 4.82-.016.001-.03-.005-.044-.005a.477.477 0 01-.29.068c-.283-.017-28.442-1.985-40.368-18.912-7.613-10.802-4.62-21.959-2.016-27.863-5.881 8.021-7.606 17.616-4.691 26.941 2.922 9.351 10.177 16.944 17.643 18.464a.502.502 0 01.39.59.505.505 0 01-.59.391c-7.806-1.59-15.371-9.464-18.398-19.147-2.95-9.434-1.3-19.126 4.462-27.295-7.246 7.157-10.091 16.641-7.81 26.721 2.92 12.897 13.4 23.09 26.079 25.363a.5.5 0 11-.176.984c-13.068-2.343-23.87-12.842-26.878-26.125-2.487-10.989.904-21.289 9.306-28.805-4.171 2.31-10.696 7.41-11.606 17.011-3.273 34.524 29.176 41.494 34.246 42.367-.565-4.327.645-7.816 3.688-10.648a.497.497 0 01.458-.115m39.927 143.27c13.827-8.442 22.635-20.289 26.179-35.214.372-1.569.666-3.164.897-4.777a.48.48 0 01-.066-.275c1.627-19.477-6.693-30.337-10.691-35.557-4.096-5.344-10.144-9.272-17.495-11.399-3.05-.577-6.382-.622-9.912-.116-2.542.365-4.906 1.375-6.548 2.227.229.442.455.888.658 1.36.354.817 1.095 2.435 1.959 4.32 1.41 3.08 3.165 6.911 4.079 9.104.17.407.286.791.378 1.163.185-.017.378-.032.557-.05.623-.066 1.22-.128 1.822-.128.215 0 .43.011.649.03.034-.002.144-.006.348-.006 2.317 0 14.833.568 20.51 12.464 15.247 31.944-14.507 49.613-17.775 51.43.046 1.272-.042 5.89-3.332 9.134 2.979-1.132 5.658-2.414 7.783-3.71m26.898-57.612c-.03.016-.053.037-.086.048-.023.007-.047.004-.07.008.15.597.287 1.213.418 1.838a66.694 66.694 0 00-.262-1.894m-21.018-47.98c5.368 7.82 10.004 14.572 15.318 26.08 7.14 15.46 9.199 30.857 5.953 44.53-3.607 15.193-12.567 27.25-26.63 35.834-1.808 1.104-4.013 2.196-6.458 3.198-.002.022.003.044-.003.066-.643 2.657 3.995 6.388 5.837 7.602.015.01.023.025.037.036.017.014.029.03.045.045a.481.481 0 01.118.2c.002.008.009.012.01.02.002.001 0 .004 0 .006.02.084.01.17-.015.255-.006.021-.014.038-.023.06-.011.022-.014.048-.03.07a.51.51 0 01-.112.114c-.006.005-.008.013-.014.018l-.01.006-.014.007c-1.444.957-16.617 3.496-30.98-.927a46.993 46.993 0 01-3.268-1.152c.059.06.112.117.168.176.72.614 1.125 1 1.164 1.04 1.185.856 1.95 1.945 2.147 3.205.629 4.018-4.457 8.186-11.578 9.49a22.396 22.396 0 01-4.02.373c-5.388 0-9.34-2.105-9.831-5.236a4.532 4.532 0 01.1-1.794c.005-.015.003-.03.009-.044 0-.003.01-.03.018-.05a5.14 5.14 0 01.166-.526c.49-1.676 1.638-6.792-.808-11.67-.006-.01-.005-.023-.01-.034-10.581-1.097-23.46.317-35.34 9.116-6.597 4.886-10.765 10.3-16.04 17.152-2.638 3.427-5.628 7.31-9.256 11.502-11.483 13.27-21.107 13.91-26.742 12.5-3.394-.203-7.615-2.036-12.083-3.977-4.281-1.858-8.698-3.766-12.84-4.487-.44 1.142-1.8 2.281-3.311 2.281-1.5 0-2.847-1.117-3.3-2.248-4.168.743-8.585 2.608-12.863 4.423-1.68.712-3.32 1.405-4.91 2.018a27.486 27.486 0 01-4.118 1.392l-.146.04c-.161.04-.322.08-.485.117-.705.175-1.396.322-2.065.416-8.295 2.166-18.086-2.295-26.895-12.475-3.63-4.193-6.62-8.078-9.26-11.505-5.273-6.852-9.44-12.264-16.036-17.149-11.876-8.796-24.756-10.208-35.34-9.11-.005.01-.004.018-.008.028-2.767 5.512-1.058 10.947-.8 11.695.298.787.407 1.59.282 2.39-.49 3.13-4.44 5.235-9.831 5.235-1.312 0-2.664-.126-4.02-.374-7.12-1.303-12.206-5.47-11.576-9.489.189-1.21.9-2.266 2.01-3.108.004-.005.005-.01.01-.015.02-.02.52-.5 1.412-1.248.769-.784 1.774-1.585 2.992-2.38-2.494 1.388-5.243 2.554-8.256 3.482-14.355 4.421-29.516 1.887-30.975.93l-.018-.01a.035.035 0 01-.008-.006c-.007-.004-.008-.012-.013-.017a.479.479 0 01-.114-.115c-.015-.022-.02-.048-.03-.07a.487.487 0 01-.038-.315l-.001-.007c.002-.008.01-.012.012-.02a.49.49 0 01.117-.198c.016-.017.029-.032.047-.047.014-.01.02-.026.036-.035 1.842-1.213 6.48-4.942 5.836-7.602-.005-.022 0-.043-.002-.065-2.446-1.003-4.651-2.095-6.46-3.199-14.061-8.584-23.02-20.64-26.63-35.835-3.245-13.672-1.186-29.07 5.954-44.53 5.314-11.505 9.948-18.257 15.316-26.076a618.6 618.6 0 003.653-5.365c4.108-6.122 6.952-14.414 7.494-21.775-3.816-3.404-6.906-8.202-8.077-15.509-1.366-8.524 3.256-18.525 8.43-22.517a20.537 20.537 0 015.809-3.136c-2.457-.626-5.153-2.533-6.89-7.396-1.608-4.502-3.94-6.786-6.926-6.786-2.242 0-4.068 1.333-4.087 1.347a.5.5 0 01-.757-.6l7.908-18.328c-.888-1.133-12.571-16.613-3.321-34.245 3.245-6.187 7.564-11.234 12.228-14.314-12.47-3.492-10.344-14.427-10.321-14.54.003-.01.013-.018.016-.028a.48.48 0 01.109-.199c.009-.01.015-.02.026-.03a.486.486 0 01.199-.12c.013-.005.025-.004.038-.007l.005-.002c.015-.003.03-.003.046-.005.017 0 .034-.007.05-.007.009 0 .016.008.024.008a.493.493 0 01.24.08c.027.016.045.037.068.06.027.024.062.041.084.073.024.036 2.638 3.592 13.237 3.318 2.09-.056 3.876-.284 5.943-.549 3.916-.5 8.792-1.126 17.937-.68 8.305.401 15.617 2.508 21.143 6.09 11.41 7.395 15.826 18.843 17.03 22.661 2.1-3.42 4.989-6.46 8.824-9.259 2.324-1.696 5.346-2.968 6.428-3.397a115.296 115.296 0 01-1.341-8.332c-.807-6.646 1.328-9.149 1.419-9.252.02-.024.049-.035.073-.054.019-.015.035-.03.057-.042a.493.493 0 01.324-.068c.015.003.027.015.042.02.023.005.046.003.069.013.028.011.047.032.072.047.02.014.042.025.06.041a.478.478 0 01.13.17l.007.006c0 .002 0 .003.002.004v.001c1.518 3.525 4.685 6.583 8.323 8.865a.491.491 0 01.147-.28c4.63-4.222 7.18-7.425 10.41-11.479 2.468-3.099 5.266-6.612 9.663-11.455 8.663-9.546 16.232-12 21.726-12 1.608 0 3.03.212 4.259.517 5.542 1.06 9.547 3.24 12.433 5.81.92.22 6.673 1.573 11.426 2.128.36-1.115 1.763-2.282 3.319-2.282 1.555 0 2.956 1.166 3.317 2.281 4.983-.565 11.578-2.016 12.57-2.238 2.828-2.302 6.635-4.222 11.743-5.192a17.64 17.64 0 014.213-.507c5.494 0 13.065 2.455 21.728 12 4.395 4.843 7.192 8.355 9.66 11.454 3.23 4.055 5.78 7.258 10.41 11.48a.456.456 0 01.094.126c3.888-2.317 7.324-5.512 8.925-9.228 0-.002 0-.003.002-.005 0-.002.004-.004.005-.006a.49.49 0 01.13-.17c.019-.016.04-.027.062-.04.024-.016.044-.037.07-.048.024-.01.048-.008.07-.014.016-.004.027-.016.043-.019a.493.493 0 01.323.068c.022.012.039.027.058.042.024.02.052.03.073.054.09.103 2.225 2.606 1.419 9.252a116.476 116.476 0 01-1.341 8.332c1.08.43 4.104 1.701 6.428 3.397 3.475 2.537 6.173 5.273 8.213 8.31 1.098-3.476 5.266-14.165 16.732-21.597 5.526-3.582 12.838-5.689 21.144-6.09 9.143-.445 14.016.178 17.933.68 2.067.264 3.854.493 5.946.55 10.629.272 13.214-3.283 13.236-3.315.023-.034.059-.053.088-.08.02-.02.037-.04.06-.056a.491.491 0 01.27-.089c.03 0 .062.003.094.01.004 0 .006.004.01.005.012.003.024.002.035.005a.496.496 0 01.196.116c.013.011.02.025.032.038a.49.49 0 01.106.195c.003.011.014.018.016.03.023.112 2.15 11.05-10.321 14.54 4.664 3.08 8.982 8.126 12.227 14.313 9.11 17.363-2.074 32.63-3.265 34.174l7.888 18.284a.5.5 0 01-.757.6c-.018-.014-1.844-1.347-4.087-1.347-2.987 0-5.317 2.284-6.925 6.786-1.79 5.011-4.598 6.883-7.112 7.45a20.588 20.588 0 015.996 3.197c5.173 3.992 9.794 13.993 8.428 22.518-1.166 7.28-4.238 12.07-8.035 15.472.558 7.341 3.396 15.596 7.488 21.696a575.062 575.062 0 003.652 5.361" fill="#b4985a"/><path d="M110.164 273.827a4.181 4.181 0 00-4.177 4.176 4.18 4.18 0 004.177 4.175 4.18 4.18 0 004.175-4.175 4.18 4.18 0 00-4.175-4.176m5.175 4.176a5.18 5.18 0 01-5.175 5.175 5.182 5.182 0 01-5.177-5.175 5.182 5.182 0 015.177-5.176 5.181 5.181 0 015.175 5.176m206.498-4.176a4.18 4.18 0 00-4.176 4.176 4.18 4.18 0 004.176 4.175 4.18 4.18 0 004.175-4.175 4.18 4.18 0 00-4.175-4.176m0 9.35a5.182 5.182 0 01-5.176-5.174 5.182 5.182 0 015.176-5.176 5.182 5.182 0 015.175 5.176 5.182 5.182 0 01-5.175 5.175M216.922 344.35c1.695 0 3.074-1.508 3.074-3.362 0-1.855-1.379-3.363-3.074-3.363-1.694 0-3.073 1.508-3.073 3.363 0 1.854 1.38 3.363 3.073 3.363m0-7.726c2.246 0 4.074 1.957 4.074 4.363 0 2.405-1.828 4.363-4.074 4.363-2.246 0-4.073-1.958-4.073-4.363 0-2.406 1.827-4.363 4.073-4.363m0-3.08c1.695 0 3.074-1.078 3.074-2.404 0-1.325-1.379-2.404-3.074-2.404-1.694 0-3.073 1.079-3.073 2.404 0 1.326 1.38 2.404 3.073 2.404m0-5.808c2.246 0 4.074 1.527 4.074 3.404s-1.828 3.404-4.074 3.404c-2.246 0-4.073-1.527-4.073-3.404s1.827-3.404 4.073-3.404m0 25.19c1.684 0 3.053-1.071 3.053-2.387 0-1.317-1.369-2.387-3.053-2.387-1.683 0-3.052 1.07-3.052 2.387 0 1.316 1.37 2.387 3.052 2.387m0-5.774c2.234 0 4.053 1.519 4.053 3.387 0 1.867-1.819 3.387-4.053 3.387s-4.052-1.52-4.052-3.387c0-1.868 1.818-3.387 4.052-3.387M116.671 205.208c8.678 3.328 15.42-.394 18.605-2.837-2.443.91-6.252 2.014-10.405 2.014-1.682 0-3.276-.201-4.777-.57a10.157 10.157 0 01-1.81-.427 10.23 10.23 0 01-2.599-1.317c-5.375-3.06-8.679-8.551-10.18-11.58.265 3.658 1.968 11.19 11.166 14.717m12.594-15.637c1.607 2.343 2.158 5.31 1.221 8.117-.903 2.707-3.046 4.764-5.72 5.693.036 0 .07.004.105.004 5.661 0 10.824-2.202 12.287-2.883-.665-1.56-3.254-7.087-7.893-10.931m-3.156-5.777c-8.53-3.27-15.188.27-18.438 2.712 2.447-.901 6.194-1.965 10.273-1.965h.002c2.467 0 4.761.399 6.816 1.187 6.681 2.562 10.71 9.046 12.467 12.54-.36-3.744-2.235-11.066-11.12-14.474m-9.98 17.359c.726.42 1.48.803 2.282 1.11.593.227 1.214.408 1.848.567.425.06.853.097 1.282.097 3.674 0 6.887-2.232 7.996-5.555 1.451-4.345-1.096-9.14-5.676-10.69a9.16 9.16 0 00-2.937-.486c-3.673 0-6.886 2.232-7.995 5.555-1.162 3.48.243 7.244 3.2 9.402m-4.149-9.718c.97-2.908 3.37-5.066 6.323-5.88-.12-.002-.236-.014-.357-.014h-.002c-5.66 0-10.824 2.202-12.286 2.883.615 1.444 2.882 6.294 6.902 10.058-1.096-2.142-1.379-4.654-.58-7.047m-7.454-3.212a.49.49 0 01.2-.441c.006-.008.008-.02.015-.027.07-.078 5.697-6.284 14.49-6.284 2.221 0 4.647.398 7.235 1.39 12.857 4.93 11.831 17.68 11.82 17.809v.002a.487.487 0 01-.18.459c-.02.04-.037.082-.068.117-.087.099-8.9 9.814-21.724 4.894-12.859-4.93-11.832-17.681-11.82-17.808.004-.04.02-.075.032-.111" fill="#b4985a"/><path d="M120.063 198.07c.429.145.872.218 1.317.218 1.639 0 3.072-.992 3.565-2.47.646-1.935-.494-4.074-2.542-4.766a4.1 4.1 0 00-1.317-.218c-1.639 0-3.072.993-3.564 2.47-.648 1.936.493 4.074 2.541 4.766m1.023-8.236a5.1 5.1 0 011.637.27c2.569.869 3.99 3.574 3.171 6.03-.631 1.887-2.444 3.154-4.514 3.154a5.1 5.1 0 01-1.637-.271c-2.569-.868-3.991-3.573-3.17-6.03.63-1.885 2.443-3.153 4.513-3.153M316.68 202.07c-.78.547-1.65.996-2.6 1.318-.594.2-1.2.339-1.811.428-1.5.368-3.094.569-4.777.569-4.153 0-7.962-1.104-10.405-2.015 3.184 2.444 9.926 6.167 18.607 2.838 9.198-3.527 10.9-11.062 11.167-14.72-1.501 3.029-4.806 8.522-10.181 11.582m-2.261-16.53c-.122 0-.237.013-.357.015 2.952.814 5.352 2.972 6.324 5.88.798 2.39.515 4.9-.58 7.042 4.016-3.763 6.285-8.61 6.9-10.054-1.462-.68-6.626-2.883-12.287-2.883m-8.163-1.746c-9.047 3.47-10.843 10.817-11.153 14.538 1.739-3.48 5.776-10.026 12.498-12.604 2.056-.788 4.35-1.188 6.818-1.188 4.078 0 7.824 1.064 10.27 1.965-3.25-2.442-9.906-5.98-18.433-2.711m4.566 19.133c.429 0 .857-.036 1.282-.097.634-.16 1.255-.34 1.848-.567a16.024 16.024 0 002.284-1.111c2.956-2.16 4.362-5.923 3.2-9.401-1.11-3.323-4.323-5.555-7.996-5.555a9.16 9.16 0 00-2.937.487c-4.581 1.549-7.128 6.344-5.677 10.688 1.109 3.324 4.322 5.556 7.996 5.556m-8.945-5.24c-.937-2.805-.386-5.773 1.222-8.116-4.64 3.844-7.23 9.372-7.893 10.93 1.46.682 6.618 2.884 12.286 2.884.036 0 .069-.004.105-.005-2.674-.928-4.816-2.985-5.72-5.692m14.175 8.454c-12.825 4.92-21.638-4.795-21.725-4.895-.031-.034-.047-.075-.067-.114a.492.492 0 01-.181-.462v-.001c-.012-.128-1.038-12.88 11.819-17.81 2.589-.992 5.013-1.39 7.237-1.39 8.79 0 14.419 6.207 14.488 6.285.007.008.009.018.015.027a.487.487 0 01.2.438c.013.037.029.073.033.113.012.128 1.037 12.879-11.82 17.809" fill="#b4985a"/><path d="M307.418 195.818c.493 1.478 1.926 2.47 3.564 2.47.446 0 .89-.073 1.318-.218 2.048-.692 3.188-2.83 2.541-4.766-.492-1.478-1.925-2.47-3.565-2.47-.444 0-.886.073-1.315.218-2.048.692-3.189 2.831-2.543 4.766m2.223-5.713a5.092 5.092 0 011.635-.271c2.072 0 3.885 1.267 4.514 3.153.82 2.457-.6 5.162-3.17 6.03a5.1 5.1 0 01-1.638.271c-2.069 0-3.882-1.267-4.513-3.153-.82-2.457.604-5.162 3.173-6.03M215.958 37.892c-1.654 0-3 1.372-3 3.059 0 1.686 1.346 3.058 3 3.058s3-1.372 3-3.058c0-1.687-1.346-3.06-3-3.06m0 7.118c-2.206 0-4-1.82-4-4.058 0-2.24 1.794-4.06 4-4.06s4 1.82 4 4.06c0 2.238-1.794 4.058-4 4.058m0 13.139c1.37 0 2.413-1.206 2.413-1.809 0-.546-1.032-1.158-2.413-1.158-1.38 0-2.413.612-2.413 1.159 0 .602 1.043 1.808 2.413 1.808m0-3.968c1.914 0 3.413.948 3.413 2.16 0 1.237-1.607 2.808-3.413 2.808-1.806 0-3.413-1.57-3.413-2.809 0-1.21 1.5-2.159 3.413-2.159m0-6.514c-1.654 0-3 .976-3 2.176 0 1.2 1.346 2.175 3 2.175s3-.976 3-2.175c0-1.2-1.346-2.176-3-2.176m0 5.351c-2.206 0-4-1.424-4-3.175 0-1.75 1.794-3.176 4-3.176s4 1.425 4 3.176c0 1.751-1.794 3.175-4 3.175m0-23.338c-1.643 0-2.979.969-2.979 2.16 0 1.192 1.336 2.16 2.98 2.16 1.642 0 2.98-.968 2.98-2.16 0-1.191-1.338-2.16-2.98-2.16m0 5.32c-2.195 0-3.98-1.418-3.98-3.16 0-1.742 1.785-3.16 3.98-3.16 2.193 0 3.98 1.418 3.98 3.16 0 1.742-1.787 3.16-3.98 3.16m-57.241 261.3c-.269.032-.462.215-.53.644l-.395 2.292-.68 4.234c-.059.368.074.553.294.677l.685.362c-.032.196-.016.174-.084.364l-4.198-.675a1.964 1.964 0 01.01-.376l.637-.124c.286-.055.498-.121.575-.6l.474-2.87-3.817-.614-.452 2.81c-.073.455.04.7.316.858l.533.287c-.018.11-.025.235-.068.34l-4.112-.66a2.002 2.002 0 01.035-.372l.502-.07c.321-.037.615-.14.68-.545l.69-4.296.341-2.275c.058-.444-.098-.721-.402-.87l-.525-.261a.944.944 0 01.121-.358l4.173.67c.024.168.016.217-.01.377l-.465.076c-.466.076-.65.286-.712.59l-.432 2.374-.087.54 3.817.613.085-.527.354-2.437a.572.572 0 00-.337-.646l-.582-.295a2.09 2.09 0 01.087-.388l4.223.678c.002.139.003.215-.023.374zm7.488 1.158c-1.369-.17-2.513.98-2.826 3.52-.298 2.42.376 3.856 1.992 4.055 1.567.193 2.564-1.087 2.86-3.48.305-2.48-.335-3.887-2.026-4.095m-.71 8.504c-2.8-.345-4.754-2.891-4.4-5.753.335-2.727 1.955-4.08 5.064-3.696 3.023.372 4.71 2.948 4.37 5.71-.324 2.617-1.802 4.138-5.034 3.739m7.435.164c.256-.063.426-.284.47-.73l.441-4.665c.287-3.032 2.671-3.018 4.441-2.851 1.596.152 3.696 1.05 3.421 3.958l-.418 4.406c-.04.42.142.613.322.693l.587.255c-.004.174-.029.172-.072.368l-3.403-.323c-.015-.114.007-.211.02-.335l.497-.115c.498-.115.75-.266.806-.86l.411-4.344c.213-2.24-.758-2.807-1.735-2.9-1.027-.097-2.468.079-2.666 2.17l-.475 5.012c-.026.273.063.393.327.506l.807.314c-.005.174-.01.11-.059.356l-4.38-.415a1.284 1.284 0 01-.018-.351zm16.893-5.435c.053-.743-.867-1.121-1.363-1.156-1.463-.104-2.399.427-2.712 2.025l-.595-.043-.073-2.298c.932-.482 2.212-.602 3.241-.53 1.798.13 3.76 1.105 3.61 3.2-.192 2.69-4.956 2.388-5.078 4.099-.062.868.721 1.236 1.428 1.286 1.265.09 2.083-.55 2.444-1.583l.508.037-.142 1.996c-.656.277-1.642.48-2.982.385-1.562-.111-3.149-1.62-3.03-3.282.2-2.815 4.625-2.474 4.744-4.135m4.494 7.169c.391-.105.564-.32.584-.73l.212-4.196.094-2.348c.023-.46-.24-.684-.582-.801l-.465-.173c.003-.062.014-.273.045-.384l7.263.367.237 1.966-.418.14c-.496-1.033-1.118-1.288-2.01-1.37l-1.846-.168-.194 2.853-.028.559 3.256.102-.047.93-3.25-.225-.17 3.377 2.363.032c.523.014 1.047-.271 1.234-1.01.136.02.283.065.38.108l-.093 1.85-7.139-.36a1.237 1.237 0 01.006-.373zm19.305.433c1.578.015 2.424-1.37 2.446-3.781.023-2.5-.773-3.824-2.476-3.84-1.38-.012-2.386 1.259-2.41 3.82-.022 2.436.811 3.786 2.44 3.8m-.183-8.553c3.045.027 5.013 2.395 4.987 5.179-.024 2.636-1.32 4.315-4.576 4.285-2.822-.026-5.05-2.334-5.025-5.218.025-2.747 1.481-4.275 4.614-4.246m11.995.041c.053.124.056.26.06.36l-1.299.332c-.259.068-.352.344-.355.692l.02 2.263.007.298 3.254-.144.023.92-3.257.02.092 3.678 2.36-.171c.508-.038 1.012-.237 1.154-1.024a1 1 0 01.387.052l.046 1.827-7.133.18c-.015-.087-.042-.198-.034-.372l.567-.19c.394-.133.526-.335.511-.932l-.102-4.04-.096-2.334c-.024-.472-.24-.665-.503-.746l-.602-.184c-.002-.087-.018-.223.016-.361zm13.625 8.885c.882.754 1.527 1.31 2.564 1.744l-.196.46c-.696-.18-1.472-.43-1.96-.673-.414.35-1.407.798-2.13.98l-.386-.585c.742-.47 1.537-1.305 2.108-1.926m-.803-1.083l.484-.031c1.464-.092 2.276-.853 2.198-2.081-.073-1.166-.663-1.84-2.042-1.778l-.882.043zm.555-8.418a.905.905 0 01.085.368l-.68.267c-.256.103-.366.335-.36.62l.113 2.597s.582-.05.967-.073c.112-.007.3-.007.3-.007.477-1.3 1.055-2.62 1.771-3.312.881-.84 1.76-.945 2.714-1.005a56.4 56.4 0 01.397-.025l.052.432c-.6.349-1.117 1.055-1.579 1.819-.45.775-.805 1.657-1.065 2.284 1.128.514 1.71 1.424 1.765 2.318.12 1.885-1.46 2.707-3.273 2.82l-4.913.31c-.033-.135-.064-.22-.072-.357l.79-.311c.23-.102.313-.37.3-.592l-.28-4.441-.172-2.145c-.032-.508-.245-.72-.586-.797l-.556-.127a2.215 2.215 0 01.001-.374zm14.148-1.076l.5 1.916-.397.196c-.63-.958-1.28-1.127-2.175-1.09l-1.852.083.191 2.853.048.558 3.24-.337.078.929-3.25.213.285 3.369 2.346-.286c.52-.056 1.001-.41 1.087-1.165.137 0 .29.026.391.055l.156 1.845-7.122.603a1.22 1.22 0 01-.044-.37l.543-.221c.373-.156.515-.393.481-.802l-.355-4.187-.223-2.34c-.038-.457-.329-.644-.684-.714l-.483-.11c-.005-.061-.023-.272-.008-.385zm2.874-.274l6.861-.725.601 2.486-.623.254c-.35-.713-.797-1.504-1.507-1.48l-3.047.149 5.6 6.97-.17.743-6.899.73-.255-2.411c.206-.06.265-.09.34-.098.074-.008.15.009.363.012.244.774.516 1.333.843 1.348l3.012-.244-5.358-6.683zm13.172 4.5l.637 1.233.05-.006.22-1.383.396-1.781-2.256.293zm-1.433-5.818c.025.097.048.18.058.355l-.59.366c-.292.175-.485.426-.44.77.017.137.075.292.173.468l.874 1.516 2.836-.37.392-1.805c.05-.195.064-.372.042-.545-.037-.283-.193-.514-.55-.567l-.717-.108a.8.8 0 01-.007-.35l4.18-.543c.038.108.081.152.105.337l-.212.203c-.155.158-.28.45-.352.76l-2.09 8.608-1.378-.284-4.433-7.384c-.146-.257-.353-.405-.584-.538l-.244-.144a.87.87 0 01-.022-.361zm5.987 9.989l-.403 1.432a13.942 13.942 0 00-3.654-1.205l.05-.583c1.302-.007 2.948.118 4.007.356m8.105-2.4c.951.665 1.647 1.157 2.72 1.488l-.149.478c-.71-.113-1.507-.286-2.017-.481-.378.388-1.323.93-2.025 1.183l-.44-.546c.693-.54 1.402-1.448 1.911-2.122m-1.345-9.516c1.043-.17 2.18.013 2.98.363l-.208.902c-.795-.325-1.549-.392-2.408-.254-1.865.3-2.762 2.158-2.446 4.122.406 2.516 1.704 3.54 3.337 3.277 1.325-.214 2.048-.96 2.28-2.03a1.9 1.9 0 01.367-.06l.31 1.916c-.752.498-1.588.86-2.766 1.05-2.823.455-5.309-1.298-5.734-3.936-.505-3.13 1.084-4.834 4.288-5.35" fill="#b4985a"/><path d="M208.323 171.61v43.301l5.803-.093c9.976 0 15.415-3.826 15.415-12.02 0-8.196-4.08-11.837-13.873-11.928 0 0 1.992-5.074 2.721-6.74 3.066-7.01 8.522-16.39 13.874-21.397 7.252-6.738 16.05-7.557 22.67-7.194l.634 6.283c-4.989 1.185-8.886 4.28-13.33 9.471-3.99 4.644-7.89 11.564-9.974 15.571 7.527 3.277 11.428 10.288 11.428 17.027 0 13.384-10.703 18.21-23.488 18.21h-32.618c-.272-1.002-.363-3.277-.363-4.826l1.616-.554 3.454-1.305c2.178-1.245 3.271-3.64 3.271-6.244v-38.156c0-12.745-2.628-16.298-12.784-22.579l3.99-7.105c10.427 4.736 21.554 11.474 21.554 30.278" fill="#012030"/><path d="M223.825 230.017c2.425 0 9.981 8.26 9.981 9.886 0 1.898-8.09 9.887-9.98 9.887-2.025 0-9.847-7.72-9.847-9.887 0-2.03 7.69-9.886 9.846-9.886m-23.323 0c2.427 0 9.98 8.26 9.98 9.886 0 1.898-7.957 9.887-9.98 9.887-2.023 0-9.845-7.72-9.845-9.887 0-2.03 7.686-9.886 9.845-9.886" fill="#b4985a"/></g></svg>