<svg width="500.357" height="161.103" xmlns="http://www.w3.org/2000/svg"><defs><clipPath clipPathUnits="userSpaceOnUse" id="a"><path d="M0 177.725h450.115V0H0z"/></clipPath><clipPath clipPathUnits="userSpaceOnUse" id="b"><path d="M0 177.725h450.115V0H0z"/></clipPath></defs><path d="M145.314 66.332h-14.26l1.026-14.288h-7.06l-2.282 34.803h7.06l.98-14.831h14.26l-.976 14.83h6.947l2.232-34.802h-6.95z" fill="#344079"/><g clip-path="url(#a)" transform="matrix(1.33333 0 0 -1.33333 -49.899 203)"><path d="M167.508 97.224c-.216-3.955-1.763-6.133-4.354-6.133-1.55 0-2.156.772-2.156 2.753 0 .37.074 1.187.165 2.226.241 2.738.605 6.877.281 9.47l-.035.287h-4.735l.052-.372c.457-3.326.03-8.156-.2-10.75-.075-.855-.128-1.472-.128-1.765 0-3.99 2.046-6.278 5.616-6.278 1.851 0 3.638.742 5.026 2.062l-.1-1.516c-.24-3.784-1.77-5.473-4.966-5.473-1.483 0-2.273.073-4.03.52l-.379.095-.249-3.942.263-.065c1.866-.475 2.616-.545 4.231-.545 6.691 0 9.454 2.734 9.85 9.749l.994 18.28h-4.684l-.462-8.603m19.441 4.667c1.86 0 2.93-1.572 2.93-4.315 0-3.648-2.047-6.403-4.762-6.403-1.148 0-2.142.448-2.882 1.301l.197 3.237c.232 3.753 2.005 6.18 4.517 6.18m1.057 4.427c-2.138 0-3.794-.684-5.41-2.266a5.947 5.947 0 01-.3 1.544l-.071.232h-4.727l.099-.406c.23-.935.52-2.975.437-4.584l-1.32-23.04h4.843l.595 10.162c1.032-.774 2.2-1.097 3.86-1.097 5.333 0 8.913 4.685 8.913 11.66 0 4.663-2.78 7.795-6.92 7.795m18.841-4.305c2.403 0 3.785-1.78 3.785-4.888 0-3.74-1.74-6.159-4.436-6.159-2.378 0-3.743 1.737-3.743 4.766 0 3.933 1.642 6.281 4.394 6.281m.202 4.305c-5.948 0-9.643-4.04-9.643-10.548 0-5.61 3.354-9.233 8.545-9.233 6.014 0 9.604 3.99 9.604 10.67 0 5.705-3.179 9.111-8.506 9.111m18.32 4.065h-4.684l-.243-4.557h-2.56l-.246-3.777h2.563l-.626-9.828c-.103-1.717.305-3.074 1.213-4.042.973-1.032 2.468-1.556 4.445-1.556 1.74 0 3.227.418 4.416 1.244l.132.092.2 4.133-.521-.31c-1.406-.837-2.426-1.227-3.213-1.227-.623 0-1.067.153-1.362.463-.368.39-.526 1.087-.466 2.066l.51 8.965h5.286l.293 3.777h-5.343l.206 4.557m13.188-12.48c-.349 0-.562 0-.915.036.542 2.361 2.39 4.36 4.09 4.36 1.047 0 1.866-.777 1.866-1.767 0-1.573-2.026-2.629-5.04-2.629m3.577 8.331c-5.568 0-9.768-4.763-9.768-11.076 0-5.292 3.087-8.58 8.06-8.58 2.185 0 3.93.501 6.024 1.73l.154.091.15 4.42-.525-.344c-1.867-1.218-3.64-1.836-5.27-1.836-2.104 0-3.413 1.285-3.638 3.549l.167-.015c.314-.024.561-.042.864-.042 6.13 0 10.092 2.625 10.092 6.69 0 3.339-2.419 5.413-6.31 5.413m38.08.085c-2.136 0-4.277-.94-5.865-2.54a8.154 8.154 0 01-.415 1.823l-.074.225h-4.738l.122-.419c.352-1.19.477-2.552.477-5.203 0-1.005-.685-12.628-.695-12.745l-.017-.346h4.72l.587 9.25c.243 3.668 2.444 5.65 4.394 5.65.667 0 1.317-.286 1.783-.784.501-.535.751-1.27.7-2.078l-.673-12.038h4.887l.67 12.623c.103 1.96-.45 3.636-1.595 4.841-1.066 1.123-2.58 1.74-4.268 1.74m41.1-15.314c-1.145 0-1.559.104-2.473.67l.003.028c.19 2.75.355 5.127.674 5.98.483 2.738 2.435 4.169 4.115 4.169 1.945 0 2.892-1.33 2.892-4.067 0-4.18-1.998-6.78-5.211-6.78m3.251 15.273c-2.072 0-3.715-.621-5.103-1.946l.777 11.716h-4.725l-1.619-27.528.19-.095c2.131-1.096 4.75-1.723 7.187-1.723 6.063 0 10.136 4.767 10.136 11.863 0 4.758-2.62 7.713-6.843 7.713m17.053-15.023c-1.756 0-2.726 1.238-2.726 3.49 0 4.224 2.222 7.062 5.53 7.062a7.63 7.63 0 002.304-.32l-.27-4.173c-.222-3.397-2.347-6.06-4.838-6.06m9.744 14.065c-2.394.777-3.816.915-5.92.915-7.188 0-11.478-4.326-11.478-11.57 0-4.985 2.51-7.962 6.718-7.962 2.214 0 4.314.92 5.772 2.496.074-.98.247-1.783.255-1.826l.057-.256h4.484l-.072.387c-.27 1.438-.398 3.119-.365 4.72l.789 13.016-.24.08m15.516 1.001c-2.135 0-4.282-.94-5.872-2.542a8.296 8.296 0 01-.409 1.825l-.073.225h-4.749l.124-.418c.353-1.187.478-2.548.478-5.204 0-1.004-.687-12.627-.693-12.744l-.022-.347h4.724l.588 9.25c.248 3.668 2.448 5.65 4.396 5.65a2.46 2.46 0 001.784-.783c.5-.534.75-1.27.702-2.078l-.671-12.039h4.885l.669 12.624c.1 1.963-.45 3.637-1.596 4.843-1.065 1.12-2.58 1.738-4.264 1.738m23.329-14.053l-3.897 5.621 9.753 7.94h-7.145l-6.667-5.81.95 15.907h-4.723l-1.71-28.809h4.725l.49 8.505 3.007-4.386a923.215 923.215 0 002.764-3.979l.099-.14h6.285l-.45.536c-1.03 1.226-2.46 3.125-3.481 4.615" fill="#344079"/><path d="M402.708 91.254c-1.761 0-2.732 1.238-2.732 3.49 0 4.224 2.224 7.062 5.534 7.062.724 0 1.377-.054 2.304-.32l-.27-4.173c-.225-3.397-2.35-6.06-4.836-6.06m9.195.969l.788 13.017-.24.078c-2.401.779-3.822.917-5.922.917-7.185 0-11.475-4.327-11.475-11.57 0-4.987 2.509-7.964 6.714-7.964 2.214 0 4.315.922 5.772 2.497.074-.98.246-1.78.255-1.826l.056-.256h4.482l-.071.385a23.825 23.825 0 00-.36 4.721m-151.144 9.629c1.348 0 2.225-.32 3.681-1.036l.376-.185.917 4.397-.235.11c-1.274.6-2.607 1.14-4.86 1.14-6.005 0-9.886-4.25-9.886-10.83 0-5.394 3.181-8.745 8.297-8.745 2.07 0 3.866.458 5.648 1.437l.17.094v4.63l-.497-.305c-1.818-1.117-3.09-1.553-4.547-1.553-2.558 0-4.025 1.68-4.025 4.607 0 3.731 1.992 6.24 4.961 6.24m.447 9.243l-2.984 2.578h-4.158l4.445-5.866h5.13l5.28 5.866h-4.255zm30.152-3.288h3.877l6.292 5.826h-6.685zm-.949-20.691h4.807l.968 18.713h-4.761z" fill="#344079"/><path d="M117.694 87.442H77.577c-1.813 0-3.29-1.484-3.29-3.315s1.477-3.318 3.29-3.318h40.117c1.814 0 3.29 1.487 3.29 3.318s-1.476 3.315-3.29 3.315m6.292 36.77s-35.997 27.631-36.522 28.037c-.25-.163-48.525-31.547-48.53-31.547a3.282 3.282 0 01-1.428-2.08 3.155 3.155 0 01-.082-.713c0-.628.18-1.247.528-1.791a3.256 3.256 0 012.067-1.442 3.235 3.235 0 012.478.453l44.188 28.725s.228.15.47.135c.207-.008.368-.124.368-.124l32.475-24.93a3.288 3.288 0 014.613.622c.446.603.67 1.31.67 2.009a3.322 3.322 0 01-1.295 2.646" fill="#93b83f"/><path d="M89.7 121.59c3.103 0 5.622 2.535 5.622 5.666 0 3.13-2.52 5.669-5.622 5.669-3.1 0-5.617-2.539-5.617-5.669 0-3.13 2.518-5.667 5.617-5.667" fill="#344079"/><path d="M98.217 111.1c-.088.092-.143.26-.143.423 0 .35.368.508.785.66.736.263 2.87 1.344 4.541 2.593.874.656 1.644 1.552 1.644 3.028 0 2.077-1.71 3.525-3.593 3.525-1.036 0-1.954-.68-3.182-1.448-1.875-1.168-4.557-2.6-8.656-2.6-4.71 0-8.905 1.9-11.489 3.647-2.127 1.442-3.375 2.795-4.977 2.795-2.337 0-3.505-2.03-3.505-3.522 0-1.164.57-2.15 1.293-2.749 1.673-1.389 3.58-2.494 5.3-3.485.233-.133.326-.298.326-.453 0-.25-.166-.409-.384-.532-6.774-3.969-11.796-8.567-18.993-20.64a3.52 3.52 0 01-.5-1.816c0-1.629 1.186-3.536 3.433-3.536 1.16 0 2.317.597 2.946 1.71 8.768 15.561 18.004 20.358 23.57 20.358 4.645 0 9.17-4.128 12.714-11.794.603-1.307 1.901-2.044 3.243-2.044 2.078 0 3.446 1.933 3.446 3.536 0 2.27-4.579 9.538-7.819 12.343" fill="#344079"/></g><path d="M.001 118.638h500.356v-2.283H.001z" fill="#868686"/><g clip-path="url(#b)" transform="matrix(1.33333 0 0 -1.33333 -49.899 203)"><path d="M87.03 32.196c-.808-.375-2.431-.751-4.511-.751-4.815 0-8.441 2.816-8.441 7.995 0 4.947 3.626 8.299 8.924 8.299 2.126 0 3.472-.42 4.052-.701l-.528-1.667c-.838.378-2.03.657-3.451.657-4.001 0-6.666-2.366-6.666-6.516 0-3.868 2.408-6.355 6.567-6.355 1.342 0 2.712.26 3.597.657zm-5.451 16.2l-2.658 2.673h1.873l1.622-1.641h.052l1.598 1.64h1.822l-2.608-2.672zm8.722-.913V31.68h9.507v1.712H92.51v14.091zm12.475 0V31.68h9.605v1.712h-7.397v5.698h6.637v1.687h-6.637v4.994h7.015v1.712zm12.976-15.802v15.8h2.409l5.478-7.993c1.265-1.852 2.253-3.517 3.065-5.135l.047.022c-.2 2.112-.253 4.034-.253 6.496v6.61h2.08v-15.8h-2.23l-5.425 8.017c-1.19 1.758-2.327 3.564-3.191 5.276l-.078-.025c.126-1.99.179-3.89.179-6.516v-6.752zm22.768 2.486c.985-.563 2.431-1.032 3.954-1.032 2.253 0 3.571 1.1 3.571 2.697 0 1.477-.91 2.319-3.22 3.139-2.786.917-4.51 2.253-4.51 4.478 0 2.462 2.206 4.292 5.525 4.292 1.746 0 3.018-.375 3.777-.775l-.608-1.665a7.212 7.212 0 01-3.246.75c-2.33 0-3.216-1.288-3.216-2.365 0-1.48 1.038-2.206 3.395-3.048 2.89-1.033 4.361-2.322 4.361-4.643 0-2.438-1.954-4.548-5.982-4.548-1.648 0-3.446.446-4.362 1.008zm13.308 13.315h2.206v-7.619h.074a37.52 37.52 0 001.343 1.688l5.222 5.931h2.739l-6.185-6.706 6.664-9.094h-2.611l-5.624 7.761-1.622-1.736v-6.025h-2.206zm16.452 0v-9.354c0-3.539 1.698-5.04 3.978-5.04 2.534 0 4.157 1.548 4.157 5.04v9.354h2.229V38.27c0-4.853-2.763-6.847-6.466-6.847-3.495 0-6.132 1.853-6.132 6.753v9.307zm14.701-.187c1.067.162 2.458.304 4.236.304 2.176 0 3.777-.47 4.789-1.311.936-.751 1.492-1.9 1.492-3.307 0-1.43-.454-2.555-1.319-3.377-1.164-1.148-3.065-1.734-5.217-1.734-.657 0-1.269.026-1.775.14v-6.33h-2.206zm2.206-7.62c.482-.117 1.089-.162 1.822-.162 2.665 0 4.288 1.195 4.288 3.374 0 2.087-1.6 3.095-4.031 3.095-.961 0-1.699-.07-2.079-.164zm11.788-7.996h2.205v15.803h-2.205zm6.567.002v15.8h2.408l5.474-7.993c1.266-1.852 2.257-3.517 3.064-5.135l.052.022c-.199 2.112-.252 4.034-.252 6.496v6.61h2.075v-15.8h-2.23l-5.42 8.017c-1.194 1.758-2.333 3.564-3.192 5.276l-.083-.025c.132-1.99.18-3.89.18-6.516v-6.752zm20.815 0v6.705l-5.399 9.095h2.509l2.409-4.36a65.728 65.728 0 001.696-3.257h.052c.481 1.03 1.059 2.062 1.719 3.257l2.46 4.36h2.509l-5.725-9.072v-6.728zm28.236.515c-.812-.375-2.436-.751-4.515-.751-4.813 0-8.437 2.816-8.437 7.995 0 4.947 3.624 8.299 8.92 8.299 2.131 0 3.471-.42 4.054-.701l-.53-1.667c-.838.378-2.03.657-3.446.657-4.006 0-6.666-2.366-6.666-6.516 0-3.868 2.408-6.355 6.562-6.355 1.344 0 2.712.26 3.601.657zm-5.45 16.2l-2.658 2.673h1.872l1.623-1.641h.051l1.593 1.64h1.828l-2.613-2.672zm8.418-14.229c.986-.563 2.431-1.032 3.955-1.032 2.252 0 3.571 1.1 3.571 2.697 0 1.477-.91 2.319-3.22 3.139-2.786.917-4.51 2.253-4.51 4.478 0 2.462 2.205 4.292 5.524 4.292 1.746 0 3.02-.375 3.777-.775l-.608-1.665a7.207 7.207 0 01-3.245.75c-2.332 0-3.216-1.288-3.216-2.365 0-1.48 1.037-2.206 3.394-3.048 2.89-1.033 4.361-2.322 4.361-4.643 0-2.438-1.953-4.548-5.98-4.548-1.649 0-3.447.446-4.364 1.008zm27.905 5.579c0-5.438-3.57-8.323-7.934-8.323-4.509 0-7.678 3.235-7.678 8.019 0 5.017 3.377 8.299 7.933 8.299 4.663 0 7.68-3.307 7.68-7.995m-13.252-.257c0-3.376 1.977-6.401 5.446-6.401 3.5 0 5.476 2.978 5.476 6.564 0 3.142-1.775 6.425-5.448 6.425-3.65 0-5.474-3.12-5.474-6.588m16.626 7.783c.963.187 2.487.328 4.028.328 2.208 0 3.628-.35 4.691-1.15.886-.609 1.42-1.547 1.42-2.789 0-1.525-1.089-2.86-2.89-3.47v-.045c1.622-.376 3.524-1.62 3.524-3.964 0-1.36-.583-2.39-1.445-3.164-1.19-1.008-3.116-1.477-5.907-1.477-1.52 0-2.683.093-3.42.188zm2.205-6.472h2.001c2.334 0 3.702 1.126 3.702 2.651 0 1.85-1.518 2.578-3.749 2.578-1.013 0-1.598-.07-1.954-.14zm0-7.572c.43-.069 1.067-.094 1.853-.094 2.28 0 4.383.773 4.383 3.073 0 2.156-2.004 3.047-4.413 3.047h-1.823z" fill="#868686"/></g></svg>